<?xml version="1.0" encoding="utf-8"?>
<!-- Generator: Adobe Illustrator 27.1.1, SVG Export Plug-In . SVG Version: 6.00 Build 0)  -->
<svg version="1.1" id="Calque_1" xmlns="http://www.w3.org/2000/svg" xmlns:xlink="http://www.w3.org/1999/xlink" x="0px" y="0px"
	 viewBox="0 0 848 480" style="enable-background:new 0 0 848 480;" xml:space="preserve">
<style type="text/css">
	.st0{clip-path:url(#SVGID_00000023239841540652000100000000020793718145277364_);fill:#05475C;}
	.st1{opacity:0.62;clip-path:url(#SVGID_00000023239841540652000100000000020793718145277364_);}
	.st2{opacity:0.34;fill:url(#SVGID_00000005231602569494731100000006077812473792822453_);enable-background:new    ;}
	.st3{opacity:0.34;fill:url(#SVGID_00000054975688817621217050000001573576013526928007_);enable-background:new    ;}
	.st4{opacity:0.34;fill:url(#SVGID_00000134233119949624214120000004124113630124941502_);enable-background:new    ;}
	.st5{opacity:0.34;fill:url(#SVGID_00000128474699397423501270000011537736504794847673_);enable-background:new    ;}
	.st6{opacity:0.34;fill:url(#SVGID_00000139284936295680034120000008772844642114832306_);enable-background:new    ;}
	.st7{opacity:0.34;fill:url(#SVGID_00000123403725894113054760000018032360395559983016_);enable-background:new    ;}
	.st8{opacity:0.34;fill:url(#SVGID_00000129909377472835448200000007022510269779593380_);enable-background:new    ;}
	.st9{opacity:0.34;fill:url(#SVGID_00000175299859433068160000000001147929915271133875_);enable-background:new    ;}
	.st10{opacity:0.34;fill:url(#SVGID_00000152943788725518335410000000336551065790304435_);enable-background:new    ;}
	.st11{opacity:0.34;fill:url(#SVGID_00000113337276942092242840000016609185808161597080_);enable-background:new    ;}
	.st12{opacity:0.34;fill:url(#SVGID_00000016046365452561016310000004548188095358016955_);enable-background:new    ;}
	.st13{opacity:0.34;fill:url(#SVGID_00000005256327039844803600000007716523179211756964_);enable-background:new    ;}
	.st14{opacity:0.34;fill:url(#SVGID_00000016755813766083414840000011107018161066882972_);enable-background:new    ;}
	.st15{opacity:0.34;fill:url(#SVGID_00000072256149756198110160000008635187671424029090_);enable-background:new    ;}
	.st16{opacity:0.34;fill:url(#SVGID_00000173129083630321332790000015711692443456237983_);enable-background:new    ;}
	
		.st17{opacity:0.12;clip-path:url(#SVGID_00000023239841540652000100000000020793718145277364_);fill:url(#SVGID_00000103242819475716206160000003071790990073190044_);enable-background:new    ;}
	
		.st18{opacity:0.12;clip-path:url(#SVGID_00000023239841540652000100000000020793718145277364_);fill:url(#SVGID_00000055672087550288352820000000157451887897808298_);enable-background:new    ;}
	
		.st19{opacity:0.12;clip-path:url(#SVGID_00000023239841540652000100000000020793718145277364_);fill:url(#SVGID_00000155143610888252323490000010039879382103143078_);enable-background:new    ;}
	
		.st20{opacity:0.12;clip-path:url(#SVGID_00000023239841540652000100000000020793718145277364_);fill:url(#SVGID_00000054974447243202099380000001885989930940465797_);enable-background:new    ;}
	
		.st21{opacity:0.12;clip-path:url(#SVGID_00000023239841540652000100000000020793718145277364_);fill:url(#SVGID_00000106845388366592186050000007248395675817468300_);enable-background:new    ;}
	
		.st22{opacity:0.12;clip-path:url(#SVGID_00000023239841540652000100000000020793718145277364_);fill:url(#SVGID_00000145041355929681060420000008891239115980822169_);enable-background:new    ;}
	
		.st23{opacity:0.12;clip-path:url(#SVGID_00000023239841540652000100000000020793718145277364_);fill:url(#SVGID_00000130605387954906934920000016299772793311576212_);enable-background:new    ;}
	.st24{clip-path:url(#SVGID_00000023239841540652000100000000020793718145277364_);}
	.st25{opacity:0.71;}
	.st26{fill:#FFFFFF;}
	
		.st27{opacity:0.34;clip-path:url(#SVGID_00000023239841540652000100000000020793718145277364_);fill:url(#DEBIAN_logo_00000043434321645537370790000007759841406228923269_);enable-background:new    ;}
</style>
<g>
	<defs>
		<rect id="SVGID_1_" width="848" height="480"/>
	</defs>
	<clipPath id="SVGID_00000080893850403710275760000009971088509756040853_">
		<use xlink:href="#SVGID_1_"  style="overflow:visible;"/>
	</clipPath>
	
		<rect x="-2.4" y="-0.2" style="clip-path:url(#SVGID_00000080893850403710275760000009971088509756040853_);fill:#05475C;" width="853.3" height="480"/>
	<g style="opacity:0.62;clip-path:url(#SVGID_00000080893850403710275760000009971088509756040853_);">
		
			<radialGradient id="SVGID_00000020367590178960169170000018089208454272038315_" cx="-3534.4041" cy="2278.7834" r="113.8" gradientTransform="matrix(0.8642 0.5228 -0.5025 0.9115 4310.229 18.4903)" gradientUnits="userSpaceOnUse">
			<stop  offset="0" style="stop-color:#18F5B0"/>
			<stop  offset="1" style="stop-color:#05475C;stop-opacity:0"/>
		</radialGradient>
		
			<ellipse style="opacity:0.34;fill:url(#SVGID_00000020367590178960169170000018089208454272038315_);enable-background:new    ;" cx="108.4" cy="237.1" rx="113.8" ry="119.2"/>
		
			<linearGradient id="SVGID_00000091722180690837068870000000008869391289153976_" gradientUnits="userSpaceOnUse" x1="1269.7516" y1="3626.7078" x2="1399.0281" y2="3626.7078" gradientTransform="matrix(-0.7151 0.699 -0.5383 -0.5506 3056.0061 1083.1017)">
			<stop  offset="0" style="stop-color:#18F5B0"/>
			<stop  offset="1" style="stop-color:#05475C;stop-opacity:0"/>
		</linearGradient>
		
			<polygon style="opacity:0.34;fill:url(#SVGID_00000091722180690837068870000000008869391289153976_);enable-background:new    ;" points="
			65.1,24.2 137.7,-86.5 228.5,59.2 186.5,85.7 		"/>
		
			<linearGradient id="SVGID_00000085944872155394697130000000639943883540021157_" gradientUnits="userSpaceOnUse" x1="-2192.5271" y1="313.9991" x2="-2014.3965" y2="313.9991" gradientTransform="matrix(0.7774 0.629 -0.629 0.7774 2006.3506 1089.6605)">
			<stop  offset="0" style="stop-color:#18F5B0"/>
			<stop  offset="1" style="stop-color:#05475C;stop-opacity:0"/>
		</linearGradient>
		
			<polygon style="opacity:0.34;fill:url(#SVGID_00000085944872155394697130000000639943883540021157_);enable-background:new    ;" points="
			177.9,137.8 120.7,-3.6 137.7,-86.5 200,-54.9 278.5,-28.4 262.7,42.2 		"/>
		
			<linearGradient id="SVGID_00000046308620134258003110000000501428402067082137_" gradientUnits="userSpaceOnUse" x1="-2015.8488" y1="-1576.7841" x2="-1685.8474" y2="-1576.7841" gradientTransform="matrix(0.3915 -0.9202 0.9202 0.3915 2251.6875 -976.7429)">
			<stop  offset="0" style="stop-color:#AABDCB"/>
			<stop  offset="1" style="stop-color:#05475C;stop-opacity:0"/>
		</linearGradient>
		
			<polygon style="opacity:0.34;fill:url(#SVGID_00000046308620134258003110000000501428402067082137_);enable-background:new    ;" points="
			-93.8,216 18.4,75.5 130.6,-47.2 222.3,57.9 		"/>
		
			<linearGradient id="SVGID_00000181056183194444889440000015428609122043895200_" gradientUnits="userSpaceOnUse" x1="3701.8123" y1="3641.5381" x2="3844.5422" y2="3641.5381" gradientTransform="matrix(-0.3483 0.5724 -0.7648 -0.6285 4423.4849 157.5545)">
			<stop  offset="0" style="stop-color:#18F5B0"/>
			<stop  offset="1" style="stop-color:#05475C;stop-opacity:0"/>
		</linearGradient>
		
			<polygon style="opacity:0.34;fill:url(#SVGID_00000181056183194444889440000015428609122043895200_);enable-background:new    ;" points="
			401.2,70.1 410.9,153.1 254.6,16.5 244.1,-105.8 		"/>
		
			<linearGradient id="SVGID_00000047047378037645589540000014456723978830229434_" gradientUnits="userSpaceOnUse" x1="-184.1638" y1="-2439.1436" x2="16.519" y2="-2439.1436" gradientTransform="matrix(0.7151 -0.699 0.699 0.7151 2046.7672 1703.2451)">
			<stop  offset="0" style="stop-color:#AABDCB"/>
			<stop  offset="1" style="stop-color:#05475C;stop-opacity:0"/>
		</linearGradient>
		
			<polygon style="opacity:0.34;fill:url(#SVGID_00000047047378037645589540000014456723978830229434_);enable-background:new    ;" points="
			254.6,16.5 120.7,-3.6 189.2,-47.8 281.6,-126.1 399.2,81.6 		"/>
		
			<linearGradient id="SVGID_00000180361172799909429100000016923591291675163526_" gradientUnits="userSpaceOnUse" x1="2286.75" y1="3505.8523" x2="2441.157" y2="3505.8523" gradientTransform="matrix(-0.5898 0.8076 -0.8076 -0.5898 4449.771 133.6549)">
			<stop  offset="0" style="stop-color:#18F5B0"/>
			<stop  offset="1" style="stop-color:#05475C;stop-opacity:0"/>
		</linearGradient>
		
			<polygon style="opacity:0.34;fill:url(#SVGID_00000180361172799909429100000016923591291675163526_);enable-background:new    ;" points="
			235.7,56.5 84.8,-31 244.1,-105.8 290.7,81.6 		"/>
		
			<linearGradient id="SVGID_00000026842110732725574140000013026379666810019483_" gradientUnits="userSpaceOnUse" x1="-405.1796" y1="-4154.9849" x2="-164.4203" y2="-4154.9849" gradientTransform="matrix(-0.2682 -0.9634 1.0501 -0.2924 4293.9448 -1194.4381)">
			<stop  offset="0" style="stop-color:#18F5B0"/>
			<stop  offset="1" style="stop-color:#05475C;stop-opacity:0"/>
		</linearGradient>
		
			<polygon style="opacity:0.34;fill:url(#SVGID_00000026842110732725574140000013026379666810019483_);enable-background:new    ;" points="
			36.8,161.7 102,244 -61.2,438.9 -52.4,299.9 		"/>
		
			<linearGradient id="SVGID_00000083055983752359433350000006016285521563712411_" gradientUnits="userSpaceOnUse" x1="5309.6709" y1="-388.2483" x2="5562.0034" y2="-388.2483" gradientTransform="matrix(-0.9257 0.3783 -0.3783 -0.9257 4873.875 -2139.8633)">
			<stop  offset="0" style="stop-color:#18F5B0"/>
			<stop  offset="1" style="stop-color:#05475C;stop-opacity:0"/>
		</linearGradient>
		
			<polygon style="opacity:0.34;fill:url(#SVGID_00000083055983752359433350000006016285521563712411_);enable-background:new    ;" points="
			-134.1,220 64.3,194.3 108.4,234.9 17.8,359.3 -55.9,400.7 -113.9,357.8 		"/>
		
			<linearGradient id="SVGID_00000076597424384175270940000012345550964263675287_" gradientUnits="userSpaceOnUse" x1="5226.4736" y1="-3616.5649" x2="5521.8833" y2="-3616.5649" gradientTransform="matrix(-0.2347 -0.2596 0.879 -0.2953 4424.7139 496.5184)">
			<stop  offset="0" style="stop-color:#AABDCB"/>
			<stop  offset="1" style="stop-color:#05475C;stop-opacity:0"/>
		</linearGradient>
		
			<polygon style="opacity:0.34;fill:url(#SVGID_00000076597424384175270940000012345550964263675287_);enable-background:new    ;" points="
			-111.2,290.8 -93.8,216 134.6,108.1 65.1,196.5 		"/>
		
			<linearGradient id="SVGID_00000139262440058645006220000000079259865004191625_" gradientUnits="userSpaceOnUse" x1="-6684.6455" y1="700.771" x2="-6088.2153" y2="700.771" gradientTransform="matrix(0.1765 0.3022 -0.9209 0.1087 1801.5133 2214.1531)">
			<stop  offset="0" style="stop-color:#AABDCB"/>
			<stop  offset="1" style="stop-color:#05475C;stop-opacity:0"/>
		</linearGradient>
		
			<polygon style="opacity:0.34;fill:url(#SVGID_00000139262440058645006220000000079259865004191625_);enable-background:new    ;" points="
			91.5,292 192,461.1 -63.6,380.7 -52.4,299.9 		"/>
		
			<linearGradient id="SVGID_00000033349350646550368770000002899576266912903335_" gradientUnits="userSpaceOnUse" x1="-2016.1271" y1="-1614.7766" x2="-1827.4518" y2="-1614.7766" gradientTransform="matrix(0.3915 -0.9202 0.9202 0.3915 2251.6875 -976.7429)">
			<stop  offset="0" style="stop-color:#AABDCB"/>
			<stop  offset="1" style="stop-color:#05475C;stop-opacity:0"/>
		</linearGradient>
		
			<polygon style="opacity:0.34;fill:url(#SVGID_00000033349350646550368770000002899576266912903335_);enable-background:new    ;" points="
			64.3,194.3 -93.8,216 -44.6,62.1 134.6,108.1 		"/>
		
			<radialGradient id="SVGID_00000165216689209492620130000003567413745625169554_" cx="-3615.7051" cy="1925.45" r="119.51" gradientTransform="matrix(1 0 0 -1 0 482)" gradientUnits="userSpaceOnUse">
			<stop  offset="0" style="stop-color:#18F5B0"/>
			<stop  offset="1" style="stop-color:#05475C;stop-opacity:0"/>
		</radialGradient>
		
			<ellipse style="opacity:0.34;fill:url(#SVGID_00000165216689209492620130000003567413745625169554_);enable-background:new    ;" cx="177.9" cy="13.4" rx="119.5" ry="125.2"/>
		
			<linearGradient id="SVGID_00000077314055359851501020000008458420125904410286_" gradientUnits="userSpaceOnUse" x1="5309.6709" y1="-444.2283" x2="5503.0684" y2="-444.2283" gradientTransform="matrix(-0.9257 0.3783 -0.3783 -0.9257 4873.875 -2139.8633)">
			<stop  offset="0" style="stop-color:#18F5B0"/>
			<stop  offset="1" style="stop-color:#05475C;stop-opacity:0"/>
		</linearGradient>
		
			<polygon style="opacity:0.34;fill:url(#SVGID_00000077314055359851501020000008458420125904410286_);enable-background:new    ;" points="
			-65.5,231.9 108.4,234.9 76.2,427.7 17.8,359.3 -45.3,369.8 		"/>
		
			<linearGradient id="SVGID_00000108303799611035020830000014427926774048573866_" gradientUnits="userSpaceOnUse" x1="-1779.3524" y1="-1007.8265" x2="-1604.2471" y2="-1007.8265" gradientTransform="matrix(0.9797 -0.2004 0.2004 0.9797 1903.1371 705.3733)">
			<stop  offset="0" style="stop-color:#AABDCB"/>
			<stop  offset="1" style="stop-color:#05475C;stop-opacity:0"/>
		</linearGradient>
		
			<polygon style="opacity:0.34;fill:url(#SVGID_00000108303799611035020830000014427926774048573866_);enable-background:new    ;" points="
			-44.6,62.1 84.8,39.7 120.7,-3.6 129.3,84.4 		"/>
	</g>
	
		<linearGradient id="SVGID_00000110463147502148512020000007560163981977023901_" gradientUnits="userSpaceOnUse" x1="-2483.553" y1="-2092.0908" x2="-2194.4238" y2="-2092.0908" gradientTransform="matrix(0.4172 -0.9088 0.9088 0.4172 3706.8616 -823.0764)">
		<stop  offset="0" style="stop-color:#18F5B0"/>
		<stop  offset="1" style="stop-color:#05475C;stop-opacity:0"/>
	</linearGradient>
	
		<polygon style="opacity:0.12;clip-path:url(#SVGID_00000080893850403710275760000009971088509756040853_);fill:url(#SVGID_00000110463147502148512020000007560163981977023901_);enable-background:new    ;" points="
		1047.7,370.8 945.1,641.8 631.6,397.5 693.9,298.9 	"/>
	
		<linearGradient id="SVGID_00000182511685774919969130000002358861436112208292_" gradientUnits="userSpaceOnUse" x1="3190.5659" y1="-2791.062" x2="3552.9915" y2="-2791.062" gradientTransform="matrix(-0.9511 -0.3089 0.3089 -0.9511 4831.3955 -1137.8062)">
		<stop  offset="0" style="stop-color:#18F5B0"/>
		<stop  offset="1" style="stop-color:#05475C;stop-opacity:0"/>
	</linearGradient>
	
		<polygon style="opacity:0.12;clip-path:url(#SVGID_00000080893850403710275760000009971088509756040853_);fill:url(#SVGID_00000182511685774919969130000002358861436112208292_);enable-background:new    ;" points="
		663.6,192.9 812.8,469.7 912.1,601.3 722.1,644.2 578.8,666.2 570.2,493 	"/>
	
		<linearGradient id="SVGID_00000164487488369730511030000017293326691008227996_" gradientUnits="userSpaceOnUse" x1="-583.9255" y1="4538.7109" x2="-144.9123" y2="4538.7109" gradientTransform="matrix(-3.594599e-02 0.9994 -0.9994 -3.594599e-02 5342.5488 879.3247)">
		<stop  offset="0" style="stop-color:#AABDCB"/>
		<stop  offset="1" style="stop-color:#05475C;stop-opacity:0"/>
	</linearGradient>
	
		<polygon style="opacity:0.12;clip-path:url(#SVGID_00000080893850403710275760000009971088509756040853_);fill:url(#SVGID_00000164487488369730511030000017293326691008227996_);enable-background:new    ;" points="
		911.5,135.6 952.2,279.7 783.1,570.3 693.6,257 	"/>
	
		<linearGradient id="SVGID_00000093862199649492805950000016192528599652852653_" gradientUnits="userSpaceOnUse" x1="49.8758" y1="-781.6332" x2="521.5058" y2="-781.6332" gradientTransform="matrix(-7.909842e-02 0.6653 -0.9567 -0.2541 200.498 -15.4106)">
		<stop  offset="0" style="stop-color:#18F5B0"/>
		<stop  offset="1" style="stop-color:#05475C;stop-opacity:0"/>
	</linearGradient>
	
		<polygon style="opacity:0.12;clip-path:url(#SVGID_00000080893850403710275760000009971088509756040853_);fill:url(#SVGID_00000093862199649492805950000016192528599652852653_);enable-background:new    ;" points="
		958.5,390.6 1022.8,558.6 795.9,461.9 833.1,185.7 	"/>
	
		<linearGradient id="SVGID_00000083058926251312312620000018406431603474620036_" gradientUnits="userSpaceOnUse" x1="-498.4652" y1="-2091.9729" x2="-240.7485" y2="-2091.9729" gradientTransform="matrix(0.2612 -0.9653 0.9653 0.2612 2892.6851 630.2919)">
		<stop  offset="0" style="stop-color:#18F5B0"/>
		<stop  offset="1" style="stop-color:#05475C;stop-opacity:0"/>
	</linearGradient>
	
		<polygon style="opacity:0.12;clip-path:url(#SVGID_00000080893850403710275760000009971088509756040853_);fill:url(#SVGID_00000083058926251312312620000018406431603474620036_);enable-background:new    ;" points="
		706.7,328.7 1000.2,367.7 907.9,609.7 603.1,329.6 	"/>
	
		<linearGradient id="SVGID_00000028282649465133910210000018375974015239948949_" gradientUnits="userSpaceOnUse" x1="1767.3005" y1="-2086.5195" x2="2044.6664" y2="-2086.5195" gradientTransform="matrix(0.9919 -0.1269 0.1269 0.9919 -835.19 2851.7366)">
		<stop  offset="0" style="stop-color:#18F5B0"/>
		<stop  offset="1" style="stop-color:#05475C;stop-opacity:0"/>
	</linearGradient>
	
		<polygon style="opacity:0.12;clip-path:url(#SVGID_00000080893850403710275760000009971088509756040853_);fill:url(#SVGID_00000028282649465133910210000018375974015239948949_);enable-background:new    ;" points="
		944.4,649.4 734.3,618.3 636.8,431 	"/>
	
		<linearGradient id="SVGID_00000180366554160519180720000015627251027308605596_" gradientUnits="userSpaceOnUse" x1="335.7567" y1="-2183.811" x2="621.425" y2="-2183.811" gradientTransform="matrix(-9.480336e-02 -0.9955 0.9955 -9.480336e-02 2312.6023 687.9077)">
		<stop  offset="0" style="stop-color:#18F5B0"/>
		<stop  offset="1" style="stop-color:#05475C;stop-opacity:0"/>
	</linearGradient>
	
		<polygon style="opacity:0.12;clip-path:url(#SVGID_00000080893850403710275760000009971088509756040853_);fill:url(#SVGID_00000180366554160519180720000015627251027308605596_);enable-background:new    ;" points="
		195.9,265.2 153,473.2 -9.4,571.8 	"/>
	<g style="clip-path:url(#SVGID_00000080893850403710275760000009971088509756040853_);">
		<g class="st25">
			<path class="st26" d="M35.5,453.8c-0.3,0,0,0.1,0.4,0.2c0.1-0.1,0.2-0.1,0.3-0.2C36,453.8,35.8,453.8,35.5,453.8"/>
			<path class="st26" d="M37,453.4c0.2-0.2,0.3-0.5,0.3-0.7c0,0.2-0.1,0.3-0.2,0.5c-0.5,0.3,0-0.2,0-0.4
				C36.5,453.5,37,453.2,37,453.4"/>
			<path class="st26" d="M37.5,452c0-0.5-0.1-0.3-0.1-0.1C37.4,451.9,37.5,452.2,37.5,452"/>
			<path class="st26" d="M34.5,445.4c0.1,0,0.3,0,0.3,0.1C34.9,445.4,35,445.4,34.5,445.4"/>
			<path class="st26" d="M34.8,445.4L34.8,445.4L34.8,445.4L34.8,445.4"/>
			<path class="st26" d="M39.3,452.2c0,0.4-0.1,0.6-0.3,1l-0.2,0.1c-0.2,0.4,0,0.2-0.1,0.5c-0.3,0.3-0.9,0.8-1.1,0.9
				c-0.1,0,0.1-0.2,0.1-0.2c-0.4,0.3-0.3,0.4-0.9,0.6l0,0c-1.5,0.7-3.6-0.7-3.6-2.6c0,0.1,0,0.1-0.1,0.1c-0.1-1,0.5-2,1.4-2.4
				c0.9-0.4,1.9-0.3,2.5,0.3c-0.3-0.5-1-0.9-1.9-0.9c-0.8,0-1.5,0.5-1.8,1.1c-0.4,0.3-0.5,1-0.6,1.1c-0.2,1.8,0.5,2.5,1.6,3.4
				c0.2,0.1,0,0.1,0.1,0.2c-0.4-0.2-0.8-0.5-1-0.8c0.2,0.2,0.3,0.5,0.5,0.6c-0.4-0.1-0.9-0.9-1-0.9c0.6,1.1,2.6,2,3.6,1.6
				c-0.5,0-1.1,0-1.6-0.2c-0.2-0.1-0.5-0.4-0.5-0.4c1.4,0.5,2.8,0.4,4-0.6c0.3-0.2,0.6-0.6,0.7-0.6c-0.2,0.2,0,0.1-0.1,0.3
				c0.3-0.5-0.1-0.2,0.3-0.9l0.2,0.2c-0.1-0.4,0.5-0.9,0.5-1.5c0.1-0.2,0.2,0.2,0,0.7c0.2-0.5,0-0.6,0.1-1c0,0.1,0.1,0.3,0.2,0.4
				c-0.1-0.5,0.1-0.8,0.2-1.1c-0.1,0-0.2,0.2-0.2-0.4c0-0.2,0.1-0.1,0.1-0.2c0,0-0.2-0.2-0.2-0.6c0.1-0.1,0.2,0.2,0.2,0.2
				c0-0.3-0.1-0.5-0.1-0.7c-0.2-0.5-0.1,0.1-0.3-0.2c-0.2-0.8,0.2-0.2,0.2-0.5c0.4,0.5,0.6,1.3,0.7,1.7c-0.1-0.4-0.2-0.8-0.3-1.2
				c0.1,0-0.2-0.9,0.1-0.3c-0.3-1.3-1.5-2.4-2.5-3c0.1,0.1,0.3,0.3,0.2,0.3c-0.5-0.3-0.4-0.3-0.5-0.5c-0.4-0.2-0.5,0-0.7,0
				c-0.8-0.4-0.9-0.4-1.7-0.6l0,0.1c-0.5-0.2-0.6,0.1-1.2,0c0,0,0.2-0.1,0.4-0.1c-0.5,0.1-0.5-0.1-1,0c0.1-0.1,0.2-0.1,0.4-0.2
				c-0.4,0-1,0.2-0.8,0c-0.7,0.3-1.9,0.7-2.5,1.4l0-0.1c-0.3,0.4-1.3,1.1-1.4,1.6l-0.1,0c-0.2,0.3-0.3,0.6-0.4,0.9
				c-0.2,0.4-0.3,0.1-0.3,0.2c-0.4,0.8-0.6,1.5-0.8,2.1c0.1,0.2,0,1.1,0,1.9c-0.2,3.7,2.6,7.4,5.7,8.2c0.5,0.2,1.1,0.2,1.7,0.2
				c-0.7-0.2-0.8-0.1-1.4-0.3c-0.5-0.2-0.6-0.5-0.9-0.8l0.1,0.2c-0.7-0.2-0.4-0.3-0.9-0.5l0.1-0.2c-0.2,0-0.6-0.4-0.7-0.5h-0.2
				c-0.3-0.3-0.4-0.6-0.4-0.8l-0.1,0.1c-0.1-0.1-1-1.3-0.5-1c-0.1-0.1-0.2-0.1-0.3-0.4l0.1-0.1c-0.2-0.3-0.4-0.7-0.4-0.8
				c0.1,0.2,0.2,0.2,0.3,0.2c-0.6-1.5-0.6-0.1-1.1-1.5H29c-0.1-0.1-0.1-0.2-0.2-0.4l0-0.4c-0.4-0.5-0.1-2.1-0.1-3
				c0-0.4,0.4-0.7,0.6-1.4l-0.1,0c0.3-0.5,1.6-2,2.2-1.9c0.3-0.4-0.1,0-0.1-0.1c0.7-0.7,0.8-0.5,1.3-0.6c0.5-0.3-0.4,0.1-0.2-0.1
				c0.8-0.2,0.6-0.5,1.7-0.6c0.1,0.1-0.3,0.1-0.3,0.2c0.7-0.3,2.2-0.3,3.1,0.2c1.1,0.5,2.4,2,2.4,3.5l0.1,0c0,0.6,0.1,1.2-0.1,1.9
				L39.3,452.2"/>
			<path class="st26" d="M32.6,454.2l0,0.2c0.2,0.2,0.3,0.5,0.5,0.7C32.9,454.7,32.8,454.6,32.6,454.2"/>
			<path class="st26" d="M33,454.2c-0.1-0.1-0.2-0.2-0.2-0.4c0.1,0.2,0.2,0.4,0.3,0.6L33,454.2"/>
			<path class="st26" d="M40.4,452.5l0,0.1c-0.1,0.5-0.2,1-0.5,1.5C40.2,453.7,40.4,453.1,40.4,452.5"/>
			<path class="st26" d="M34.5,445.2c0.2-0.1,0.5,0,0.7-0.1c-0.2,0-0.5,0-0.8,0.1L34.5,445.2"/>
			<path class="st26" d="M28.1,448.7c0,0.4-0.3,0.5,0.1,0.3C28.4,448.5,28.1,448.8,28.1,448.7"/>
			<path class="st26" d="M27.7,450.5c0.1-0.3,0.1-0.4,0.1-0.6C27.6,450.2,27.7,450.3,27.7,450.5"/>
		</g>
		<g class="st25">
			<path class="st26" d="M54.6,451.5c0,0,0,3.3-0.1,4.1c0,0.7-0.1,2.2-1.5,2.2s-1.9-1.7-2-2.5c-0.2-0.8-0.2-1.5-0.2-1.8
				c0-1,0.1-3.7,2.3-3.7c0.7,0,1.1,0.2,1.4,0.4L54.6,451.5L54.6,451.5z M48.7,453.8c0,5.7,3,5.7,3.5,5.7c1.3,0,2.1-0.7,2.4-1.9
				l0,1.8c0.4,0,0.8-0.1,1.4-0.1c0.2,0,0.4,0,0.6,0c0.2,0,0.3,0,0.5,0c-0.3-0.6-0.6-2.1-0.6-5.3s0-8.3,0.3-9.9
				c-0.7,0.4-1.3,0.6-2.7,0.7c0.5,0.6,0.5,0.9,0.5,3.6c-0.4-0.1-0.9-0.3-1.7-0.3C49.3,448.3,48.7,451.5,48.7,453.8"/>
			<path class="st26" d="M59.7,452.8c0-1.7,0.4-3.2,1.8-3.2c1.6,0,1.7,1.7,1.7,3.2H59.7L59.7,452.8z M65.1,453
				c0-2.4-0.5-4.7-3.5-4.7c-4.1,0-4.1,4.6-4.1,5.5c0,4.1,1.8,5.7,4.9,5.7c1.4,0,2.1-0.2,2.4-0.3c0-0.7,0.1-1.2,0.2-1.8
				c-0.4,0.3-1,0.6-2.2,0.6c-3.2,0-3.2-2.9-3.2-3.9h5.4L65.1,453"/>
			<path class="st26" d="M71.7,453.9c0,1.9-0.3,4.4-2.7,4.4c-0.3,0-0.7-0.1-1-0.1c0-0.7,0-2,0-3.4c0-1.7,0.2-2.6,0.3-3.1
				c0.4-1.4,1.4-1.5,1.6-1.5C71.4,450.2,71.7,452.3,71.7,453.9L71.7,453.9z M65.9,456.1c0,1.5,0,2.4-0.2,3c0.8,0.3,1.9,0.5,3.1,0.5
				c0.8,0,3.1,0,4.3-2.5c0.6-1.2,0.8-2.8,0.8-4c0-0.7-0.1-2.3-0.7-3.4c-0.6-0.9-1.5-1.4-2.4-1.4c-1.9,0-2.5,1.6-2.8,2.5
				c0-1,0-4.6,0.2-6.5c-1.3,0.6-2.1,0.7-3,0.8c0.8,0.3,0.8,1.7,0.8,6L65.9,456.1"/>
			<path class="st26" d="M77.8,459.5c-0.4-0.1-0.7-0.1-1.3-0.1c-0.7,0-1.1,0-1.6,0.1c0.2-0.4,0.3-0.6,0.3-1.9c0.1-1.8,0.1-6.6,0-7.6
				c-0.1-0.8-0.3-0.9-0.6-1.1c1.7-0.2,2.1-0.3,2.9-0.6c-0.2,0.9-0.2,1.3-0.2,2.7C77.3,457.9,77.3,458.6,77.8,459.5"/>
			<path class="st26" d="M84.3,453.7c0,1.3-0.1,2.2-0.4,2.9c-0.4,0.9-1.1,1.2-1.7,1.2c-1.2,0-1.5-1-1.5-2c0-1.9,1.7-2,2.5-2
				L84.3,453.7L84.3,453.7L84.3,453.7z M78.7,456.2c0,1.3,0.4,2.5,1.5,3.1c0.5,0.2,1,0.2,1.2,0.2c1.9,0,2.5-1.4,2.9-2.2
				c0,0.9,0,1.4,0.1,2.1c0.4,0,0.7-0.1,1.3-0.1c0.3,0,0.7,0,1,0.1c-0.2-0.4-0.3-0.5-0.4-1.3c0-0.8,0-1.5,0-2.6l0-4.1
				c0-1.5-0.4-3-3.4-3c-2,0-3.2,0.6-3.8,0.9c0.2,0.4,0.4,0.8,0.6,1.7c0.8-0.7,1.8-1,2.9-1c1.7,0,1.7,1.1,1.7,2.7
				c-0.4,0-0.7-0.1-1.3-0.1C80.4,452.5,78.7,453.5,78.7,456.2"/>
			<path class="st26" d="M95.9,457.5c0,0.7,0,1.4,0.3,2c-0.4,0-0.7-0.1-1.5-0.1c-0.5,0-0.8,0-1.1,0.1c0.1-0.3,0.1-0.4,0.2-0.7
				c0.1-0.5,0.1-2,0.1-2.6V454c0-0.9,0-2.3-0.1-2.8c0-0.4-0.2-1.3-1.3-1.3s-1.5,0.9-1.7,1.5c-0.2,0.7-0.2,1.5-0.2,4.5
				c0,2.6,0,2.8,0.2,3.5c-0.3,0-0.8-0.1-1.4-0.1c-0.5,0-0.8,0-1.2,0.1c0.2-0.3,0.2-0.5,0.3-1.6c0-1.1,0.1-6.6-0.1-7.9
				c-0.1-0.8-0.3-1-0.5-1.2c1.6-0.1,2.2-0.4,2.7-0.6v2.1c0.2-0.6,0.7-2,2.8-2c2.5,0,2.6,1.9,2.6,3L95.9,457.5"/>
			<path class="st26" d="M77.9,445.3l-1.7,1.7l-1.7-1.7l1.7-1.7L77.9,445.3"/>
		</g>
	</g>
	
		<radialGradient id="DEBIAN_logo_00000078035590713268724850000014854387097879920822_" cx="-711.965" cy="1179.1799" r="301.78" gradientTransform="matrix(0.5 0 0 0.5 494.4275 -141.19)" gradientUnits="userSpaceOnUse">
		<stop  offset="0" style="stop-color:#DAC9BA"/>
		<stop  offset="1" style="stop-color:#05475C;stop-opacity:0"/>
	</radialGradient>
	
		<circle id="DEBIAN_logo" style="opacity:0.34;clip-path:url(#SVGID_00000080893850403710275760000009971088509756040853_);fill:url(#DEBIAN_logo_00000078035590713268724850000014854387097879920822_);enable-background:new    ;" cx="138.4" cy="448.4" r="150.9"/>
</g>
</svg>
