<?xml version="1.0" encoding="utf-8"?>
<!-- Generator: Adobe Illustrator 26.5.0, SVG Export Plug-In . SVG Version: 6.00 Build 0)  -->
<svg version="1.1" id="Calque_1" xmlns="http://www.w3.org/2000/svg" xmlns:xlink="http://www.w3.org/1999/xlink" x="0px" y="0px"
	 viewBox="0 0 640 300" style="enable-background:new 0 0 640 300;" xml:space="preserve">
<style type="text/css">
	.st0{clip-path:url(#SVGID_00000066514302618893761770000004367662434394274177_);fill:#05475C;}
	
		.st1{opacity:0.34;clip-path:url(#SVGID_00000066514302618893761770000004367662434394274177_);fill:url(#SVGID_00000165928106239315729180000003395893540220543660_);enable-background:new    ;}
	.st2{opacity:0.62;clip-path:url(#SVGID_00000066514302618893761770000004367662434394274177_);}
	.st3{opacity:0.34;fill:url(#SVGID_00000014609770914619567650000013791452452545661604_);enable-background:new    ;}
	.st4{opacity:0.34;fill:url(#SVGID_00000183955561436546252640000012290747868649420722_);enable-background:new    ;}
	.st5{opacity:0.34;fill:url(#SVGID_00000078031623896467579260000018276120009256516235_);enable-background:new    ;}
	.st6{opacity:0.34;fill:url(#SVGID_00000075138848055823364230000004829069032969884801_);enable-background:new    ;}
	.st7{opacity:0.34;fill:url(#SVGID_00000096759762632818482560000000318863633360432260_);enable-background:new    ;}
	.st8{opacity:0.34;fill:url(#SVGID_00000110440964990040958410000011054212056046578338_);enable-background:new    ;}
	.st9{opacity:0.34;fill:url(#SVGID_00000046325458797343436540000014294820446032804766_);enable-background:new    ;}
	.st10{opacity:0.34;fill:url(#SVGID_00000027571730917349765890000001785526503834712471_);enable-background:new    ;}
	.st11{opacity:0.34;fill:url(#SVGID_00000158005500563096595570000000882398409114228899_);enable-background:new    ;}
	.st12{opacity:0.34;fill:url(#SVGID_00000076588862266724805380000000475223370964393908_);enable-background:new    ;}
	.st13{opacity:0.34;fill:url(#SVGID_00000158027245154623444750000002530893205519557814_);enable-background:new    ;}
	.st14{opacity:0.34;fill:url(#SVGID_00000143609898036067271540000012375309929519489671_);enable-background:new    ;}
	.st15{opacity:0.34;fill:url(#SVGID_00000178162760558745674840000016210040868132095911_);enable-background:new    ;}
	.st16{opacity:0.34;fill:url(#SVGID_00000095317755730984816310000017852690032826237064_);enable-background:new    ;}
	.st17{opacity:0.34;fill:url(#SVGID_00000173156564323657151930000011995520057778243238_);enable-background:new    ;}
	
		.st18{opacity:0.12;clip-path:url(#SVGID_00000066514302618893761770000004367662434394274177_);fill:url(#SVGID_00000173841273807692787990000015964094545409506213_);enable-background:new    ;}
	
		.st19{opacity:0.12;clip-path:url(#SVGID_00000066514302618893761770000004367662434394274177_);fill:url(#SVGID_00000072993954227591411950000005392822343990172604_);enable-background:new    ;}
	
		.st20{opacity:0.12;clip-path:url(#SVGID_00000066514302618893761770000004367662434394274177_);fill:url(#SVGID_00000078726926166705169150000016772869343016905115_);enable-background:new    ;}
	
		.st21{opacity:0.12;clip-path:url(#SVGID_00000066514302618893761770000004367662434394274177_);fill:url(#SVGID_00000172440101932546649530000011178622330191574440_);enable-background:new    ;}
	
		.st22{opacity:0.12;clip-path:url(#SVGID_00000066514302618893761770000004367662434394274177_);fill:url(#SVGID_00000133521606430946951530000000528286059467558534_);enable-background:new    ;}
	
		.st23{opacity:0.12;clip-path:url(#SVGID_00000066514302618893761770000004367662434394274177_);fill:url(#SVGID_00000029041902514554554790000016553928172272370352_);enable-background:new    ;}
	
		.st24{opacity:0.12;clip-path:url(#SVGID_00000066514302618893761770000004367662434394274177_);fill:url(#SVGID_00000111171100286784829900000009202307765592752793_);enable-background:new    ;}
	.st25{clip-path:url(#SVGID_00000066514302618893761770000004367662434394274177_);}
	.st26{opacity:0.71;}
	.st27{fill:#FFFFFF;}
</style>
<g>
	<defs>
		<rect id="SVGID_1_" y="0" width="640" height="300"/>
	</defs>
	<clipPath id="SVGID_00000028322430080400350890000007288472978835470521_">
		<use xlink:href="#SVGID_1_"  style="overflow:visible;"/>
	</clipPath>
	
		<rect y="0" style="clip-path:url(#SVGID_00000028322430080400350890000007288472978835470521_);fill:#05475C;" width="640" height="300"/>
	
		<radialGradient id="SVGID_00000104694392997271110910000007553300719790647225_" cx="1109.5284" cy="9111.5273" r="234.6" gradientTransform="matrix(0.5 0 0 0.5 -499.9642 -4225.3638)" gradientUnits="userSpaceOnUse">
		<stop  offset="0" style="stop-color:#DAC9BA"/>
		<stop  offset="1" style="stop-color:#05475C;stop-opacity:0"/>
	</radialGradient>
	
		<circle style="opacity:0.34;clip-path:url(#SVGID_00000028322430080400350890000007288472978835470521_);fill:url(#SVGID_00000104694392997271110910000007553300719790647225_);enable-background:new    ;" cx="54.8" cy="330.4" r="117.3"/>
	<g style="opacity:0.62;clip-path:url(#SVGID_00000028322430080400350890000007288472978835470521_);">
		
			<radialGradient id="SVGID_00000106108011100360860630000009846330405318221956_" cx="-2573.8464" cy="6166.6631" r="88.4521" gradientTransform="matrix(0.866 0.5239 -0.5 0.9074 5343.7827 -4081.0923)" gradientUnits="userSpaceOnUse">
			<stop  offset="0" style="stop-color:#18F5B0"/>
			<stop  offset="1" style="stop-color:#05475C;stop-opacity:0"/>
		</radialGradient>
		
			<ellipse style="opacity:0.34;fill:url(#SVGID_00000106108011100360860630000009846330405318221956_);enable-background:new    ;" cx="31.5" cy="166.1" rx="88.4" ry="92.7"/>
		
			<linearGradient id="SVGID_00000127041034705293039800000010102491434775209134_" gradientUnits="userSpaceOnUse" x1="-135.4472" y1="1931.9967" x2="-34.9854" y2="1931.9967" gradientTransform="matrix(-0.715 0.6989 -0.5358 -0.5482 1038.0574 1115.0768)">
			<stop  offset="0" style="stop-color:#18F5B0"/>
			<stop  offset="1" style="stop-color:#05475C;stop-opacity:0"/>
		</linearGradient>
		
			<polygon style="opacity:0.34;fill:url(#SVGID_00000127041034705293039800000010102491434775209134_);enable-background:new    ;" points="
			-2.2,0.7 54.2,-85.3 124.8,27.9 92.1,48.5 		"/>
		
			<linearGradient id="SVGID_00000052788763068939655050000002317976638951432634_" gradientUnits="userSpaceOnUse" x1="-948.6795" y1="3870.2402" x2="-810.2885" y2="3870.2402" gradientTransform="matrix(0.7773 0.6291 -0.6291 0.7773 3200.5796 -2464.9492)">
			<stop  offset="0" style="stop-color:#18F5B0"/>
			<stop  offset="1" style="stop-color:#05475C;stop-opacity:0"/>
		</linearGradient>
		
			<polygon style="opacity:0.34;fill:url(#SVGID_00000052788763068939655050000002317976638951432634_);enable-background:new    ;" points="
			85.4,88.9 41,-20.9 54.2,-85.3 102.6,-60.7 163.6,-40.2 151.3,14.7 		"/>
		
			<linearGradient id="SVGID_00000087410090601410621820000009667470058455990955_" gradientUnits="userSpaceOnUse" x1="-5738.3403" y1="3864.6804" x2="-5481.8682" y2="3864.6804" gradientTransform="matrix(0.3916 -0.9201 0.9201 0.3916 -1352.6155 -6608.7231)">
			<stop  offset="0" style="stop-color:#AABDCB"/>
			<stop  offset="1" style="stop-color:#05475C;stop-opacity:0"/>
		</linearGradient>
		
			<polygon style="opacity:0.34;fill:url(#SVGID_00000087410090601410621820000009667470058455990955_);enable-background:new    ;" points="
			-125.7,149.7 -38.5,40.5 48.7,-54.8 119.9,26.9 		"/>
		
			<linearGradient id="SVGID_00000013163318829247493330000017542425126695666318_" gradientUnits="userSpaceOnUse" x1="3167.416" y1="3156.1113" x2="3278.3787" y2="3156.1113" gradientTransform="matrix(-0.3473 0.5707 -0.767 -0.6294 3741.6409 147.5777)">
			<stop  offset="0" style="stop-color:#18F5B0"/>
			<stop  offset="1" style="stop-color:#05475C;stop-opacity:0"/>
		</linearGradient>
		
			<polygon style="opacity:0.34;fill:url(#SVGID_00000013163318829247493330000017542425126695666318_);enable-background:new    ;" points="
			259,36.4 266.5,100.9 145,-5.2 136.9,-100.4 		"/>
		
			<linearGradient id="SVGID_00000055702344398239615700000014218253788956358029_" gradientUnits="userSpaceOnUse" x1="-2741.1287" y1="3446.9812" x2="-2585.1917" y2="3446.9812" gradientTransform="matrix(0.7151 -0.699 0.699 0.7151 -338.8203 -4330.8477)">
			<stop  offset="0" style="stop-color:#AABDCB"/>
			<stop  offset="1" style="stop-color:#05475C;stop-opacity:0"/>
		</linearGradient>
		
			<polygon style="opacity:0.34;fill:url(#SVGID_00000055702344398239615700000014218253788956358029_);enable-background:new    ;" points="
			145,-5.2 41,-20.9 94.2,-55.2 166,-116.1 257.5,45.3 		"/>
		
			<linearGradient id="SVGID_00000144313451923616346400000009854885256576083363_" gradientUnits="userSpaceOnUse" x1="1440.4563" y1="2951.4016" x2="1560.4678" y2="2951.4016" gradientTransform="matrix(-0.5897 0.8076 -0.8076 -0.5897 3389.8755 491.3226)">
			<stop  offset="0" style="stop-color:#18F5B0"/>
			<stop  offset="1" style="stop-color:#05475C;stop-opacity:0"/>
		</linearGradient>
		
			<polygon style="opacity:0.34;fill:url(#SVGID_00000144313451923616346400000009854885256576083363_);enable-background:new    ;" points="
			130.4,25.8 13.1,-42.2 136.9,-100.4 173.1,45.3 		"/>
		
			<linearGradient id="SVGID_00000076594381758064171390000012637456391635373214_" gradientUnits="userSpaceOnUse" x1="-5486.8813" y1="-503.2758" x2="-5299.6895" y2="-503.2758" gradientTransform="matrix(-0.2682 -0.9632 1.0512 -0.2927 -964.4789 -5131.1196)">
			<stop  offset="0" style="stop-color:#18F5B0"/>
			<stop  offset="1" style="stop-color:#05475C;stop-opacity:0"/>
		</linearGradient>
		
			<polygon style="opacity:0.34;fill:url(#SVGID_00000076594381758064171390000012637456391635373214_);enable-background:new    ;" points="
			-24.2,107.5 26.5,171.5 -100.4,323 -93.5,215 		"/>
		
			<linearGradient id="SVGID_00000109029700601090729260000003834131683623215524_" gradientUnits="userSpaceOnUse" x1="2577.1582" y1="-1021.8833" x2="2773.3711" y2="-1021.8833" gradientTransform="matrix(-0.9257 0.3783 -0.3783 -0.9257 2028.5276 -1761.5605)">
			<stop  offset="0" style="stop-color:#18F5B0"/>
			<stop  offset="1" style="stop-color:#05475C;stop-opacity:0"/>
		</linearGradient>
		
			<polygon style="opacity:0.34;fill:url(#SVGID_00000109029700601090729260000003834131683623215524_);enable-background:new    ;" points="
			-157,152.9 -2.9,132.9 31.5,164.4 -39,261.1 -96.2,293.3 -141.4,260 		"/>
		
			<linearGradient id="SVGID_00000017482169178277189660000004035244026149024399_" gradientUnits="userSpaceOnUse" x1="-6802.895" y1="-1479.6411" x2="-6573.2563" y2="-1479.6411" gradientTransform="matrix(-0.2321 -0.2567 0.8754 -0.2976 -300.8107 -2020.3657)">
			<stop  offset="0" style="stop-color:#AABDCB"/>
			<stop  offset="1" style="stop-color:#05475C;stop-opacity:0"/>
		</linearGradient>
		
			<polygon style="opacity:0.34;fill:url(#SVGID_00000017482169178277189660000004035244026149024399_);enable-background:new    ;" points="
			-139.2,207.9 -125.7,149.7 51.8,65.9 -2.2,134.6 		"/>
		
			<linearGradient id="SVGID_00000088844459819235120460000005261232640991225528_" gradientUnits="userSpaceOnUse" x1="505.7516" y1="2935.4036" x2="969.1713" y2="2935.4036" gradientTransform="matrix(0.1745 0.2988 -0.9178 0.1117 2545.7217 -268.0636)">
			<stop  offset="0" style="stop-color:#AABDCB"/>
			<stop  offset="1" style="stop-color:#05475C;stop-opacity:0"/>
		</linearGradient>
		
			<polygon style="opacity:0.34;fill:url(#SVGID_00000088844459819235120460000005261232640991225528_);enable-background:new    ;" points="
			18.3,208.8 96.4,340.2 -102.2,277.7 -93.5,215 		"/>
		
			<linearGradient id="SVGID_00000148661656132992817710000010373070488434435739_" gradientUnits="userSpaceOnUse" x1="-5738.3403" y1="3835.1611" x2="-5591.7173" y2="3835.1611" gradientTransform="matrix(0.3916 -0.9201 0.9201 0.3916 -1352.6155 -6608.7231)">
			<stop  offset="0" style="stop-color:#AABDCB"/>
			<stop  offset="1" style="stop-color:#05475C;stop-opacity:0"/>
		</linearGradient>
		
			<polygon style="opacity:0.34;fill:url(#SVGID_00000148661656132992817710000010373070488434435739_);enable-background:new    ;" points="
			-2.9,132.9 -125.7,149.7 -87.5,30.2 51.8,65.9 		"/>
		
			<radialGradient id="SVGID_00000080172195739853916840000003552410093529629108_" cx="-2610.1057" cy="5996.062" r="92.898" gradientTransform="matrix(0.866 0.5239 -0.5 0.9074 5343.7827 -4081.0923)" gradientUnits="userSpaceOnUse">
			<stop  offset="0" style="stop-color:#18F5B0"/>
			<stop  offset="1" style="stop-color:#05475C;stop-opacity:0"/>
		</radialGradient>
		
			<ellipse style="opacity:0.34;fill:url(#SVGID_00000080172195739853916840000003552410093529629108_);enable-background:new    ;" cx="85.4" cy="-7.7" rx="92.9" ry="97.3"/>
		
			<linearGradient id="SVGID_00000153690315616084588890000018057917177919445377_" gradientUnits="userSpaceOnUse" x1="2577.1582" y1="-1065.3485" x2="2727.551" y2="-1065.3485" gradientTransform="matrix(-0.9257 0.3783 -0.3783 -0.9257 2028.5276 -1761.5605)">
			<stop  offset="0" style="stop-color:#18F5B0"/>
			<stop  offset="1" style="stop-color:#05475C;stop-opacity:0"/>
		</linearGradient>
		
			<polygon style="opacity:0.34;fill:url(#SVGID_00000153690315616084588890000018057917177919445377_);enable-background:new    ;" points="
			-103.7,162.1 31.5,164.4 6.4,314.3 -39,261.1 -88.1,269.3 		"/>
		<g>
			
				<linearGradient id="SVGID_00000116194919691293733300000006701572489088509615_" gradientUnits="userSpaceOnUse" x1="-2413.0142" y1="4676.9043" x2="-2276.8784" y2="4676.9043" gradientTransform="matrix(0.9797 -0.2004 0.2004 0.9797 1341.2535 -5025.6753)">
				<stop  offset="0" style="stop-color:#AABDCB"/>
				<stop  offset="1" style="stop-color:#05475C;stop-opacity:0"/>
			</linearGradient>
			
				<polygon style="opacity:0.34;fill:url(#SVGID_00000116194919691293733300000006701572489088509615_);enable-background:new    ;" points="
				-87.5,30.2 13.1,12.7 41,-20.9 47.6,47.5 			"/>
		</g>
	</g>
	
		<linearGradient id="SVGID_00000132772539457232685030000000300899400973830323_" gradientUnits="userSpaceOnUse" x1="-6134.2637" y1="3346.2263" x2="-5845.0864" y2="3346.2263" gradientTransform="matrix(0.4171 -0.9087 0.9088 0.4172 182.5912 -6498.9365)">
		<stop  offset="0" style="stop-color:#18F5B0"/>
		<stop  offset="1" style="stop-color:#05475C;stop-opacity:0"/>
	</linearGradient>
	
		<polygon style="opacity:0.12;clip-path:url(#SVGID_00000028322430080400350890000007288472978835470521_);fill:url(#SVGID_00000132772539457232685030000000300899400973830323_);enable-background:new    ;" points="
		943.5,281 840.8,552 527.3,307.8 589.6,209.1 	"/>
	
		<linearGradient id="SVGID_00000155120741888792869150000005126213623271290766_" gradientUnits="userSpaceOnUse" x1="-1422.6418" y1="-2168.2712" x2="-1060.2377" y2="-2168.2712" gradientTransform="matrix(-0.9511 -0.3089 0.3089 -0.9511 147.2154 -2060.1243)">
		<stop  offset="0" style="stop-color:#18F5B0"/>
		<stop  offset="1" style="stop-color:#05475C;stop-opacity:0"/>
	</linearGradient>
	
		<polygon style="opacity:0.12;clip-path:url(#SVGID_00000028322430080400350890000007288472978835470521_);fill:url(#SVGID_00000155120741888792869150000005126213623271290766_);enable-background:new    ;" points="
		559.4,103.1 708.5,379.9 807.8,511.5 617.8,554.4 474.6,576.4 465.9,403.2 	"/>
	
		<linearGradient id="SVGID_00000009552552677448310960000006786298714224713616_" gradientUnits="userSpaceOnUse" x1="50.9518" y1="5160.9082" x2="489.8602" y2="5160.9082" gradientTransform="matrix(-3.592434e-02 0.9994 -0.9994 -3.592434e-02 5883.1187 177.3713)">
		<stop  offset="0" style="stop-color:#AABDCB"/>
		<stop  offset="1" style="stop-color:#05475C;stop-opacity:0"/>
	</linearGradient>
	
		<polygon style="opacity:0.12;clip-path:url(#SVGID_00000028322430080400350890000007288472978835470521_);fill:url(#SVGID_00000009552552677448310960000006786298714224713616_);enable-background:new    ;" points="
		807.2,45.9 847.9,189.9 678.9,480.5 589.3,167.2 	"/>
	
		<linearGradient id="SVGID_00000162331471340446393400000016255967809962810031_" gradientUnits="userSpaceOnUse" x1="1268.658" y1="-404.6143" x2="1740.2137" y2="-404.6143" gradientTransform="matrix(-7.889032e-02 0.6633 -0.9591 -0.254 552.2598 -818.86)">
		<stop  offset="0" style="stop-color:#18F5B0"/>
		<stop  offset="1" style="stop-color:#05475C;stop-opacity:0"/>
	</linearGradient>
	
		<polygon style="opacity:0.12;clip-path:url(#SVGID_00000028322430080400350890000007288472978835470521_);fill:url(#SVGID_00000162331471340446393400000016255967809962810031_);enable-background:new    ;" points="
		854.2,300.9 918.6,468.8 691.7,372.1 728.8,95.9 	"/>
	
		<linearGradient id="SVGID_00000067930856679428976970000001064784400679712954_" gradientUnits="userSpaceOnUse" x1="-4594.7754" y1="3032.9077" x2="-4337.0713" y2="3032.9077" gradientTransform="matrix(0.2612 -0.9653 0.9653 0.2612 -1088.6301 -4752.231)">
		<stop  offset="0" style="stop-color:#18F5B0"/>
		<stop  offset="1" style="stop-color:#05475C;stop-opacity:0"/>
	</linearGradient>
	
		<polygon style="opacity:0.12;clip-path:url(#SVGID_00000028322430080400350890000007288472978835470521_);fill:url(#SVGID_00000067930856679428976970000001064784400679712954_);enable-background:new    ;" points="
		602.4,238.9 896,277.9 803.7,519.9 498.9,239.8 	"/>
	
		<linearGradient id="SVGID_00000067194387481949350590000011906145999297868681_" gradientUnits="userSpaceOnUse" x1="1306.1188" y1="3426.4272" x2="1583.4343" y2="3426.4272" gradientTransform="matrix(0.9919 -0.1269 0.1269 0.9919 -1181.5375 -2764.8813)">
		<stop  offset="0" style="stop-color:#18F5B0"/>
		<stop  offset="1" style="stop-color:#05475C;stop-opacity:0"/>
	</linearGradient>
	
		<polygon style="opacity:0.12;clip-path:url(#SVGID_00000028322430080400350890000007288472978835470521_);fill:url(#SVGID_00000067194387481949350590000011906145999297868681_);enable-background:new    ;" points="
		840.1,559.6 630,528.5 532.6,341.3 	"/>
	
		<linearGradient id="SVGID_00000088091426312860475000000016855581830243305903_" gradientUnits="userSpaceOnUse" x1="-4462.4136" y1="2071.8911" x2="-4240.3965" y2="2071.8911" gradientTransform="matrix(-9.474472e-02 -0.9955 0.9955 -9.474472e-02 -2455.1904 -3828.4231)">
		<stop  offset="0" style="stop-color:#18F5B0"/>
		<stop  offset="1" style="stop-color:#05475C;stop-opacity:0"/>
	</linearGradient>
	
		<polygon style="opacity:0.12;clip-path:url(#SVGID_00000028322430080400350890000007288472978835470521_);fill:url(#SVGID_00000088091426312860475000000016855581830243305903_);enable-background:new    ;" points="
		99.4,188 66.1,349.7 -60.1,426.2 	"/>
	<g style="clip-path:url(#SVGID_00000028322430080400350890000007288472978835470521_);">
		<g class="st26">
			<path class="st27" d="M18.1,283.4c-0.2,0,0,0.1,0.3,0.2c0.1-0.1,0.2-0.1,0.2-0.2C18.5,283.4,18.3,283.4,18.1,283.4"/>
			<path class="st27" d="M19.3,283.1c0.1-0.2,0.2-0.4,0.3-0.6c0,0.1-0.1,0.3-0.2,0.4c-0.4,0.3,0-0.2,0-0.3
				C19,283.1,19.3,282.9,19.3,283.1"/>
			<path class="st27" d="M19.8,281.9c0-0.4-0.1-0.3-0.1-0.1C19.7,281.8,19.7,282.1,19.8,281.9"/>
			<path class="st27" d="M17.3,276.4c0.1,0,0.3,0,0.2,0.1C17.6,276.4,17.7,276.4,17.3,276.4"/>
			<path class="st27" d="M17.5,276.4L17.5,276.4L17.5,276.4L17.5,276.4"/>
			<path class="st27" d="M21.3,282.1c0,0.4-0.1,0.5-0.2,0.9l-0.2,0.1c-0.2,0.3,0,0.2-0.1,0.4c-0.2,0.2-0.8,0.7-0.9,0.7
				s0.1-0.1,0.1-0.2c-0.3,0.2-0.3,0.3-0.8,0.5l0,0c-1.3,0.6-3-0.6-3-2.2c0,0.1,0,0.1-0.1,0.1c-0.1-0.8,0.4-1.6,1.1-2
				s1.6-0.2,2.1,0.3c-0.3-0.4-0.9-0.8-1.5-0.7c-0.7,0-1.3,0.4-1.5,0.9c-0.3,0.2-0.4,0.8-0.5,0.9c-0.2,1.5,0.4,2.1,1.3,2.8
				c0.2,0.1,0,0.1,0.1,0.2c-0.3-0.2-0.6-0.4-0.9-0.7c0.1,0.2,0.3,0.4,0.4,0.5c-0.3-0.1-0.7-0.7-0.8-0.8c0.5,0.9,2.1,1.6,3,1.3
				c-0.4,0-0.9,0-1.3-0.2c-0.2-0.1-0.4-0.3-0.4-0.3c1.1,0.4,2.3,0.3,3.3-0.5c0.3-0.2,0.5-0.5,0.6-0.5c-0.1,0.2,0,0.1-0.1,0.2
				c0.3-0.4-0.1-0.2,0.3-0.7l0.1,0.2c-0.1-0.3,0.4-0.7,0.4-1.3c0.1-0.2,0.1,0.2,0,0.6c0.2-0.4,0-0.5,0.1-0.8c0,0.1,0.1,0.2,0.1,0.4
				c-0.1-0.4,0.1-0.7,0.2-0.9c-0.1,0-0.2,0.2-0.2-0.3c0-0.2,0.1-0.1,0.1-0.2c0,0-0.1-0.2-0.2-0.5c0-0.1,0.1,0.2,0.2,0.2
				c0-0.2-0.1-0.4-0.1-0.6c-0.2-0.4-0.1,0.1-0.2-0.2c-0.2-0.6,0.2-0.1,0.2-0.4c0.3,0.4,0.5,1.1,0.6,1.4c-0.1-0.3-0.2-0.7-0.3-1
				c0.1,0-0.1-0.7,0.1-0.2c-0.3-1-1.2-2-2.1-2.5c0.1,0.1,0.2,0.2,0.2,0.2c-0.4-0.3-0.4-0.3-0.4-0.4c-0.3-0.1-0.4,0-0.6,0
				c-0.7-0.3-0.8-0.3-1.4-0.5v0.1c-0.4-0.1-0.5,0.1-1,0c0,0,0.1-0.1,0.3-0.1c-0.4,0.1-0.4-0.1-0.8,0c0.1-0.1,0.2-0.1,0.3-0.2
				c-0.3,0-0.8,0.2-0.7,0c-0.6,0.2-1.5,0.6-2.1,1.1v-0.1c-0.3,0.3-1.1,0.9-1.2,1.3h-0.1c-0.1,0.2-0.2,0.5-0.3,0.7
				c-0.2,0.3-0.3,0.1-0.2,0.2c-0.3,0.7-0.5,1.3-0.7,1.7c0.1,0.2,0,0.9,0,1.6c-0.2,3.1,2.2,6.1,4.7,6.8c0.4,0.1,0.9,0.1,1.4,0.1
				c-0.6-0.2-0.6-0.1-1.2-0.3c-0.4-0.2-0.5-0.4-0.8-0.6L16,289c-0.5-0.2-0.3-0.2-0.8-0.4l0.1-0.2c-0.2,0-0.5-0.3-0.5-0.5h-0.2
				c-0.2-0.3-0.4-0.5-0.3-0.7l-0.1,0.1c-0.1-0.1-0.9-1.1-0.4-0.9c-0.1-0.1-0.2-0.1-0.3-0.3l0.1-0.1c-0.2-0.3-0.4-0.6-0.3-0.7
				c0.1,0.1,0.2,0.2,0.2,0.2c-0.5-1.2-0.5-0.1-0.9-1.2h0.1c-0.1-0.1-0.1-0.2-0.1-0.3v-0.3c-0.4-0.4-0.1-1.8,0-2.5
				c0-0.3,0.3-0.6,0.5-1.1H13c0.2-0.4,1.3-1.6,1.8-1.6c0.2-0.3,0,0-0.1-0.1c0.5-0.6,0.7-0.4,1.1-0.5c0.4-0.2-0.3,0.1-0.2-0.1
				c0.7-0.2,0.5-0.4,1.4-0.5c0.1,0.1-0.2,0.1-0.3,0.2c0.6-0.3,1.8-0.2,2.6,0.2c0.9,0.4,2,1.7,2,2.9l0,0
				C21.3,281.1,21.4,281.6,21.3,282.1L21.3,282.1"/>
			<path class="st27" d="M15.7,283.7v0.2c0.1,0.2,0.3,0.4,0.5,0.6C16,284.1,15.9,284,15.7,283.7"/>
			<path class="st27" d="M16,283.7c-0.1-0.1-0.1-0.2-0.2-0.3c0,0.2,0.2,0.3,0.2,0.5V283.7"/>
			<path class="st27" d="M22.2,282.3L22.2,282.3c-0.1,0.5-0.2,0.9-0.4,1.3C22,283.2,22.1,282.8,22.2,282.3"/>
			<path class="st27" d="M17.3,276.3c0.2-0.1,0.4,0,0.5-0.1C17.6,276.2,17.4,276.2,17.3,276.3L17.3,276.3"/>
			<path class="st27" d="M12,279.1c0,0.3-0.2,0.4,0.1,0.2C12.2,279,12,279.2,12,279.1"/>
			<path class="st27" d="M11.6,280.6c0.1-0.2,0.1-0.3,0.1-0.5C11.5,280.4,11.6,280.4,11.6,280.6"/>
		</g>
		<g>
			<g class="st26">
				<path class="st27" d="M33.9,281.4c0,0,0,2.7,0,3.4c0,0.6-0.1,1.8-1.3,1.8s-1.5-1.4-1.6-2c-0.1-0.7-0.1-1.3-0.1-1.5
					c0-0.8,0-3,1.9-3c0.6,0,0.9,0.2,1.1,0.3V281.4z M29,283.4c0,4.7,2.5,4.7,2.9,4.7c1,0,1.7-0.6,2-1.6v1.5c0.3,0,0.6,0,1.2,0
					c0.2,0,0.3,0,0.5,0c0.1,0,0.3,0,0.4,0c-0.3-0.5-0.5-1.7-0.5-4.4c0-2.5,0-6.9,0.2-8.2c-0.6,0.3-1.1,0.5-2.3,0.6
					c0.5,0.5,0.5,0.7,0.5,3c-0.3-0.1-0.7-0.2-1.4-0.2C29.5,278.8,29,281.4,29,283.4"/>
				<path class="st27" d="M38.1,282.5c0-1.4,0.3-2.6,1.5-2.6c1.3,0,1.4,1.4,1.4,2.6H38.1z M42.6,282.7c0-2-0.4-3.9-2.9-3.9
					c-3.4,0-3.4,3.8-3.4,4.6c0,3.4,1.5,4.7,4.1,4.7c1.1,0,1.7-0.2,2-0.2c0-0.6,0.1-1,0.2-1.5c-0.4,0.2-0.8,0.5-1.8,0.5
					c-2.6,0-2.6-2.4-2.6-3.2h4.5L42.6,282.7"/>
				<path class="st27" d="M48.1,283.4c0,1.6-0.3,3.7-2.2,3.7c-0.3,0-0.6,0-0.8-0.1c0-0.6,0-1.6,0-2.8c0-1.4,0.2-2.2,0.3-2.6
					c0.4-1.2,1.1-1.2,1.3-1.2C47.8,280.4,48.1,282.1,48.1,283.4z M43.3,285.2c0,1.2,0,1.9-0.2,2.5c0.7,0.3,1.5,0.4,2.6,0.4
					c0.7,0,2.5,0,3.6-2.1c0.5-1,0.7-2.3,0.7-3.3c0-0.6-0.1-1.9-0.6-2.8c-0.5-0.8-1.2-1.2-2-1.2c-1.6,0-2.1,1.3-2.3,2
					c0-0.9,0-3.8,0.2-5.4c-1.1,0.5-1.8,0.6-2.5,0.7c0.7,0.3,0.7,1.4,0.7,5L43.3,285.2"/>
				<path class="st27" d="M53.1,288c-0.3,0-0.6-0.1-1.1-0.1s-0.9,0-1.3,0.1c0.2-0.3,0.2-0.5,0.3-1.6c0.1-1.5,0.1-5.5,0-6.3
					c-0.1-0.6-0.2-0.7-0.5-0.9c1.4-0.1,1.8-0.2,2.4-0.5c-0.1,0.7-0.2,1.1-0.2,2.2C52.7,286.7,52.7,287.4,53.1,288"/>
				<path class="st27" d="M58.5,283.3c0,1.1,0,1.8-0.3,2.4c-0.4,0.7-0.9,1-1.4,1c-1,0-1.2-0.8-1.2-1.7c0-1.6,1.4-1.7,2-1.7
					L58.5,283.3L58.5,283.3z M53.8,285.4c0,1.1,0.3,2.1,1.3,2.6c0.4,0.2,0.8,0.2,1,0.2c1.5,0,2.1-1.1,2.4-1.9c0,0.7,0,1.2,0,1.8
					c0.3,0,0.6,0,1.1,0c0.3,0,0.6,0,0.8,0c-0.2-0.3-0.3-0.5-0.3-1.1s0-1.3,0-2.2v-3.4c0-1.3-0.3-2.5-2.8-2.5c-1.7,0-2.6,0.5-3.1,0.7
					c0.2,0.4,0.4,0.7,0.5,1.4c0.7-0.6,1.5-0.9,2.4-0.9c1.4,0,1.4,0.9,1.4,2.2c-0.3,0-0.6,0-1,0C55.3,282.3,53.8,283.1,53.8,285.4"/>
				<path class="st27" d="M68.1,286.4c0,0.6,0,1.2,0.2,1.7c-0.4,0-0.6-0.1-1.3-0.1c-0.4,0-0.6,0-0.9,0.1c0.1-0.2,0.1-0.3,0.1-0.6
					c0-0.4,0.1-1.7,0.1-2.1v-1.8c0-0.8,0-1.9,0-2.3c0-0.3-0.1-1.1-1.1-1.1c-0.9,0-1.3,0.7-1.4,1.3c-0.1,0.6-0.1,1.2-0.1,3.7
					c0,2.1,0,2.3,0.2,2.9c-0.3,0-0.6-0.1-1.1-0.1c-0.4,0-0.7,0-1,0.1c0.1-0.3,0.2-0.4,0.2-1.3s0.1-5.4,0-6.5c-0.1-0.7-0.2-0.8-0.4-1
					c1.4-0.1,1.8-0.3,2.2-0.5v1.8c0.2-0.5,0.6-1.7,2.3-1.7c2.1,0,2.1,1.5,2.1,2.5L68.1,286.4"/>
				<path class="st27" d="M53.2,276.4l-1.4,1.4l-1.4-1.4l1.4-1.4L53.2,276.4"/>
			</g>
			<g>
				<path class="st27" d="M79,282.6c0,1.8,0,2.9,0.1,3.8c0.1,1.2,0.2,1.4,0.3,1.7c-0.5-0.1-1-0.1-1.4-0.1c-0.5,0-0.8,0-1.2,0.1
					c0.2-0.5,0.3-0.7,0.3-1.7c0-0.7,0.1-1.6,0.1-3.8v-2.1c-0.1-2.8-0.1-3-0.1-3.6c-0.8,0.3-1.6,0.6-2.4,1.1c0-0.2,0-0.4,0.1-0.6
					c0-0.3,0-0.6-0.1-0.8c0.9-0.2,2.9-0.8,4.4-1.8c-0.1,1.4-0.1,2.4-0.1,5.2C79,280,79,282.6,79,282.6z"/>
				<path class="st27" d="M86.9,286.2c2.5,0,2.8,0,3.5-0.5c-0.1,0.4-0.1,0.8-0.1,1.4c0,0.5,0,0.7,0.1,1c-1.2-0.1-2.3-0.1-3.5-0.1
					c-1.8,0-3.4,0-4,0.1c0-0.2,0.1-0.5,0.1-0.9s0-0.7-0.1-0.9c0.6-0.5,1.1-0.9,2.2-2.1c2.2-2.3,3.1-3.8,3.1-5.3c0-1.4-1-2.3-2.5-2.3
					c-0.8,0-1.6,0.2-2.2,0.6c0-0.4,0.1-0.8,0.1-1.1c0-0.3,0-0.6,0-0.7c0.9-0.3,1.8-0.5,2.8-0.5c2.6,0,3.9,1.3,3.9,3.3
					c0,1.6-0.9,2.9-1.4,3.7c-0.7,1-2,2.5-4,4.3H86.9z"/>
			</g>
		</g>
	</g>
</g>
</svg>
