<?xml version="1.0" encoding="utf-8"?>
<!-- Generator: Adobe Illustrator 26.5.0, SVG Export Plug-In . SVG Version: 6.00 Build 0)  -->
<svg version="1.1" id="Calque_1" xmlns="http://www.w3.org/2000/svg" xmlns:xlink="http://www.w3.org/1999/xlink" x="0px" y="0px"
	 viewBox="0 0 800 75.2" style="enable-background:new 0 0 800 75.2;" xml:space="preserve">
<style type="text/css">
	.st0{clip-path:url(#SVGID_00000176747955814712251520000014606278098923058842_);fill:#05475C;}
	
		.st1{opacity:0.34;clip-path:url(#SVGID_00000176747955814712251520000014606278098923058842_);fill:url(#SVGID_00000099621477021080510250000002582641036678012817_);enable-background:new    ;}
	
		.st2{opacity:0.34;clip-path:url(#SVGID_00000176747955814712251520000014606278098923058842_);fill:url(#SVGID_00000176747406361787387170000015761111210610681509_);enable-background:new    ;}
	
		.st3{opacity:0.34;clip-path:url(#SVGID_00000176747955814712251520000014606278098923058842_);fill:url(#SVGID_00000033329244004512996900000013243327169966169018_);enable-background:new    ;}
	
		.st4{opacity:0.34;clip-path:url(#SVGID_00000176747955814712251520000014606278098923058842_);fill:url(#SVGID_00000117675807213375773470000005094905702622337690_);enable-background:new    ;}
	
		.st5{opacity:0.34;clip-path:url(#SVGID_00000176747955814712251520000014606278098923058842_);fill:url(#SVGID_00000158746027364634461380000011922165764021418656_);enable-background:new    ;}
	
		.st6{opacity:0.12;clip-path:url(#SVGID_00000176747955814712251520000014606278098923058842_);fill:url(#SVGID_00000100384100768724670170000001233789854608802206_);enable-background:new    ;}
	
		.st7{opacity:0.12;clip-path:url(#SVGID_00000176747955814712251520000014606278098923058842_);fill:url(#SVGID_00000110461380823889971960000007274746536321227419_);enable-background:new    ;}
	
		.st8{opacity:0.12;clip-path:url(#SVGID_00000176747955814712251520000014606278098923058842_);fill:url(#SVGID_00000100341722431482918990000005478594969535573636_);enable-background:new    ;}
	
		.st9{opacity:0.12;clip-path:url(#SVGID_00000176747955814712251520000014606278098923058842_);fill:url(#SVGID_00000083777194994129568140000017087958799540142991_);enable-background:new    ;}
	.st10{clip-path:url(#SVGID_00000176747955814712251520000014606278098923058842_);}
	.st11{opacity:0.71;}
	.st12{fill:#FFFFFF;}
	
		.st13{opacity:0.34;clip-path:url(#SVGID_00000176747955814712251520000014606278098923058842_);fill:url(#SVGID_00000074400341208793605370000012174806839408145314_);enable-background:new    ;}
	
		.st14{opacity:0.34;clip-path:url(#SVGID_00000176747955814712251520000014606278098923058842_);fill:url(#SVGID_00000098219720637930000600000009928390349720436885_);enable-background:new    ;}
	
		.st15{opacity:0.34;clip-path:url(#SVGID_00000176747955814712251520000014606278098923058842_);fill:url(#SVGID_00000116937149360633862470000001160074651967636646_);enable-background:new    ;}
	
		.st16{opacity:0.34;clip-path:url(#SVGID_00000176747955814712251520000014606278098923058842_);fill:url(#SVGID_00000060719713440949263370000016948524068403969714_);enable-background:new    ;}
	
		.st17{opacity:0.34;clip-path:url(#SVGID_00000176747955814712251520000014606278098923058842_);fill:url(#SVGID_00000177448891725088861610000013304015694649935252_);enable-background:new    ;}
	
		.st18{opacity:0.34;clip-path:url(#SVGID_00000176747955814712251520000014606278098923058842_);fill:url(#SVGID_00000021811563229464596480000001480378420555818682_);enable-background:new    ;}
	
		.st19{opacity:0.34;clip-path:url(#SVGID_00000176747955814712251520000014606278098923058842_);fill:url(#SVGID_00000132795543768779915990000001804999065504003727_);enable-background:new    ;}
	
		.st20{opacity:0.34;clip-path:url(#SVGID_00000176747955814712251520000014606278098923058842_);fill:url(#SVGID_00000033353556226302245190000013900921071067515548_);enable-background:new    ;}
</style>
<g>
	<defs>
		<rect id="SVGID_1_" width="800" height="75"/>
	</defs>
	<clipPath id="SVGID_00000081623338355527563770000002533362940068844987_">
		<use xlink:href="#SVGID_1_"  style="overflow:visible;"/>
	</clipPath>
	
		<rect y="-6.7" style="clip-path:url(#SVGID_00000081623338355527563770000002533362940068844987_);fill:#05475C;" width="800" height="92.8"/>
	
		<radialGradient id="SVGID_00000038405185503701051430000004349822176931472308_" cx="-2601.7632" cy="7031.8623" r="342.1" gradientTransform="matrix(-2.8317 2.4125 0.8042 0.9439 -12096.0479 -399.5388)" gradientUnits="userSpaceOnUse">
		<stop  offset="0" style="stop-color:#18F5B0"/>
		<stop  offset="1" style="stop-color:#05475C;stop-opacity:0"/>
	</radialGradient>
	
		<polygon style="opacity:0.34;clip-path:url(#SVGID_00000081623338355527563770000002533362940068844987_);fill:url(#SVGID_00000038405185503701051430000004349822176931472308_);enable-background:new    ;" points="
		-225.9,310.5 1449.4,-1116.6 2063.8,-395.2 388.5,1031.8 	"/>
	
		<radialGradient id="SVGID_00000102533721317829508000000017731438737069566599_" cx="6394.0698" cy="3677.4514" r="158.8" gradientTransform="matrix(3.061617e-17 0.5 0.5 -3.061617e-17 -1102.3257 -3144.9351)" gradientUnits="userSpaceOnUse">
		<stop  offset="0" style="stop-color:#DAC9BA"/>
		<stop  offset="1" style="stop-color:#05475C;stop-opacity:0"/>
	</radialGradient>
	
		<circle style="opacity:0.34;clip-path:url(#SVGID_00000081623338355527563770000002533362940068844987_);fill:url(#SVGID_00000102533721317829508000000017731438737069566599_);enable-background:new    ;" cx="736.4" cy="52.1" r="79.4"/>
	
		<linearGradient id="SVGID_00000090259190451313607400000017358106186077161397_" gradientUnits="userSpaceOnUse" x1="-1437.9543" y1="2186.9099" x2="-1382.3844" y2="2186.9099" gradientTransform="matrix(-0.8348 -1.1733 -1.0419 0.3814 1598.7482 -2412.2385)">
		<stop  offset="0" style="stop-color:#18F5B0"/>
		<stop  offset="1" style="stop-color:#05475C;stop-opacity:0"/>
	</linearGradient>
	
		<polygon style="opacity:0.34;clip-path:url(#SVGID_00000081623338355527563770000002533362940068844987_);fill:url(#SVGID_00000090259190451313607400000017358106186077161397_);enable-background:new    ;" points="
		506.7,31.9 569.9,91.2 458.3,108.5 447,81.7 	"/>
	
		<linearGradient id="SVGID_00000174580598149875607440000002879095366165991075_" gradientUnits="userSpaceOnUse" x1="-49.955" y1="2076.4495" x2="16.4151" y2="2076.4495" gradientTransform="matrix(-1.0472 -1.0739 -1.2032 0.6854 2997.8838 -1369.4878)">
		<stop  offset="0" style="stop-color:#18F5B0"/>
		<stop  offset="1" style="stop-color:#05475C;stop-opacity:0"/>
	</linearGradient>
	
		<polygon style="opacity:0.34;clip-path:url(#SVGID_00000081623338355527563770000002533362940068844987_);fill:url(#SVGID_00000174580598149875607440000002879095366165991075_);enable-background:new    ;" points="
		457,57.5 538.8,-2.2 564.6,94.2 431.9,80.6 	"/>
	
		<linearGradient id="SVGID_00000099633733585330950970000000851255604092087176_" gradientUnits="userSpaceOnUse" x1="-1431.2449" y1="5634.8257" x2="-1327.7549" y2="5634.8257" gradientTransform="matrix(1.5948 0.1286 -8.292760e-02 -1.3912 3287.7202 7992.5571)">
		<stop  offset="0" style="stop-color:#18F5B0"/>
		<stop  offset="1" style="stop-color:#05475C;stop-opacity:0"/>
	</linearGradient>
	
		<polygon style="opacity:0.34;clip-path:url(#SVGID_00000081623338355527563770000002533362940068844987_);fill:url(#SVGID_00000099633733585330950970000000851255604092087176_);enable-background:new    ;" points="
		698.3,17 633.2,34 527.4,-88.5 619.2,-56.2 	"/>
	
		<linearGradient id="SVGID_00000001635249674185316710000016720107718524880030_" gradientUnits="userSpaceOnUse" x1="3616.2019" y1="1031.2928" x2="3800.1719" y2="1031.2928" gradientTransform="matrix(-0.341 0.3792 0.5609 0.9317 1481.2501 -2375.2625)">
		<stop  offset="0" style="stop-color:#AABDCB"/>
		<stop  offset="1" style="stop-color:#05475C;stop-opacity:0"/>
	</linearGradient>
	
		<polygon style="opacity:0.12;clip-path:url(#SVGID_00000081623338355527563770000002533362940068844987_);fill:url(#SVGID_00000001635249674185316710000016720107718524880030_);enable-background:new    ;" points="
		849.2,-1.5 841,45.8 754.9,15.5 772.6,-88.1 	"/>
	
		<linearGradient id="SVGID_00000114793001521345069760000012688220911513029271_" gradientUnits="userSpaceOnUse" x1="2853.4312" y1="7322.4062" x2="3055.7712" y2="7322.4062" gradientTransform="matrix(-0.5695 0.353 0.3978 0.9064 -404.8082 -7681.1133)">
		<stop  offset="0" style="stop-color:#18F5B0"/>
		<stop  offset="1" style="stop-color:#05475C;stop-opacity:0"/>
	</linearGradient>
	
		<polygon style="opacity:0.12;clip-path:url(#SVGID_00000081623338355527563770000002533362940068844987_);fill:url(#SVGID_00000114793001521345069760000012688220911513029271_);enable-background:new    ;" points="
		834.2,13.6 799,89 761.5,-34.8 862.9,-98.1 	"/>
	
		<linearGradient id="SVGID_00000101793563822561008850000017828752541773101460_" gradientUnits="userSpaceOnUse" x1="-3632.0457" y1="2732.1775" x2="-3521.8018" y2="2732.1775" gradientTransform="matrix(0.9175 -0.3976 -0.3976 -0.9175 5119.5 1036.7129)">
		<stop  offset="0" style="stop-color:#18F5B0"/>
		<stop  offset="1" style="stop-color:#05475C;stop-opacity:0"/>
	</linearGradient>
	
		<polygon style="opacity:0.12;clip-path:url(#SVGID_00000081623338355527563770000002533362940068844987_);fill:url(#SVGID_00000101793563822561008850000017828752541773101460_);enable-background:new    ;" points="
		766.4,-110.1 843,25.4 735.9,55.5 734.6,-153.6 	"/>
	
		<linearGradient id="SVGID_00000005262877684073597380000010621194368725479859_" gradientUnits="userSpaceOnUse" x1="2999.5742" y1="2594.3003" x2="3149.8562" y2="2594.3003" gradientTransform="matrix(0.7176 0.6964 0.6964 -0.7176 -3254.3862 -256.5119)">
		<stop  offset="0" style="stop-color:#18F5B0"/>
		<stop  offset="1" style="stop-color:#05475C;stop-opacity:0"/>
	</linearGradient>
	
		<polygon style="opacity:0.12;clip-path:url(#SVGID_00000081623338355527563770000002533362940068844987_);fill:url(#SVGID_00000005262877684073597380000010621194368725479859_);enable-background:new    ;" points="
		769.9,119.4 716.1,21.5 747.5,-73.3 	"/>
	<g style="clip-path:url(#SVGID_00000081623338355527563770000002533362940068844987_);">
		<g class="st11">
			<path class="st12" d="M222.4,41.5c-0.6,0,0.1,0.3,0.9,0.4c0.2-0.2,0.4-0.3,0.6-0.5C223.5,41.6,222.9,41.6,222.4,41.5"/>
			<path class="st12" d="M225.8,40.7c0.4-0.5,0.6-1.1,0.7-1.7c-0.1,0.4-0.3,0.8-0.5,1.1c-1.2,0.7-0.1-0.4,0-0.9
				C224.7,40.9,225.8,40.2,225.8,40.7"/>
			<path class="st12" d="M227,37.5c0.1-1.1-0.2-0.8-0.3-0.3C226.8,37.2,226.9,37.9,227,37.5"/>
			<path class="st12" d="M220.1,22.2c0.3,0.1,0.7,0.1,0.7,0.2C221.1,22.3,221.2,22.2,220.1,22.2"/>
			<path class="st12" d="M220.7,22.3l-0.2,0.1L220.7,22.3L220.7,22.3"/>
			<path class="st12" d="M231.1,37.9c0,1-0.3,1.5-0.6,2.4l-0.5,0.3c-0.4,0.9,0,0.5-0.3,1.2c-0.7,0.6-2.1,1.9-2.5,2
				c-0.3,0,0.2-0.4,0.3-0.5c-0.9,0.6-0.7,0.9-2.1,1.3v-0.1c-3.5,1.6-8.3-1.6-8.2-6c0,0.3-0.1,0.2-0.2,0.3c-0.2-2.3,1-4.6,3.1-5.5
				c2-1,4.4-0.6,5.8,0.8c-0.8-1-2.4-2.2-4.3-2.1c-1.8,0-3.6,1.2-4.1,2.5c-0.9,0.6-1,2.3-1.5,2.6c-0.5,4.1,1,5.8,3.7,7.9
				c0.4,0.3,0.1,0.3,0.2,0.6c-0.9-0.4-1.7-1.1-2.4-1.8c0.4,0.5,0.7,1,1.2,1.4c-0.8-0.3-2-2.1-2.3-2.1c1.5,2.6,5.9,4.6,8.2,3.6
				c-1.1,0-2.5,0-3.7-0.4c-0.5-0.3-1.2-0.8-1.1-0.9c3.2,1.2,6.5,0.9,9.2-1.3c0.7-0.6,1.5-1.5,1.7-1.5c-0.3,0.5,0.1,0.2-0.2,0.7
				c0.7-1.1-0.3-0.5,0.7-1.9l0.4,0.5c-0.1-0.9,1.2-2.1,1-3.5c0.3-0.4,0.3,0.5,0,1.5c0.4-1.2,0.1-1.3,0.2-2.3c0.1,0.3,0.3,0.7,0.4,1
				c-0.3-1.1,0.3-1.9,0.4-2.5c-0.1-0.1-0.4,0.5-0.5-0.8c0-0.6,0.2-0.3,0.2-0.4c-0.1-0.1-0.4-0.5-0.6-1.3c0.1-0.2,0.3,0.5,0.5,0.5
				c-0.1-0.7-0.3-1.2-0.3-1.7c-0.5-1.1-0.2,0.1-0.6-0.5c-0.5-1.7,0.5-0.4,0.5-1.2c0.8,1.2,1.3,3.1,1.5,3.8c-0.2-0.9-0.4-1.9-0.8-2.7
				c0.2,0.1-0.4-1.9,0.3-0.6c-0.8-2.9-3.4-5.6-5.7-6.9c0.3,0.3,0.7,0.6,0.5,0.7c-1.2-0.7-1-0.8-1.1-1.1c-1-0.4-1,0-1.7,0
				c-1.8-1-2.2-0.9-3.8-1.5l0.1,0.3c-1.2-0.4-1.4,0.2-2.7,0c-0.1-0.1,0.4-0.2,0.8-0.3c-1.2,0.2-1.1-0.2-2.2,0
				c0.3-0.2,0.6-0.3,0.9-0.5c-1,0.1-2.3,0.6-1.8,0.1c-1.5,0.7-4.3,1.7-5.8,3.1v-0.3c-0.7,0.8-3.1,2.5-3.3,3.6h-0.2
				c-0.4,0.6-0.6,1.3-0.9,2c-0.5,0.8-0.7,0.3-0.6,0.4c-0.9,1.9-1.4,3.5-1.8,4.8c0.3,0.4,0,2.6,0.1,4.3c-0.5,8.6,6,16.8,13.1,18.8
				c1,0.4,2.6,0.4,3.9,0.4c-1.5-0.4-1.8-0.2-3.3-0.8c-1.1-0.5-1.3-1.1-2.1-1.8l0.3,0.5c-1.5-0.5-0.9-0.7-2.1-1.1l0.3-0.4
				c-0.5,0-1.3-0.8-1.5-1.3h-0.5c-0.6-0.8-1-1.4-1-1.8l-0.2,0.3c-0.2-0.3-2.4-3-1.2-2.4c-0.2-0.2-0.5-0.3-0.8-0.9l0.2-0.3
				c-0.5-0.7-1-1.6-1-1.9c0.3,0.4,0.5,0.5,0.7,0.5c-1.4-3.4-1.5-0.2-2.5-3.5h0.2c-0.2-0.2-0.3-0.5-0.4-0.8l0.1-0.9
				c-1-1.1-0.3-4.8-0.1-6.9c0.1-0.8,0.8-1.7,1.4-3.1l-0.3-0.1c0.6-1.1,3.7-4.5,5.1-4.3c0.7-0.8-0.1,0-0.3-0.2c1.5-1.5,2-1.1,3-1.4
				c1.1-0.6-0.9,0.2-0.4-0.2c1.9-0.5,1.3-1.1,3.8-1.3c0.3,0.2-0.6,0.2-0.8,0.4c1.6-0.8,4.9-0.6,7.1,0.4c2.5,1.2,5.4,4.7,5.5,8h0.1
				c-0.1,1.3,0.2,2.8-0.3,4.2L231.1,37.9"/>
			<path class="st12" d="M215.6,42.4l-0.1,0.4c0.4,0.6,0.7,1.2,1.3,1.6C216.4,43.7,216.2,43.4,215.6,42.4"/>
			<path class="st12" d="M216.6,42.3c-0.2-0.2-0.3-0.5-0.5-0.8c0.1,0.5,0.4,0.9,0.7,1.4L216.6,42.3"/>
			<path class="st12" d="M233.7,38.6l-0.1,0.2c-0.2,1.2-0.5,2.4-1.1,3.5C233.1,41.1,233.5,39.9,233.7,38.6"/>
			<path class="st12" d="M220.2,21.9c0.4-0.2,1-0.1,1.5-0.2c-0.6,0.1-1.2,0.1-1.7,0.2H220.2"/>
			<path class="st12" d="M205.4,29.7c0.1,0.9-0.7,1.2,0.2,0.7C206,29.3,205.4,30.1,205.4,29.7"/>
			<path class="st12" d="M204.4,33.9c0.2-0.6,0.2-1,0.3-1.3C204.2,33.3,204.5,33.4,204.4,33.9"/>
		</g>
		<g>
			<g class="st11">
				<path class="st12" d="M266.1,36.1c0,0,0,7.5-0.1,9.4c-0.1,1.6-0.2,5-3.6,5s-4.3-3.9-4.5-5.7c-0.3-1.9-0.3-3.5-0.3-4.2
					c0-2.2,0.1-8.4,5.4-8.4c1.6,0,2.5,0.5,3.1,0.8V36.1L266.1,36.1z M252.6,41.6c0,13.1,7,13.1,8,13.1c2.9,0,4.7-1.6,5.5-4.3
					l0.1,4.1c0.9,0,1.8-0.1,3.2-0.1c0.5,0,0.9,0,1.3,0s0.8,0,1.1,0.1c-0.8-1.5-1.3-4.8-1.3-12.1s0-19,0.6-22.6
					c-1.7,0.8-3.1,1.3-6.3,1.6c1.3,1.4,1.3,2,1.3,8.2c-0.9-0.3-2-0.6-3.9-0.6C254,29,252.6,36.2,252.6,41.6"/>
				<path class="st12" d="M277.8,39.2c0-3.9,0.8-7.3,4.1-7.3c3.6,0,3.9,4,3.8,7.3H277.8z M290.3,39.7c0-5.4-1.1-10.8-7.9-10.8
					c-9.5,0-9.5,10.5-9.5,12.7c0,9.4,4.2,13.1,11.3,13.1c3.1,0,4.7-0.5,5.5-0.7c0-1.7,0.2-2.8,0.5-4.2c-1,0.6-2.2,1.4-5,1.4
					c-7.2,0-7.3-6.6-7.3-8.8h12.3L290.3,39.7"/>
				<path class="st12" d="M305.4,41.7c0,4.3-0.8,10.1-6.2,10.1c-0.8,0-1.7-0.1-2.3-0.3c-0.1-1.7-0.1-4.5-0.1-7.9
					c0-4,0.4-6.1,0.8-7.1c1-3.3,3.1-3.3,3.6-3.3C304.7,33.2,305.4,38.1,305.4,41.7L305.4,41.7z M292.1,46.7c0,3.4,0,5.4-0.5,6.9
					c1.9,0.8,4.3,1.1,7.1,1.1c1.8,0,7,0,9.9-5.8c1.4-2.7,1.8-6.3,1.8-9.1c0-1.7-0.2-5.3-1.5-7.7c-1.3-2.2-3.4-3.3-5.6-3.3
					c-4.5,0-5.8,3.7-6.4,5.6c0-2.4,0-10.6,0.4-14.8c-3,1.4-4.9,1.6-6.9,1.8c1.8,0.7,1.8,3.8,1.8,13.8L292.1,46.7"/>
				<path class="st12" d="M319.3,54.5c-0.9-0.1-1.6-0.2-2.9-0.2c-1.5,0-2.5,0.1-3.6,0.2c0.5-0.9,0.6-1.3,0.8-4.3
					c0.2-4.2,0.2-15.2-0.1-17.5c-0.2-1.8-0.6-2-1.3-2.5c3.8-0.4,4.9-0.6,6.7-1.5c-0.4,2-0.4,3.1-0.4,6.2
					C318.3,50.9,318.3,52.6,319.3,54.5"/>
				<path class="st12" d="M334.1,41.3c-0.1,2.9-0.1,5-0.9,6.6c-1,2.1-2.6,2.7-3.8,2.7c-2.8,0-3.4-2.3-3.4-4.6c0-4.4,3.9-4.7,5.7-4.7
					H334.1L334.1,41.3L334.1,41.3z M321.4,47.1c0,2.9,0.9,5.8,3.5,7.1c1.1,0.5,2.3,0.5,2.7,0.5c4.3,0,5.7-3.2,6.6-5.1
					c0,2,0,3.3,0.1,4.9c0.8,0,1.7-0.1,3-0.1c0.8,0,1.5,0.1,2.3,0.1c-0.5-0.8-0.8-1.3-0.9-3.1s-0.1-3.5-0.1-6V36c0-3.5-0.9-7-7.9-7
					c-4.6,0-7.3,1.4-8.6,2.1c0.5,1,1,1.9,1.4,3.9c1.8-1.6,4.2-2.4,6.6-2.4c3.9,0,3.9,2.5,3.9,6.2c-0.9,0-1.6-0.1-2.9-0.1
					C325.3,38.6,321.4,40.8,321.4,47.1"/>
				<path class="st12" d="M360.9,49.9c0,1.6,0,3.3,0.7,4.6c-1-0.1-1.6-0.2-3.5-0.2c-1.1,0-1.7,0.1-2.6,0.2c0.2-0.6,0.3-0.8,0.4-1.6
					c0.1-1.1,0.2-4.7,0.2-5.9v-5c0-2.2,0-5.3-0.1-6.4c-0.1-0.8-0.3-2.9-3-2.9s-3.5,1.9-3.9,3.5s-0.4,3.4-0.4,10.2
					c0,5.9,0,6.5,0.5,8.1c-0.8-0.1-1.8-0.2-3.1-0.2c-1.1,0-1.9,0-2.8,0.2c0.3-0.8,0.5-1.1,0.6-3.7c0.1-2.5,0.3-15.1-0.1-18.1
					c-0.2-1.8-0.7-2.2-1.2-2.7c3.8-0.2,5-0.8,6.1-1.4v4.9c0.5-1.4,1.7-4.7,6.3-4.7c5.8,0,5.8,4.2,5.9,7V49.9"/>
				<path class="st12" d="M319.6,22.1l-3.9,3.9l-3.9-3.9l3.9-3.9L319.6,22.1"/>
			</g>
			<g>
				<path class="st12" d="M391.1,39.4c0,5,0,7.9,0.2,10.5c0.2,3.2,0.5,3.9,0.9,4.8c-1.4-0.2-2.7-0.2-4-0.2c-1.5,0-2.1,0.1-3.2,0.2
					c0.5-1.3,0.7-2,0.8-4.7c0.1-2,0.2-4.5,0.2-10.5v-5.9c-0.2-7.6-0.2-8.4-0.2-9.9c-2.2,0.9-4.4,1.8-6.6,2.9c0-0.6,0.1-1.1,0.2-1.6
					c0-1-0.1-1.5-0.2-2.2c2.5-0.6,8.1-2.1,12.2-5c-0.2,3.9-0.2,6.7-0.2,14.5L391.1,39.4L391.1,39.4z"/>
				<path class="st12" d="M412.8,49.5c7,0,7.9-0.1,9.7-1.4c-0.2,1.2-0.3,2.1-0.3,4c0,1.3,0,2,0.2,2.8c-3.2-0.2-6.5-0.2-9.7-0.2
					c-5,0-9.5,0.1-11,0.2c0.1-0.6,0.2-1.4,0.2-2.5s-0.1-1.8-0.2-2.4c1.5-1.3,3-2.4,6-5.8c6-6.5,8.5-10.4,8.5-14.5s-2.6-6.5-7-6.5
					c-2.3,0-4.3,0.5-6.2,1.8c0-1.2,0.2-2.1,0.2-3.1c0-0.9,0-1.5,0-2c2.6-0.9,5.1-1.3,7.8-1.3c7.2,0,10.8,3.7,10.8,9.1
					c0,4.5-2.5,8.1-4,10.1c-1.9,2.7-5.5,6.8-11,11.8L412.8,49.5L412.8,49.5z"/>
			</g>
		</g>
	</g>
	
		<radialGradient id="SVGID_00000156547371416816248460000008701248978914265787_" cx="1546.2078" cy="2461.6941" r="101.1555" gradientTransform="matrix(0.7061 0.7081 0.7081 -0.7061 -2715.7585 686.4619)" gradientUnits="userSpaceOnUse">
		<stop  offset="0" style="stop-color:#18F5B0"/>
		<stop  offset="1" style="stop-color:#05475C;stop-opacity:0"/>
	</radialGradient>
	
		<path style="opacity:0.34;clip-path:url(#SVGID_00000081623338355527563770000002533362940068844987_);fill:url(#SVGID_00000156547371416816248460000008701248978914265787_);enable-background:new    ;" d="
		M92.2,146.7C37.4,129.5,6.8,71.1,24.1,16.2C41.3-38.6,99.7-69.2,154.5-52s85.4,75.6,68.2,130.4"/>
	
		<radialGradient id="SVGID_00000088820110689131631970000016974615839634350782_" cx="1536.3406" cy="2464.5693" r="101.1772" gradientTransform="matrix(0.7061 0.7081 0.7081 -0.7061 -2715.7585 686.4619)" gradientUnits="userSpaceOnUse">
		<stop  offset="0" style="stop-color:#DAC9BA"/>
		<stop  offset="1" style="stop-color:#05475C;stop-opacity:0"/>
	</radialGradient>
	
		<path style="opacity:0.34;clip-path:url(#SVGID_00000081623338355527563770000002533362940068844987_);fill:url(#SVGID_00000088820110689131631970000016974615839634350782_);enable-background:new    ;" d="
		M87.3,137.7C32.4,120.5,1.9,62,19.1,7.2S94.7-78.2,149.6-61c54.8,17.2,85.4,75.6,68.2,130.4"/>
	
		<linearGradient id="SVGID_00000044135364056028867490000013352342717433132709_" gradientUnits="userSpaceOnUse" x1="13.9058" y1="3026.5183" x2="119.8558" y2="3026.5183" gradientTransform="matrix(0.5793 0.8151 0.8151 -0.5793 -2381.7061 1735.3982)">
		<stop  offset="0" style="stop-color:#AABDCB"/>
		<stop  offset="1" style="stop-color:#05475C;stop-opacity:0"/>
	</linearGradient>
	
		<polygon style="opacity:0.34;clip-path:url(#SVGID_00000081623338355527563770000002533362940068844987_);fill:url(#SVGID_00000044135364056028867490000013352342717433132709_);enable-background:new    ;" points="
		98.6,67.1 56.5,19.6 152.6,-0.9 153.7,80.5 	"/>
	
		<linearGradient id="SVGID_00000036236221134814633260000016965928555056169387_" gradientUnits="userSpaceOnUse" x1="37.8576" y1="2991.6445" x2="148.2345" y2="2991.6445" gradientTransform="matrix(0.5793 0.8151 0.8151 -0.5793 -2381.7061 1735.3982)">
		<stop  offset="0" style="stop-color:#AABDCB"/>
		<stop  offset="1" style="stop-color:#05475C;stop-opacity:0"/>
	</linearGradient>
	
		<polyline style="opacity:0.34;clip-path:url(#SVGID_00000081623338355527563770000002533362940068844987_);fill:url(#SVGID_00000036236221134814633260000016965928555056169387_);enable-background:new    ;" points="
		25.8,96.8 100.8,17.5 152.6,-0.9 137.4,126.9 	"/>
	
		<linearGradient id="SVGID_00000009550641336547583790000017373218642980522933_" gradientUnits="userSpaceOnUse" x1="-881.5312" y1="3581.4717" x2="-802.3509" y2="3581.4717" gradientTransform="matrix(0.7388 -0.6739 -0.6739 -0.7388 3110.4539 2115.021)">
		<stop  offset="0" style="stop-color:#AABDCB"/>
		<stop  offset="1" style="stop-color:#05475C;stop-opacity:0"/>
	</linearGradient>
	
		<polyline style="opacity:0.34;clip-path:url(#SVGID_00000081623338355527563770000002533362940068844987_);fill:url(#SVGID_00000009550641336547583790000017373218642980522933_);enable-background:new    ;" points="
		84.6,106 56.5,19.6 23.3,5 67.1,-3.9 81.4,-15 137.2,54.4 84.6,106 	"/>
	
		<linearGradient id="SVGID_00000152985017320084300840000003890438458294892732_" gradientUnits="userSpaceOnUse" x1="497.1732" y1="4584.0684" x2="621.413" y2="4584.0684" gradientTransform="matrix(-0.7081 0.7061 0.7061 0.7081 -2730.8821 -3565.8687)">
		<stop  offset="0" style="stop-color:#18F5B0"/>
		<stop  offset="1" style="stop-color:#05475C;stop-opacity:0"/>
	</linearGradient>
	
		<polyline style="opacity:0.34;clip-path:url(#SVGID_00000081623338355527563770000002533362940068844987_);fill:url(#SVGID_00000152985017320084300840000003890438458294892732_);enable-background:new    ;" points="
		71.6,124.6 94.3,53.6 159.5,36.8 146.5,75.5 71.6,124.6 	"/>
	
		<linearGradient id="SVGID_00000029018727124467353680000011377809280758515584_" gradientUnits="userSpaceOnUse" x1="1984.4906" y1="2367.3088" x2="2103.5405" y2="2367.3088" gradientTransform="matrix(0.5472 0.4832 0.7373 -0.6696 -2765.4619 626.8857)">
		<stop  offset="0" style="stop-color:#18F5B0"/>
		<stop  offset="1" style="stop-color:#05475C;stop-opacity:0"/>
	</linearGradient>
	
		<polygon style="opacity:0.34;clip-path:url(#SVGID_00000081623338355527563770000002533362940068844987_);fill:url(#SVGID_00000029018727124467353680000011377809280758515584_);enable-background:new    ;" points="
		149.1,15.2 95.9,86.1 67.1,-3.9 106.7,-10.7 	"/>
	
		<linearGradient id="SVGID_00000176020585398802190010000015234593053598650294_" gradientUnits="userSpaceOnUse" x1="-764.6882" y1="4162.4219" x2="-639.2191" y2="4162.4219" gradientTransform="matrix(-0.5793 -0.8151 -0.8151 0.5793 3049.3359 -2929.8384)">
		<stop  offset="0" style="stop-color:#18F5B0"/>
		<stop  offset="1" style="stop-color:#05475C;stop-opacity:0"/>
	</linearGradient>
	
		<polyline style="opacity:0.34;clip-path:url(#SVGID_00000081623338355527563770000002533362940068844987_);fill:url(#SVGID_00000176020585398802190010000015234593053598650294_);enable-background:new    ;" points="
		25.8,96.8 23.3,5 94.3,53.6 125.5,45.5 71.6,124.6 	"/>
</g>
</svg>
