<?xml version="1.0" encoding="utf-8"?>
<!-- Generator: Adobe Illustrator 26.5.0, SVG Export Plug-In . SVG Version: 6.00 Build 0)  -->
<svg version="1.1" id="Calque_1" xmlns="http://www.w3.org/2000/svg" xmlns:xlink="http://www.w3.org/1999/xlink" x="0px" y="0px"
	 viewBox="0 0 800 118.9" style="enable-background:new 0 0 800 118.9;" xml:space="preserve">
<style type="text/css">
	.st0{clip-path:url(#Background_00000102520983335176584460000018125318467460867503_);fill:#05475C;}
	
		.st1{opacity:0.34;clip-path:url(#Background_00000102520983335176584460000018125318467460867503_);fill:url(#SVGID_1_);enable-background:new    ;}
	
		.st2{opacity:0.34;clip-path:url(#Background_00000102520983335176584460000018125318467460867503_);fill:url(#SVGID_00000178182780697739197090000011750145322304245918_);enable-background:new    ;}
	
		.st3{opacity:0.34;clip-path:url(#Background_00000102520983335176584460000018125318467460867503_);fill:url(#SVGID_00000036972404291961379350000014649281756443647621_);enable-background:new    ;}
	
		.st4{opacity:0.34;clip-path:url(#Background_00000102520983335176584460000018125318467460867503_);fill:url(#SVGID_00000144336764491445625340000016735763571535888551_);enable-background:new    ;}
	
		.st5{opacity:0.34;clip-path:url(#Background_00000102520983335176584460000018125318467460867503_);fill:url(#SVGID_00000100356777171687087190000017818438002794589597_);enable-background:new    ;}
	
		.st6{opacity:0.34;clip-path:url(#Background_00000102520983335176584460000018125318467460867503_);fill:url(#SVGID_00000047031931277112669410000006714671741352288403_);enable-background:new    ;}
	
		.st7{opacity:0.34;clip-path:url(#Background_00000102520983335176584460000018125318467460867503_);fill:url(#SVGID_00000099644729507189701260000010706602424485791128_);enable-background:new    ;}
	
		.st8{opacity:0.34;clip-path:url(#Background_00000102520983335176584460000018125318467460867503_);fill:url(#SVGID_00000099643156709406825720000000661599276733186475_);enable-background:new    ;}
	
		.st9{opacity:0.34;clip-path:url(#Background_00000102520983335176584460000018125318467460867503_);fill:url(#SVGID_00000085928802517850728910000010310045178694405528_);enable-background:new    ;}
	
		.st10{opacity:0.34;clip-path:url(#Background_00000102520983335176584460000018125318467460867503_);fill:url(#SVGID_00000094582244497647487390000000288866801062271386_);enable-background:new    ;}
	
		.st11{opacity:0.12;clip-path:url(#Background_00000102520983335176584460000018125318467460867503_);fill:url(#SVGID_00000171693518974126855710000016440847870151128972_);enable-background:new    ;}
	
		.st12{opacity:0.12;clip-path:url(#Background_00000102520983335176584460000018125318467460867503_);fill:url(#SVGID_00000016791328930933757030000016378048687658986664_);enable-background:new    ;}
	
		.st13{opacity:0.12;clip-path:url(#Background_00000102520983335176584460000018125318467460867503_);fill:url(#SVGID_00000003806303842871299550000002703227051530083771_);enable-background:new    ;}
	.st14{clip-path:url(#Background_00000102520983335176584460000018125318467460867503_);}
	.st15{enable-background:new    ;}
	.st16{fill:#FFFFFF;}
</style>
<g>
	<defs>
		<rect id="Background_00000026856190060715445750000016895008625527238046_" width="800" height="118.9"/>
	</defs>
	<clipPath id="Background_00000044870812733774969190000008796483260891262892_">
		<use xlink:href="#Background_00000026856190060715445750000016895008625527238046_"  style="overflow:visible;"/>
	</clipPath>
	
		<rect id="Background" style="clip-path:url(#Background_00000044870812733774969190000008796483260891262892_);fill:#05475C;" width="800" height="118.9"/>
	
		<radialGradient id="SVGID_1_" cx="2071.9773" cy="4011.8904" r="102.8234" gradientTransform="matrix(0.7061 0.7081 -0.7081 0.7061 1529.0892 -4237.2407)" gradientUnits="userSpaceOnUse">
		<stop  offset="0" style="stop-color:#18F5B0"/>
		<stop  offset="1" style="stop-color:#05475C;stop-opacity:0"/>
	</radialGradient>
	
		<path style="opacity:0.34;clip-path:url(#Background_00000044870812733774969190000008796483260891262892_);fill:url(#SVGID_1_);enable-background:new    ;" d="
		M123.9,167.9C68.2,150.5,37.2,91.1,54.6,35.4s76.8-86.8,132.6-69.3S274,42.9,256.5,98.7"/>
	
		<linearGradient id="SVGID_00000179616897917330354980000011561049812798448817_" gradientUnits="userSpaceOnUse" x1="519.3717" y1="3240.2112" x2="627.0638" y2="3240.2112" gradientTransform="matrix(0.5793 0.8151 -0.8151 0.5793 2428.5149 -2280.7683)">
		<stop  offset="0" style="stop-color:#AABDCB"/>
		<stop  offset="1" style="stop-color:#05475C;stop-opacity:0"/>
	</linearGradient>
	
		<polygon style="opacity:0.34;clip-path:url(#Background_00000044870812733774969190000008796483260891262892_);fill:url(#SVGID_00000179616897917330354980000011561049812798448817_);enable-background:new    ;" points="
		93.7,94.5 50.9,46.2 148.6,25.3 149.7,108.1 	"/>
	
		<linearGradient id="SVGID_00000151506960524153772650000007951298693449447579_" gradientUnits="userSpaceOnUse" x1="543.6476" y1="3275.6653" x2="655.8393" y2="3275.6653" gradientTransform="matrix(0.5793 0.8151 -0.8151 0.5793 2428.5149 -2280.7683)">
		<stop  offset="0" style="stop-color:#AABDCB"/>
		<stop  offset="1" style="stop-color:#05475C;stop-opacity:0"/>
	</linearGradient>
	
		<polyline style="opacity:0.34;clip-path:url(#Background_00000044870812733774969190000008796483260891262892_);fill:url(#SVGID_00000151506960524153772650000007951298693449447579_);enable-background:new    ;" points="
		19.7,124.7 95.9,44 148.6,25.3 133.1,155.2 	"/>
	
		<linearGradient id="SVGID_00000054959116614249895770000000221916162525600166_" gradientUnits="userSpaceOnUse" x1="-1869.0492" y1="4227.9351" x2="-1788.5934" y2="4227.9351" gradientTransform="matrix(0.7388 -0.674 0.674 0.7388 -1428.9913 -4292.8726)">
		<stop  offset="0" style="stop-color:#AABDCB"/>
		<stop  offset="1" style="stop-color:#05475C;stop-opacity:0"/>
	</linearGradient>
	
		<polyline style="opacity:0.34;clip-path:url(#Background_00000044870812733774969190000008796483260891262892_);fill:url(#SVGID_00000054959116614249895770000000221916162525600166_);enable-background:new    ;" points="
		79.5,134 50.9,46.2 17.2,31.3 61.7,22.3 76.2,11 132.9,81.5 79.5,134 	"/>
	
		<linearGradient id="SVGID_00000076584837717113755220000001302127410726817958_" gradientUnits="userSpaceOnUse" x1="-299.4279" y1="365.407" x2="-173.1377" y2="365.407" gradientTransform="matrix(-0.7081 0.7061 -0.7061 -0.7081 195.92 528.0856)">
		<stop  offset="0" style="stop-color:#18F5B0"/>
		<stop  offset="1" style="stop-color:#05475C;stop-opacity:0"/>
	</linearGradient>
	
		<polyline style="opacity:0.34;clip-path:url(#Background_00000044870812733774969190000008796483260891262892_);fill:url(#SVGID_00000076584837717113755220000001302127410726817958_);enable-background:new    ;" points="
		66.3,152.9 89.4,80.7 155.6,63.6 142.4,103 66.3,152.9 	"/>
	
		<linearGradient id="SVGID_00000080169750799703955890000005136441007589844663_" gradientUnits="userSpaceOnUse" x1="3048.8147" y1="4230.5063" x2="3169.8237" y2="4230.5063" gradientTransform="matrix(0.5448 0.4811 -0.7351 0.668 1507.376 -4267.5776)">
		<stop  offset="0" style="stop-color:#18F5B0"/>
		<stop  offset="1" style="stop-color:#05475C;stop-opacity:0"/>
	</linearGradient>
	
		<polygon style="opacity:0.34;clip-path:url(#Background_00000044870812733774969190000008796483260891262892_);fill:url(#SVGID_00000080169750799703955890000005136441007589844663_);enable-background:new    ;" points="
		145.1,41.7 91,113.8 61.7,22.3 102,15.3 	"/>
	
		<linearGradient id="SVGID_00000037694208842369189450000004333509111787426185_" gradientUnits="userSpaceOnUse" x1="-3117.7859" y1="2325.3826" x2="-2990.2231" y2="2325.3826" gradientTransform="matrix(-0.5793 -0.8151 0.8151 -0.5793 -3606.8882 -1061.4724)">
		<stop  offset="0" style="stop-color:#18F5B0"/>
		<stop  offset="1" style="stop-color:#05475C;stop-opacity:0"/>
	</linearGradient>
	
		<polyline style="opacity:0.34;clip-path:url(#Background_00000044870812733774969190000008796483260891262892_);fill:url(#SVGID_00000037694208842369189450000004333509111787426185_);enable-background:new    ;" points="
		19.7,124.7 17.2,31.3 89.4,80.7 121.1,72.5 66.3,152.9 	"/>
	
		<linearGradient id="SVGID_00000142160648136796416000000000356130081868593301_" gradientUnits="userSpaceOnUse" x1="-2159.4937" y1="1988.8788" x2="-2085.7642" y2="1988.8788" gradientTransform="matrix(-0.8348 -1.1733 -1.0419 0.3814 1038.7856 -3142.53)">
		<stop  offset="0" style="stop-color:#18F5B0"/>
		<stop  offset="1" style="stop-color:#05475C;stop-opacity:0"/>
	</linearGradient>
	
		<polygon style="opacity:0.34;clip-path:url(#Background_00000044870812733774969190000008796483260891262892_);fill:url(#SVGID_00000142160648136796416000000000356130081868593301_);enable-background:new    ;" points="
		750.8,47.5 834.7,126.1 686.7,149.2 671.6,113.6 	"/>
	
		<linearGradient id="SVGID_00000149353234146548026910000011967449955480398782_" gradientUnits="userSpaceOnUse" x1="-821.7042" y1="2020.5839" x2="-733.645" y2="2020.5839" gradientTransform="matrix(-1.0472 -1.0739 -1.2032 0.6854 2381.3579 -2119.7583)">
		<stop  offset="0" style="stop-color:#18F5B0"/>
		<stop  offset="1" style="stop-color:#05475C;stop-opacity:0"/>
	</linearGradient>
	
		<polygon style="opacity:0.34;clip-path:url(#Background_00000044870812733774969190000008796483260891262892_);fill:url(#SVGID_00000149353234146548026910000011967449955480398782_);enable-background:new    ;" points="
		685,81.4 793.4,2.2 827.7,130.2 651.6,112.1 	"/>
	
		<linearGradient id="SVGID_00000005262756244152058860000014009206744533896341_" gradientUnits="userSpaceOnUse" x1="-1589.9254" y1="5673.2871" x2="-1452.6158" y2="5673.2871" gradientTransform="matrix(1.5948 0.1286 -8.292760e-02 -1.3912 3554.7644 8170.1538)">
		<stop  offset="0" style="stop-color:#18F5B0"/>
		<stop  offset="1" style="stop-color:#05475C;stop-opacity:0"/>
	</linearGradient>
	
		<polygon style="opacity:0.34;clip-path:url(#Background_00000044870812733774969190000008796483260891262892_);fill:url(#SVGID_00000005262756244152058860000014009206744533896341_);enable-background:new    ;" points="
		761.5,136.4 675.1,158.8 534.8,-3.7 656.6,39.2 	"/>
	
		<linearGradient id="SVGID_00000062907151268549484640000010113072420936571282_" gradientUnits="userSpaceOnUse" x1="2321.6284" y1="7885.2676" x2="2590.0913" y2="7885.2676" gradientTransform="matrix(-0.5695 0.353 0.3978 0.9064 -1145.8097 -7876.1426)">
		<stop  offset="0" style="stop-color:#18F5B0"/>
		<stop  offset="1" style="stop-color:#05475C;stop-opacity:0"/>
	</linearGradient>
	
		<polygon style="opacity:0.12;clip-path:url(#Background_00000044870812733774969190000008796483260891262892_);fill:url(#SVGID_00000062907151268549484640000010113072420936571282_);enable-background:new    ;" points="
		604,157.6 557.2,257.5 507.5,93.3 642.1,9.4 	"/>
	
		<linearGradient id="SVGID_00000089535883260023599530000003881989551543565716_" gradientUnits="userSpaceOnUse" x1="-3801.7717" y1="2581.1084" x2="-3655.5669" y2="2581.1084" gradientTransform="matrix(0.9175 -0.3976 -0.3976 -0.9175 5165.6392 896.7063)">
		<stop  offset="0" style="stop-color:#18F5B0"/>
		<stop  offset="1" style="stop-color:#05475C;stop-opacity:0"/>
	</linearGradient>
	
		<polygon style="opacity:0.12;clip-path:url(#Background_00000044870812733774969190000008796483260891262892_);fill:url(#SVGID_00000089535883260023599530000003881989551543565716_);enable-background:new    ;" points="
		738.5,-71.5 840.1,108.2 698.1,148.2 696.3,-129.3 	"/>
	
		<linearGradient id="SVGID_00000168080479601119795980000010399131175725076149_" gradientUnits="userSpaceOnUse" x1="3002.5527" y1="2896.1086" x2="3201.8784" y2="2896.1086" gradientTransform="matrix(0.7176 0.6964 0.6964 -0.7176 -3514.7 23.0145)">
		<stop  offset="0" style="stop-color:#18F5B0"/>
		<stop  offset="1" style="stop-color:#05475C;stop-opacity:0"/>
	</linearGradient>
	
		<polygon style="opacity:0.12;clip-path:url(#Background_00000044870812733774969190000008796483260891262892_);fill:url(#SVGID_00000168080479601119795980000010399131175725076149_);enable-background:new    ;" points="
		743.1,233 671.8,103.1 713.5,-22.7 	"/>
	<g id="Logo" style="clip-path:url(#Background_00000044870812733774969190000008796483260891262892_);">
		<g>
			<g class="st15">
				<path class="st16" d="M242.4,60.7c-0.7,0,0.1,0.4,1.1,0.5c0.3-0.2,0.5-0.4,0.7-0.6C243.6,60.7,243,60.7,242.4,60.7"/>
				<path class="st16" d="M246.4,59.7c0.4-0.6,0.8-1.3,0.9-2c-0.1,0.5-0.4,0.9-0.6,1.4c-1.4,0.9-0.1-0.5,0-1.1
					C245.1,59.9,246.4,59.2,246.4,59.7"/>
				<path class="st16" d="M247.8,55.9c0.1-1.3-0.3-0.9-0.4-0.4C247.6,55.5,247.7,56.4,247.8,55.9"/>
				<path class="st16" d="M239.6,37.5c0.4,0.1,0.9,0.1,0.8,0.2C240.8,37.7,240.9,37.6,239.6,37.5"/>
				<path class="st16" d="M240.3,37.8l-0.3,0.1L240.3,37.8L240.3,37.8"/>
				<path class="st16" d="M252.7,56.4c0,1.2-0.4,1.8-0.7,2.8l-0.7,0.3c-0.5,1,0,0.7-0.3,1.5c-0.8,0.7-2.5,2.3-3,2.4
					c-0.4,0,0.3-0.5,0.4-0.6c-1.1,0.8-0.9,1.1-2.6,1.6v-0.1c-4.1,2-9.9-1.9-9.8-7.2c0,0.3-0.1,0.3-0.2,0.4c-0.2-2.7,1.3-5.4,3.7-6.5
					c2.4-1.2,5.3-0.7,7,0.9c-0.9-1.2-2.8-2.6-5.1-2.4c-2.2,0-4.3,1.4-4.9,2.9c-1.1,0.7-1.3,2.7-1.7,3.1c-0.7,4.9,1.2,6.9,4.5,9.4
					c0.5,0.3,0.1,0.4,0.2,0.7c-1.1-0.5-2-1.3-2.9-2.2c0.4,0.6,0.9,1.2,1.5,1.7c-1-0.3-2.4-2.4-2.8-2.5c1.7,3.1,7.1,5.5,9.8,4.3
					c-1.3,0-2.9,0-4.4-0.5c-0.6-0.3-1.4-1-1.3-1.1c3.8,1.4,7.7,1.1,11-1.6c0.8-0.7,1.7-1.8,2-1.8c-0.4,0.6,0.1,0.3-0.2,0.8
					c0.8-1.3-0.4-0.5,0.9-2.3l0.4,0.6c-0.2-1.1,1.4-2.5,1.2-4.2c0.4-0.5,0.4,0.6,0,1.8c0.5-1.4,0.1-1.6,0.3-2.7
					c0.1,0.4,0.3,0.8,0.4,1.2c-0.3-1.3,0.4-2.2,0.5-3c-0.2-0.1-0.5,0.6-0.6-1c0-0.7,0.2-0.4,0.3-0.5c-0.1-0.1-0.5-0.6-0.7-1.6
					c0.1-0.2,0.4,0.6,0.6,0.7c-0.1-0.8-0.4-1.4-0.4-2c-0.6-1.3-0.2,0.2-0.7-0.5c-0.7-2,0.5-0.5,0.6-1.4c1,1.4,1.6,3.7,1.8,4.6
					c-0.2-1.1-0.5-2.2-0.9-3.3c0.3,0.1-0.5-2.3,0.4-0.7c-0.9-3.5-4-6.7-6.9-8.2c0.3,0.3,0.8,0.7,0.6,0.8c-1.4-0.8-1.2-0.9-1.4-1.3
					c-1.1-0.5-1.2,0-2,0c-2.2-1.2-2.6-1-4.6-1.7l0.1,0.4c-1.4-0.5-1.7,0.2-3.2,0c-0.1-0.1,0.5-0.3,1-0.3c-1.4,0.2-1.3-0.3-2.7,0
					c0.3-0.2,0.7-0.4,1.1-0.6c-1.1,0.1-2.7,0.7-2.2,0.1c-1.9,0.8-5.1,2-6.9,3.7l-0.1-0.4c-0.8,1-3.7,3-3.9,4.3H225
					c-0.4,0.7-0.7,1.6-1.1,2.3c-0.6,1-0.8,0.4-0.8,0.5c-1.1,2.3-1.7,4.2-2.2,5.8c0.3,0.5,0,3.1,0.1,5.2
					c-0.6,10.2,7.2,20.1,15.6,22.4c1.2,0.4,3.1,0.4,4.7,0.5c-1.9-0.5-2.1-0.3-3.9-0.9c-1.3-0.6-1.6-1.3-2.5-2.1l0.4,0.7
					c-1.8-0.6-1.1-0.8-2.5-1.3l0.4-0.5c-0.6,0-1.6-1-1.8-1.5h-0.6c-0.8-0.9-1.2-1.6-1.2-2.2l-0.2,0.4c-0.2-0.4-2.8-3.6-1.5-2.8
					c-0.3-0.2-0.6-0.4-0.9-1l0.3-0.3c-0.7-0.8-1.2-1.9-1.2-2.3c0.3,0.5,0.6,0.5,0.8,0.6c-1.6-4.1-1.7-0.2-3-4.1h0.3
					c-0.2-0.3-0.3-0.6-0.5-0.9l0.1-1.1c-1.2-1.4-0.3-5.8-0.2-8.2c0.1-1,1-2,1.6-3.7l-0.4-0.1c0.8-1.3,4.4-5.4,6.1-5.2
					c0.8-1-0.2,0-0.3-0.3c1.8-1.9,2.3-1.3,3.5-1.6c1.3-0.8-1.1,0.3-0.5-0.3c2.2-0.6,1.6-1.3,4.5-1.6c0.3,0.2-0.7,0.3-1,0.5
					c1.9-0.9,5.9-0.7,8.5,0.5c3.1,1.4,6.5,5.6,6.6,9.6h0.1c-0.1,1.6,0.2,3.4-0.3,5.1L252.7,56.4"/>
				<path class="st16" d="M234.3,61.7l-0.1,0.5c0.5,0.7,0.9,1.4,1.5,1.9C235.2,63.2,234.9,62.9,234.3,61.7"/>
				<path class="st16" d="M235.4,61.6c-0.3-0.3-0.4-0.6-0.6-1c0.2,0.6,0.5,1.1,0.8,1.6L235.4,61.6"/>
				<path class="st16" d="M255.9,57.2l-0.1,0.3c-0.2,1.4-0.6,2.8-1.3,4.1C255.2,60.2,255.6,58.7,255.9,57.2"/>
				<path class="st16" d="M239.7,37.2c0.5-0.2,1.2-0.1,1.8-0.2c-0.7,0.1-1.4,0.1-2.1,0.2H239.7"/>
				<path class="st16" d="M222,46.6c0.1,1.1-0.8,1.5,0.2,0.8C222.8,46.1,222,47,222,46.6"/>
				<path class="st16" d="M220.9,51.5c0.2-0.7,0.3-1.1,0.4-1.6C220.6,50.8,220.9,51,220.9,51.5"/>
			</g>
			<g class="st15">
				<path class="st16" d="M283.5,60c0,0,0,8.8-0.1,11.1c-0.1,1.8-0.2,5.8-4.2,5.8s-5-4.6-5.3-6.7c-0.4-2.2-0.4-4.1-0.4-4.9
					c0-2.6,0.1-9.9,6.3-9.9c1.8,0,2.9,0.5,3.7,1V60z M267.7,66.4c0,15.4,8.2,15.4,9.4,15.4c3.4,0,5.6-1.8,6.5-5.1l0.1,4.8
					c1,0,2.1-0.1,3.8-0.1c0.6,0,1.1,0,1.5,0s0.9,0,1.3,0.1c-0.9-1.7-1.5-5.7-1.5-14.2c0-8.3,0-22.3,0.7-26.5
					c-1.9,0.9-3.6,1.5-7.4,1.8c1.5,1.6,1.5,2.4,1.5,9.6c-1-0.3-2.3-0.7-4.6-0.7C269.3,51.6,267.7,60.1,267.7,66.4"/>
				<path class="st16" d="M297.3,63.6c0-4.5,1-8.6,4.8-8.6c4.2,0,4.6,4.7,4.5,8.6H297.3z M312,64.2c0-6.4-1.2-12.7-9.3-12.7
					c-11.1,0-11.1,12.4-11.1,14.9c0,11.1,5,15.4,13.3,15.4c3.7,0,5.5-0.5,6.5-0.8c0-1.9,0.2-3.2,0.5-4.9c-1.1,0.7-2.6,1.6-5.9,1.6
					c-8.5,0-8.6-7.8-8.6-10.4h14.5L312,64.2"/>
				<path class="st16" d="M329.7,66.5c0,5.1-0.9,11.9-7.3,11.9c-0.9,0-1.9-0.1-2.7-0.3c-0.1-1.9-0.1-5.3-0.1-9.3
					c0-4.7,0.5-7.1,0.9-8.4c1.1-3.9,3.7-3.9,4.2-3.9C328.9,56.6,329.7,62.3,329.7,66.5z M314.1,72.5c0,4,0,6.3-0.6,8.1
					c2.2,0.9,5,1.3,8.4,1.3c2.1,0,8.3,0,11.6-6.8c1.6-3.2,2.1-7.4,2.1-10.7c0-1.9-0.2-6.3-1.8-9c-1.5-2.5-4-3.9-6.6-3.9
					c-5.2,0-6.8,4.4-7.6,6.6c0-2.8,0-12.5,0.5-17.4c-3.5,1.6-5.7,1.9-8.1,2.1c2.1,0.8,2.1,4.5,2.1,16.2V72.5"/>
				<path class="st16" d="M346,81.6c-1.1-0.1-1.8-0.2-3.4-0.2c-1.7,0-2.9,0.1-4.2,0.2c0.5-1,0.7-1.5,0.9-5.1
					c0.2-4.9,0.2-17.8-0.1-20.6c-0.2-2.1-0.7-2.4-1.5-2.9c4.5-0.4,5.7-0.7,7.8-1.7c-0.4,2.4-0.5,3.6-0.5,7.3
					C344.9,77.3,344.8,79.3,346,81.6"/>
				<path class="st16" d="M363.5,66.1c-0.1,3.4-0.1,5.8-1.1,7.8c-1.1,2.4-3,3.2-4.5,3.2c-3.3,0-4-2.7-4-5.4c0-5.1,4.6-5.5,6.7-5.5
					L363.5,66.1L363.5,66.1z M348.5,72.9c0,3.4,1,6.9,4.1,8.4c1.3,0.6,2.7,0.6,3.2,0.6c5,0,6.7-3.7,7.8-6c0,2.4,0,3.9,0.1,5.8
					c1,0,1.9-0.1,3.6-0.1c0.9,0,1.8,0.1,2.7,0.1c-0.6-0.9-0.9-1.5-1.1-3.6c-0.1-2.1-0.1-4.1-0.1-7V60c0-4.1-1.1-8.2-9.3-8.2
					c-5.4,0-8.6,1.6-10.2,2.4c0.6,1.2,1.2,2.2,1.7,4.6c2.1-1.8,4.9-2.8,7.8-2.8c4.5,0,4.5,3,4.5,7.3c-1,0-1.9-0.1-3.4-0.1
					C353.1,62.9,348.5,65.5,348.5,72.9"/>
				<path class="st16" d="M394.9,76.2c0,1.8,0,3.8,0.8,5.4c-1.2-0.1-1.9-0.2-4.1-0.2c-1.3,0-2,0.1-3,0.2c0.2-0.7,0.3-1,0.4-1.9
					c0.1-1.2,0.2-5.5,0.2-6.9v-5.9c0-2.5,0-6.3-0.1-7.6c-0.1-0.9-0.4-3.4-3.5-3.4s-4.1,2.3-4.5,4.1c-0.4,1.9-0.4,4-0.4,12.1
					c0,7,0,7.6,0.6,9.6c-0.9-0.1-2.1-0.2-3.7-0.2c-1.3,0-2.2,0-3.3,0.2c0.4-0.9,0.6-1.3,0.7-4.4c0.1-3,0.3-17.7-0.1-21.2
					c-0.2-2.1-0.8-2.6-1.4-3.2c4.4-0.2,5.8-0.9,7.2-1.6V57c0.6-1.7,2-5.5,7.5-5.5c6.8,0,6.9,5,6.9,8.2L394.9,76.2"/>
				<path class="st16" d="M346.5,43.5L342,48l-4.5-4.5L342,39L346.5,43.5"/>
			</g>
		</g>
		<g>
			<path class="st16" d="M441,65.3c0,1.3,0,2.3,0,3.1c0,0.8,0.1,0.9,0.2,1.2c-0.2,0-0.5-0.1-0.9-0.1s-0.6,0-0.9,0.1
				c0.1-0.3,0.2-0.5,0.2-1.2c0-1.2,0-2.1,0-3.1v-1.5c0-1,0-1.2,0-1.6c-0.4,0-0.8,0-1.2,0c-0.7,0-0.8,0.3-1,0.4c0-0.3,0-0.5,0-0.7
				c0-0.3,0-0.5,0-0.7c0.2,0,0.4,0,0.8,0.1c0.4,0,0.9,0,1.7,0c0.2,0,2.4,0,3.2-0.1c0,0.2,0,0.4,0,0.7s0,0.4,0,0.7
				c-0.1-0.2-0.3-0.3-1-0.3s-0.8,0-1.2,0v1.6L441,65.3L441,65.3z"/>
			<path class="st16" d="M448.1,67.9c0,1,0.1,1.3,0.2,1.7c-0.3,0-0.5-0.1-0.8-0.1c-0.4,0-0.6,0-0.9,0.1c0.1-0.2,0.1-0.3,0.2-0.6
				c0-0.6,0-1.4,0-3.2c0-1.2,0-1.8-0.8-1.8c-0.7,0-0.9,0.5-1,0.9c-0.1,0.5-0.1,1.2-0.1,3c0,1.2,0,1.4,0.2,1.8
				c-0.2,0-0.4-0.1-0.7-0.1c-0.4,0-0.6,0-0.9,0.1c0.1-0.1,0.1-0.2,0.1-0.5c0-0.2,0-0.3,0.1-1.6v-4.2c0-0.3,0-1.3-0.2-1.8
				c-0.1-0.2-0.2-0.3-0.3-0.3c0.9-0.1,1.3-0.3,1.7-0.5c-0.1,0.6-0.1,0.9-0.1,1.8v1.8c0.1-0.4,0.5-1.3,1.7-1.3c0.4,0,0.8,0.1,1.1,0.3
				c0.4,0.3,0.5,0.8,0.5,1.7L448.1,67.9z"/>
			<path class="st16" d="M453.6,66.5h-3.2c0,0.6,0,2.3,1.9,2.3c0.7,0,1-0.2,1.3-0.4c-0.1,0.4-0.1,0.6-0.1,1.1
				c-0.2,0.1-0.6,0.2-1.4,0.2c-1.8,0-2.9-1-2.9-3.4c0-0.6,0-3.3,2.4-3.3c1.8,0,2.1,1.4,2.1,2.8L453.6,66.5z M452.5,65.6
				c0-0.9,0-1.9-1-1.9c-0.9,0-1.1,0.9-1.1,1.9H452.5z"/>
			<path class="st16" d="M462.1,67.2c0,1,0,1.3,0,1.6c0,0.4,0.1,0.6,0.3,0.7c-0.3,0-0.5,0-0.7,0c-0.3,0-0.5,0-0.8,0v-1.1
				c-0.2,0.4-0.6,1.2-1.7,1.2c-0.2,0-0.5,0-0.8-0.1c-0.5-0.2-0.7-0.6-0.7-1.4v-2.7c0-1.1,0-1.3,0-1.6c-0.1-0.5-0.2-0.5-0.4-0.6
				c1.1,0,1.5-0.2,1.8-0.3c-0.1,0.3-0.1,0.5-0.1,1.1v2.7c0,0.9,0,1.1,0,1.3c0,0.2,0.1,0.7,0.8,0.7c1,0,1.1-1,1.1-1.5
				c0.1-0.7,0.1-1.5,0.1-2.8c0-1-0.1-1.1-0.3-1.3c0.9,0,1.2-0.1,1.7-0.3c-0.1,0.6-0.1,0.8-0.1,2.7v1.7H462.1z"/>
			<path class="st16" d="M467.8,68.4c0,0.4,0,0.8,0.2,1.2c-0.3,0-0.4-0.1-0.9-0.1c-0.3,0-0.4,0-0.7,0.1c0-0.2,0.1-0.2,0.1-0.4
				c0-0.3,0.1-1.2,0.1-1.5v-1.3c0-0.6,0-1.4,0-1.7c0-0.2-0.1-0.8-0.8-0.8c-0.7,0-0.9,0.5-1,0.9s-0.1,0.9-0.1,2.7
				c0,1.5,0,1.7,0.1,2.1c-0.2,0-0.5,0-0.8,0s-0.5,0-0.7,0c0.1-0.2,0.1-0.3,0.2-1c0-0.7,0.1-3.9,0-4.7c-0.1-0.5-0.2-0.6-0.3-0.7
				c1,0,1.3-0.2,1.6-0.4v1.3c0.1-0.4,0.4-1.2,1.6-1.2c1.5,0,1.5,1.1,1.5,1.8v3.7H467.8z"/>
			<path class="st16" d="M470.7,69.6c-0.2,0-0.4-0.1-0.8-0.1s-0.6,0-0.9,0.1c0.1-0.2,0.2-0.3,0.2-1.1c0-1.1,0.1-3.9,0-4.5
				c-0.1-0.5-0.2-0.5-0.3-0.6c1-0.1,1.3-0.2,1.7-0.4c-0.1,0.5-0.1,0.8-0.1,1.6C470.5,68.7,470.5,69.1,470.7,69.6z M469.8,62.4
				c-0.4,0-0.7-0.3-0.7-0.8c0-0.3,0.1-0.8,0.7-0.8c0.5,0,0.6,0.4,0.6,0.8C470.5,62.1,470.4,62.4,469.8,62.4z"/>
			<path class="st16" d="M475.4,66.6c-0.3,1.1-0.3,1.3-0.7,3c-0.3,0-0.5-0.1-0.8-0.1c-0.4,0-0.6,0-0.9,0.1c-0.1-0.4-0.1-0.6-0.2-1.2
				l-0.8-3.2c-0.2-0.7-0.4-1.7-0.7-2.2c0.1,0,0.3,0,0.4,0s0.3,0,0.4,0c0.4,0,0.7,0,1-0.1c0,0.1,0,0.2,0,0.3c0,0.5,0.3,1.8,0.7,4
				l0.3,1.2l0.3-1.2c0.4-1.5,0.9-3.5,0.9-4c0-0.2,0-0.3-0.1-0.3c0.1,0,0.2,0,0.3,0c0.1,0,0.2,0,0.4,0c0.4,0,0.6,0,0.8-0.1
				c-0.3,0.6-0.4,0.9-0.7,1.9L475.4,66.6z"/>
			<path class="st16" d="M481.1,66.5h-3.2c0,0.6,0,2.3,1.9,2.3c0.7,0,1-0.2,1.3-0.4c-0.1,0.4-0.1,0.6-0.1,1.1
				c-0.2,0.1-0.6,0.2-1.4,0.2c-1.8,0-2.9-1-2.9-3.4c0-0.6,0-3.3,2.4-3.3c1.8,0,2.1,1.4,2.1,2.8L481.1,66.5z M480,65.6
				c0-0.9,0-1.9-1-1.9c-0.9,0-1.1,0.9-1.1,1.9H480z"/>
			<path class="st16" d="M482.3,65.9c0-2.1,0-2.5-0.5-2.7c0.5,0,1,0,1.7-0.3l-0.1,1.8c0.2-0.4,0.7-1.6,2.1-1.8
				c-0.1,0.4-0.2,0.9-0.2,1.3c-0.1,0-0.2,0-0.3,0c-0.1,0-1.3,0-1.5,1.5c-0.1,0.6-0.1,2-0.1,2.5s0,1.1,0.2,1.5
				c-0.2,0-0.4-0.1-0.7-0.1c-0.4,0-0.6,0-0.8,0.1c0.1-0.2,0.1-0.3,0.1-0.6l0.1-1.6L482.3,65.9L482.3,65.9z"/>
			<path class="st16" d="M489.7,63.2c-0.1,0.3-0.2,0.5-0.3,1.1c-0.4-0.5-1.1-0.5-1.2-0.5c-0.8,0-1,0.5-1,0.9c0,0.5,0.4,0.7,1,1.1
				c0.9,0.5,1.6,0.8,1.6,1.9c0,1.4-1,2.1-2.6,2.1c-0.9,0-1.3-0.2-1.5-0.2c0.2-0.4,0.3-0.6,0.3-1.2c0.2,0.2,0.5,0.5,1.3,0.5
				s1.2-0.4,1.2-1c0-0.5-0.2-0.6-1.2-1.2c-0.6-0.3-1.3-0.8-1.3-1.8c0-1,0.7-1.9,2.3-1.9C488.6,62.9,489.1,63,489.7,63.2z"/>
			<path class="st16" d="M493.1,65.5c0.3,0,0.5,0,0.7,0c0-0.9,0-1.6-1-1.6c-0.6,0-1.2,0.2-1.7,0.6c-0.1-0.5-0.2-0.7-0.4-1
				c0.3-0.2,1-0.5,2.2-0.5c1.8,0,2,0.9,2,1.8v2.4c0,0.6,0,1.1,0,1.5c0,0.5,0.1,0.6,0.2,0.8c-0.2,0-0.4,0-0.6,0c-0.4,0-0.6,0-0.8,0
				c0-0.4,0-0.7,0-1.3c-0.2,0.5-0.6,1.3-1.7,1.3c-0.1,0-0.4,0-0.7-0.1c-0.7-0.3-0.9-1.1-0.9-1.8C490.6,66.1,491.6,65.5,493.1,65.5z
				 M493.3,66.2c-0.5,0-1.5,0.1-1.5,1.2c0,0.6,0.2,1.2,0.9,1.2c0.3,0,0.7-0.2,1-0.7c0.2-0.4,0.2-0.9,0.2-1.7H493.3z"/>
			<path class="st16" d="M497.7,66c0,0.9,0,1.7,0,2.4c0,0.8,0.1,0.9,0.2,1.2c-0.2,0-0.4-0.1-0.8-0.1s-0.6,0-0.9,0.1
				c0.1-0.2,0.1-0.3,0.2-0.6c0-0.4,0-1.1,0.1-2.3v-2.1c0-1.5,0-2.1-0.1-2.7c-0.1-0.6-0.2-0.7-0.4-0.9c0.8-0.1,1.2-0.2,1.8-0.5
				c-0.1,0.7-0.1,0.8-0.1,3.2L497.7,66L497.7,66z"/>
			<path class="st16" d="M504.4,69.7c-2.2,0-2.4-1.9-2.4-3.3s0.3-3.4,2.5-3.4c2.1,0,2.4,1.7,2.4,3.2
				C506.8,67.8,506.5,69.7,504.4,69.7z M504.4,63.7c-1,0-1.2,1.1-1.2,2.7c0,1,0.1,2.4,1.2,2.4c0.8,0,1.1-0.7,1.1-2.7
				C505.5,64.4,505.1,63.7,504.4,63.7z"/>
			<path class="st16" d="M509.1,70.6c0,1,0.1,1.2,0.2,1.5c-0.1,0-0.3,0-0.4-0.1c-0.1,0-0.3,0-0.5,0c-0.4,0-0.5,0-0.8,0.1
				c0.1-0.1,0.2-0.3,0.2-3.1v-1.7v-1.6c0-1.9-0.1-2.2-0.4-2.5c1.1,0,1.4-0.2,1.7-0.4v1.5c0.2-0.5,0.6-1.4,1.7-1.4
				c1.9,0,1.9,2.3,1.9,2.8c0,1.4-0.3,3.8-3,3.8c-0.2,0-0.3,0-0.7,0L509.1,70.6L509.1,70.6z M509.1,68.8c0.1,0,0.3,0.1,0.6,0.1
				c1.6,0,1.8-1.4,1.8-2.5c0-0.6,0-2.4-1.1-2.4c-0.5,0-0.9,0.4-1.1,1.1c-0.2,0.6-0.2,1.8-0.2,2.4L509.1,68.8L509.1,68.8z"/>
			<path class="st16" d="M518.1,66.5h-3.2c0,0.6,0,2.3,1.9,2.3c0.7,0,1-0.2,1.3-0.4c-0.1,0.4-0.1,0.6-0.1,1.1
				c-0.2,0.1-0.6,0.2-1.4,0.2c-1.8,0-2.9-1-2.9-3.4c0-0.6,0-3.3,2.4-3.3c1.8,0,2.1,1.4,2.1,2.8L518.1,66.5z M516.9,65.6
				c0-0.9,0-1.9-1-1.9c-0.9,0-1.1,0.9-1.1,1.9H516.9z"/>
			<path class="st16" d="M519.2,65.9c0-2.1,0-2.5-0.5-2.7c0.5,0,1,0,1.7-0.3l-0.1,1.8c0.2-0.4,0.7-1.6,2.1-1.8
				c-0.1,0.4-0.2,0.9-0.2,1.3c-0.1,0-0.2,0-0.3,0s-1.3,0-1.5,1.5c-0.1,0.6-0.1,2-0.1,2.5s0,1.1,0.2,1.5c-0.2,0-0.4-0.1-0.7-0.1
				c-0.4,0-0.6,0-0.8,0.1c0.1-0.2,0.1-0.3,0.1-0.6l0.1-1.6V65.9z"/>
			<path class="st16" d="M525.1,65.5c0.3,0,0.5,0,0.7,0c0-0.9,0-1.6-1-1.6c-0.6,0-1.2,0.2-1.7,0.6c-0.1-0.5-0.2-0.7-0.4-1
				c0.3-0.2,1-0.5,2.2-0.5c1.8,0,2,0.9,2,1.8v2.4c0,0.6,0,1.1,0,1.5c0,0.5,0.1,0.6,0.2,0.8c-0.2,0-0.4,0-0.6,0c-0.4,0-0.6,0-0.8,0
				c0-0.4,0-0.7,0-1.3c-0.2,0.5-0.6,1.3-1.7,1.3c-0.1,0-0.4,0-0.7-0.1c-0.7-0.3-0.9-1.1-0.9-1.8C522.6,66.1,523.6,65.5,525.1,65.5z
				 M525.2,66.2c-0.5,0-1.5,0.1-1.5,1.2c0,0.6,0.2,1.2,0.9,1.2c0.3,0,0.7-0.2,1-0.7c0.2-0.4,0.2-0.9,0.2-1.7H525.2z"/>
			<path class="st16" d="M529.8,67.4c0,1.1,0.2,1.3,0.7,1.3c0.2,0,0.3,0,0.4-0.1c0,0.2-0.1,0.4-0.1,0.7v0.3c-0.2,0-0.4,0-0.7,0
				c-1.5,0-1.6-0.8-1.6-2.1v-3.3c-0.3,0-0.6,0-0.7,0c0-0.2,0-0.3,0-0.5c0-0.1,0-0.3,0-0.4c0.2,0,0.5,0.1,0.8,0c0-0.4,0-1.4-0.1-1.8
				c0.7-0.1,1-0.2,1.4-0.4c0,0.3-0.1,0.6-0.1,2.1c0.3,0,0.6,0,0.9,0c0,0.2,0,0.4,0,0.6c0,0.1,0,0.2,0,0.3c-0.3,0-0.6-0.1-0.9-0.1
				L529.8,67.4z"/>
			<path class="st16" d="M533.2,69.6c-0.2,0-0.4-0.1-0.8-0.1c-0.4,0-0.6,0-0.9,0.1c0.1-0.2,0.2-0.3,0.2-1.1c0-1.1,0.1-3.9,0-4.5
				c-0.1-0.5-0.2-0.5-0.3-0.6c1-0.1,1.3-0.2,1.7-0.4c-0.1,0.5-0.1,0.8-0.1,1.6C532.9,68.7,532.9,69.1,533.2,69.6z M532.3,62.4
				c-0.4,0-0.7-0.3-0.7-0.8c0-0.3,0.1-0.8,0.7-0.8c0.5,0,0.6,0.4,0.6,0.8C533,62.1,532.9,62.4,532.3,62.4z"/>
			<path class="st16" d="M538.8,68.4c0,0.4,0,0.8,0.2,1.2c-0.3,0-0.4-0.1-0.9-0.1c-0.3,0-0.4,0-0.7,0.1c0-0.2,0.1-0.2,0.1-0.4
				c0-0.3,0.1-1.2,0.1-1.5v-1.3c0-0.6,0-1.4,0-1.7c0-0.2-0.1-0.8-0.8-0.8s-0.9,0.5-1,0.9s-0.1,0.9-0.1,2.7c0,1.5,0,1.7,0.1,2.1
				c-0.2,0-0.5,0-0.8,0s-0.5,0-0.7,0c0.1-0.2,0.1-0.3,0.2-1c0-0.7,0.1-3.9,0-4.7c-0.1-0.5-0.2-0.6-0.3-0.7c1,0,1.3-0.2,1.6-0.4v1.3
				c0.1-0.4,0.4-1.2,1.6-1.2c1.5,0,1.5,1.1,1.5,1.8L538.8,68.4L538.8,68.4z"/>
			<path class="st16" d="M543.6,63.2l0.2,0.1c0.7,0,1.2-0.1,1.4-0.2c0,0.3,0,0.5,0,0.8c-0.2-0.1-0.4-0.1-1-0.1
				c0.1,0.2,0.3,0.5,0.3,1.3c0,1.2-0.7,2.1-2.1,2.1c-0.1,0-0.3,0-0.6-0.1h-0.2c0,0-0.6,0.2-0.6,0.6s0.4,0.5,0.6,0.5
				c0.2,0,0.3,0,1.1,0.1c1.3,0.1,2.5,0.2,2.5,1.7c0,1.7-1.4,2.2-3,2.2c-0.3,0-0.7,0-1-0.1c-0.7-0.2-1.4-0.6-1.4-1.3
				c0-0.8,0.9-1.2,1.3-1.4c-0.4-0.1-1.1-0.3-1.1-1.1c0-0.8,0.9-1.2,1.1-1.3c-0.2-0.1-1-0.5-1-1.8c0-1.8,1.3-2.2,2.3-2.2
				C542.8,63,543.3,63.1,543.6,63.2z M540.9,70.5c0,0.8,0.7,1.1,1.6,1.1c1.1,0,1.8-0.5,1.8-1.1c0-0.8-1-0.9-2.7-1
				C541.5,69.4,540.9,69.8,540.9,70.5z M542.3,66.5c1,0,1-0.9,1-1.4c0-0.8-0.2-1.4-1-1.4s-1,0.7-1,1.5
				C541.3,65.5,541.3,66.5,542.3,66.5z"/>
			<path class="st16" d="M552.4,63.2c-0.1,0.3-0.2,0.5-0.3,1.1c-0.4-0.5-1.1-0.5-1.2-0.5c-0.8,0-1,0.5-1,0.9c0,0.5,0.4,0.7,1,1.1
				c0.9,0.5,1.6,0.8,1.6,1.9c0,1.4-1,2.1-2.6,2.1c-0.9,0-1.3-0.2-1.5-0.2c0.2-0.4,0.3-0.6,0.3-1.2c0.2,0.2,0.5,0.5,1.3,0.5
				s1.2-0.4,1.2-1c0-0.5-0.2-0.6-1.2-1.2c-0.6-0.3-1.3-0.8-1.3-1.8c0-1,0.7-1.9,2.3-1.9C551.3,62.9,551.9,63,552.4,63.2z"/>
			<path class="st16" d="M555.7,67.2c0.2-1,0.7-3,0.7-3.6c0-0.2,0-0.3-0.1-0.5c0.1,0,0.2,0,0.3,0s0.3,0,0.4,0c0.3,0,0.6,0,0.9-0.1
				c-0.4,0.9-0.6,1.5-1.3,4.1c-0.6,2.3-0.6,2.4-0.7,2.8c-0.2,0.7-0.6,2-2.5,2c-0.3,0-0.4,0-0.6-0.1c0.2-0.4,0.2-0.7,0.3-1.1
				c0.2,0.1,0.3,0.2,0.6,0.2c1.1,0,1.3-0.9,1.4-1.4c-0.1,0-0.3,0-0.4,0c-0.1,0-0.3,0-0.4,0c-0.1-0.9-0.9-4.4-1.3-5.6
				c-0.2-0.5-0.2-0.7-0.4-0.9c0.2,0,0.3,0,0.4,0c0.1,0,0.3,0,0.5,0c0.5,0,0.6,0,0.9,0c0,0.1-0.1,0.2-0.1,0.4c0,0.3,0.4,2.4,1,5.1
				L555.7,67.2z"/>
			<path class="st16" d="M562.2,63.2c-0.1,0.3-0.2,0.5-0.3,1.1c-0.4-0.5-1.1-0.5-1.2-0.5c-0.8,0-1,0.5-1,0.9c0,0.5,0.4,0.7,1,1.1
				c0.9,0.5,1.6,0.8,1.6,1.9c0,1.4-1,2.1-2.6,2.1c-0.9,0-1.3-0.2-1.5-0.2c0.2-0.4,0.3-0.6,0.3-1.2c0.2,0.2,0.5,0.5,1.3,0.5
				s1.2-0.4,1.2-1c0-0.5-0.2-0.6-1.2-1.2c-0.6-0.3-1.3-0.8-1.3-1.8c0-1,0.7-1.9,2.3-1.9C561,62.9,561.6,63,562.2,63.2z"/>
			<path class="st16" d="M564.5,67.4c0,1.1,0.2,1.3,0.7,1.3c0.2,0,0.3,0,0.4-0.1c0,0.2-0.1,0.4-0.1,0.7v0.3c-0.2,0-0.4,0-0.7,0
				c-1.5,0-1.6-0.8-1.6-2.1v-3.3c-0.3,0-0.6,0-0.7,0c0-0.2,0-0.3,0-0.5c0-0.1,0-0.3,0-0.4c0.2,0,0.5,0.1,0.8,0c0-0.4,0-1.4-0.1-1.8
				c0.7-0.1,1-0.2,1.4-0.4c0,0.3-0.1,0.6-0.1,2.1c0.3,0,0.6,0,0.9,0c0,0.2,0,0.4,0,0.6c0,0.1,0,0.2,0,0.3c-0.3,0-0.6-0.1-0.9-0.1
				L564.5,67.4z"/>
			<path class="st16" d="M570.6,66.5h-3.2c0,0.6,0,2.3,1.9,2.3c0.7,0,1-0.2,1.3-0.4c-0.1,0.4-0.1,0.6-0.1,1.1
				c-0.2,0.1-0.6,0.2-1.4,0.2c-1.8,0-2.9-1-2.9-3.4c0-0.6,0-3.3,2.4-3.3c1.8,0,2.1,1.4,2.1,2.8L570.6,66.5z M569.4,65.6
				c0-0.9,0-1.9-1-1.9c-0.9,0-1.1,0.9-1.1,1.9H569.4z"/>
			<path class="st16" d="M571.6,66c0-1.4,0-1.6-0.1-2c-0.1-0.5-0.3-0.6-0.4-0.7c1,0,1.4-0.2,1.7-0.3v1.3c0.2-0.4,0.5-1.2,1.7-1.2
				c1.1,0,1.3,0.9,1.4,1.2c0.2-0.4,0.6-1.2,1.8-1.2s1.4,0.7,1.4,1.7v1.7c0,1.9,0,2.9,0.2,3.3c-0.2,0-0.4-0.1-0.8-0.1
				c-0.3,0-0.5,0-0.8,0.1c0.1-0.2,0.1-0.3,0.2-0.9v-1v-0.8v-1.7c0-0.7-0.1-1.2-0.9-1.2c-0.5,0-0.8,0.4-0.9,0.7
				c-0.1,0.4-0.1,1.1-0.1,1.8V68c0,0.9,0,1.4,0.2,1.6c-0.3,0-0.4-0.1-0.8-0.1c-0.4,0-0.5,0-0.8,0.1c0.1-0.2,0.1-0.2,0.1-0.4
				c0-0.3,0.1-0.8,0.1-1.5v-1.3c0-1.7-0.1-2.3-0.9-2.3c-1,0-1,1.1-1,1.9v1.3c0,1.3,0,2,0.1,2.3c-0.2,0-0.4-0.1-0.7-0.1
				c-0.4,0-0.6,0-0.8,0.1c0.1-0.2,0.1-0.3,0.2-1v-1.5V66H571.6z"/>
		</g>
	</g>
</g>
</svg>
