<?xml version="1.0" encoding="utf-8"?>
<!-- Generator: Adobe Illustrator 26.5.0, SVG Export Plug-In . SVG Version: 6.00 Build 0)  -->
<svg version="1.1" id="Calque_1" xmlns="http://www.w3.org/2000/svg" xmlns:xlink="http://www.w3.org/1999/xlink" x="0px" y="0px"
	 viewBox="0 0 1920 1200" style="enable-background:new 0 0 1920 1200;" xml:space="preserve">
<style type="text/css">
	.st0{clip-path:url(#SVGID_00000065074104162413374910000015951594879185558420_);}
	.st1{fill:#05475C;}
	.st2{opacity:0.34;fill:url(#SVGID_00000070835344546363758320000004922004805364496515_);enable-background:new    ;}
	.st3{opacity:0.34;fill:url(#SVGID_00000171684858199183266440000012100891430540008326_);enable-background:new    ;}
	.st4{opacity:0.12;fill:url(#SVGID_00000087391862983357174150000018361980476114602647_);enable-background:new    ;}
	.st5{opacity:0.12;fill:url(#SVGID_00000111187862824375936940000007127089748928671405_);enable-background:new    ;}
	.st6{opacity:0.12;fill:url(#SVGID_00000083798997968272100310000014049499751695095465_);enable-background:new    ;}
	.st7{opacity:0.12;fill:url(#SVGID_00000156585829209148726290000004509819221145964686_);enable-background:new    ;}
	.st8{opacity:0.12;fill:url(#SVGID_00000176724556675303234310000013606318668749529526_);enable-background:new    ;}
	.st9{opacity:0.12;fill:url(#SVGID_00000152234777063791430590000015264118713347148475_);enable-background:new    ;}
	.st10{opacity:0.34;fill:url(#SVGID_00000091719156498867218980000005208383293451925672_);enable-background:new    ;}
	.st11{opacity:0.34;fill:url(#SVGID_00000147933170416652227850000016636134085050613921_);enable-background:new    ;}
	.st12{opacity:0.34;fill:url(#SVGID_00000001644403943464178820000009573642853013840558_);enable-background:new    ;}
	.st13{opacity:0.34;fill:url(#SVGID_00000018224809744137730610000014689810693575391884_);enable-background:new    ;}
	.st14{opacity:0.34;fill:url(#SVGID_00000168109466102390837590000007477540404506869673_);enable-background:new    ;}
	.st15{opacity:0.34;fill:url(#SVGID_00000006703979037655960060000006568832402006726585_);enable-background:new    ;}
	.st16{opacity:0.34;fill:url(#SVGID_00000057125897026881629800000007092863319144653988_);enable-background:new    ;}
	.st17{opacity:0.34;fill:url(#SVGID_00000044869366076564813680000003647737001872748971_);enable-background:new    ;}
	.st18{opacity:0.71;}
	.st19{fill:#FFFFFF;}
</style>
<g>
	<defs>
		<rect id="SVGID_1_" width="1920" height="1200"/>
	</defs>
	<clipPath id="SVGID_00000040538782132177026800000015752653737253854641_">
		<use xlink:href="#SVGID_1_"  style="overflow:visible;"/>
	</clipPath>
	<g id="Calque_1-2" style="clip-path:url(#SVGID_00000040538782132177026800000015752653737253854641_);">
		<rect x="-17.5" y="-15.7" class="st1" width="1955" height="1231.4"/>
		
			<radialGradient id="SVGID_00000002380833893221793530000018175944972787257216_" cx="8144.6543" cy="1583.5664" r="1365.7622" gradientTransform="matrix(0.1462 0.4782 -0.4782 0.1462 -388.3472 -3864.1807)" gradientUnits="userSpaceOnUse">
			<stop  offset="0" style="stop-color:#18F5B0"/>
			<stop  offset="1" style="stop-color:#05475C;stop-opacity:0"/>
		</radialGradient>
		
			<circle style="opacity:0.34;fill:url(#SVGID_00000002380833893221793530000018175944972787257216_);enable-background:new    ;" cx="45.1" cy="261.7" r="682.7"/>
		
			<radialGradient id="SVGID_00000054986088078599415800000005757005045346872466_" cx="1493.9199" cy="10546.2314" r="1365.4" gradientTransform="matrix(0.5 0 0 0.5 213.04 -4231.2158)" gradientUnits="userSpaceOnUse">
			<stop  offset="0" style="stop-color:#18F5B0"/>
			<stop  offset="1" style="stop-color:#05475C;stop-opacity:0"/>
		</radialGradient>
		
			<circle style="opacity:0.34;fill:url(#SVGID_00000054986088078599415800000005757005045346872466_);enable-background:new    ;" cx="960" cy="1041.9" r="682.7"/>
		
			<linearGradient id="SVGID_00000065753801038983999080000017089825768413934754_" gradientUnits="userSpaceOnUse" x1="-1173.1099" y1="2177.5708" x2="-732.9133" y2="2177.5708" gradientTransform="matrix(0.9911 0.1333 -0.1333 0.9911 1405.451 -1854.8167)">
			<stop  offset="0" style="stop-color:#18F5B0"/>
			<stop  offset="1" style="stop-color:#05475C;stop-opacity:0"/>
		</linearGradient>
		
			<polygon style="opacity:0.12;fill:url(#SVGID_00000065753801038983999080000017089825768413934754_);enable-background:new    ;" points="
			353.6,467.5 -86.7,438.8 129.3,-126.4 300.7,-79.7 		"/>
		
			<linearGradient id="SVGID_00000109711015838913028050000011147455150562598019_" gradientUnits="userSpaceOnUse" x1="-1121.6174" y1="-501.0072" x2="-569.8361" y2="-501.0072" gradientTransform="matrix(1.727786e-02 -0.9999 0.9999 1.727786e-02 589.7905 -738.1588)">
			<stop  offset="0" style="stop-color:#18F5B0"/>
			<stop  offset="1" style="stop-color:#05475C;stop-opacity:0"/>
		</linearGradient>
		
			<polygon style="opacity:0.12;fill:url(#SVGID_00000109711015838913028050000011147455150562598019_);enable-background:new    ;" points="
			441.5,-170.8 104.9,169.5 -42.5,372.7 -189.4,115.1 -285.2,-83.5 -36.9,-173.3 		"/>
		
			<linearGradient id="SVGID_00000036230607702744302860000014759952699911743911_" gradientUnits="userSpaceOnUse" x1="-1764.3007" y1="1377.6167" x2="-1095.9279" y2="1377.6167" gradientTransform="matrix(-0.9662 0.258 -0.258 -0.9662 -746.8915 1827.4111)">
			<stop  offset="0" style="stop-color:#AABDCB"/>
			<stop  offset="1" style="stop-color:#05475C;stop-opacity:0"/>
		</linearGradient>
		
			<polygon style="opacity:0.12;fill:url(#SVGID_00000036230607702744302860000014759952699911743911_);enable-background:new    ;" points="
			635.2,164.5 443.6,287.9 -54.8,171.2 361.6,-98.7 		"/>
		
			<linearGradient id="SVGID_00000141444328096443981990000005482508714798179257_" gradientUnits="userSpaceOnUse" x1="-2707.2556" y1="-4029.6541" x2="-1989.3955" y2="-4029.6541" gradientTransform="matrix(-0.6594 0.1189 -3.673066e-02 -0.9892 -1398.0803 -3416.4514)">
			<stop  offset="0" style="stop-color:#18F5B0"/>
			<stop  offset="1" style="stop-color:#05475C;stop-opacity:0"/>
		</linearGradient>
		
			<polygon style="opacity:0.12;fill:url(#SVGID_00000141444328096443981990000005482508714798179257_);enable-background:new    ;" points="
			284.8,346.4 69,514.9 108.7,141.5 527.4,72.7 		"/>
		
			<linearGradient id="SVGID_00000071550175426948484750000015707978144573624224_" gradientUnits="userSpaceOnUse" x1="205.3945" y1="2426.8115" x2="597.8238" y2="2426.8115" gradientTransform="matrix(0.9995 -3.245742e-02 3.245742e-02 0.9995 -348.9919 -2308.2866)">
			<stop  offset="0" style="stop-color:#18F5B0"/>
			<stop  offset="1" style="stop-color:#05475C;stop-opacity:0"/>
		</linearGradient>
		
			<polygon style="opacity:0.12;fill:url(#SVGID_00000071550175426948484750000015707978144573624224_);enable-background:new    ;" points="
			263,-47.8 337,397 -56.5,370.4 215.5,-198 		"/>
		
			<linearGradient id="SVGID_00000010304921573113459250000006128544401401358471_" gradientUnits="userSpaceOnUse" x1="5086.4531" y1="-1053.6417" x2="5508.793" y2="-1053.6417" gradientTransform="matrix(0.4114 0.9115 -0.9115 0.4114 -3147.1233 -4226.5303)">
			<stop  offset="0" style="stop-color:#18F5B0"/>
			<stop  offset="1" style="stop-color:#05475C;stop-opacity:0"/>
		</linearGradient>
		
			<polygon style="opacity:0.12;fill:url(#SVGID_00000010304921573113459250000006128544401401358471_);enable-background:new    ;" points="
			-98,441.2 -146.2,121.4 82.9,-103.8 		"/>
		<g>
			
				<radialGradient id="SVGID_00000073697866423393436750000010728081170767408020_" cx="3339.8933" cy="-3714.3906" r="258.1657" gradientTransform="matrix(0.8857 0.4642 0.4642 -0.8857 -367.6949 -3909.3604)" gradientUnits="userSpaceOnUse">
				<stop  offset="0" style="stop-color:#18F5B0"/>
				<stop  offset="1" style="stop-color:#05475C;stop-opacity:0"/>
			</radialGradient>
			
				<circle style="opacity:0.34;fill:url(#SVGID_00000073697866423393436750000010728081170767408020_);enable-background:new    ;" cx="866.2" cy="931" r="257.8"/>
			
				<radialGradient id="SVGID_00000018944305940693666620000008852959553022812317_" cx="3315.4258" cy="-3707.3438" r="258.161" gradientTransform="matrix(0.8857 0.4642 0.4642 -0.8857 -367.6949 -3909.3604)" gradientUnits="userSpaceOnUse">
				<stop  offset="0" style="stop-color:#DAC9BA"/>
				<stop  offset="1" style="stop-color:#05475C;stop-opacity:0"/>
			</radialGradient>
			
				<circle style="opacity:0.34;fill:url(#SVGID_00000018944305940693666620000008852959553022812317_);enable-background:new    ;" cx="847.8" cy="913.4" r="257.8"/>
			
				<linearGradient id="SVGID_00000151503644474427109920000007564396598841463443_" gradientUnits="userSpaceOnUse" x1="2119.6318" y1="-2647.9558" x2="2381.9282" y2="-2647.9558" gradientTransform="matrix(0.7966 0.6045 0.6045 -0.7966 666.9216 -2564.9436)">
				<stop  offset="0" style="stop-color:#AABDCB"/>
				<stop  offset="1" style="stop-color:#05475C;stop-opacity:0"/>
			</linearGradient>
			
				<polygon style="opacity:0.34;fill:url(#SVGID_00000151503644474427109920000007564396598841463443_);enable-background:new    ;" points="
				822.4,996 687.7,915 899.5,795.2 962.4,986.9 			"/>
			
				<linearGradient id="SVGID_00000056399865699054554080000008543638550805136823_" gradientUnits="userSpaceOnUse" x1="2178.7817" y1="-2734.415" x2="2452.2495" y2="-2734.415" gradientTransform="matrix(0.7966 0.6045 0.6045 -0.7966 666.9216 -2564.9436)">
				<stop  offset="0" style="stop-color:#AABDCB"/>
				<stop  offset="1" style="stop-color:#05475C;stop-opacity:0"/>
			</linearGradient>
			
				<polygon style="opacity:0.34;fill:url(#SVGID_00000056399865699054554080000008543638550805136823_);enable-background:new    ;" points="
				790.7,877.1 899.5,795.2 958.4,1108.5 801.3,1152 672.2,1120.3 			"/>
			
				<linearGradient id="SVGID_00000044886570092089911710000010212623538784268952_" gradientUnits="userSpaceOnUse" x1="-4508.7197" y1="-2701.6401" x2="-4312.645" y2="-2701.6401" gradientTransform="matrix(0.5032 -0.8642 -0.8642 -0.5032 627.9726 -4229.6562)">
				<stop  offset="0" style="stop-color:#AABDCB"/>
				<stop  offset="1" style="stop-color:#05475C;stop-opacity:0"/>
			</linearGradient>
			
				<polygon style="opacity:0.34;fill:url(#SVGID_00000044886570092089911710000010212623538784268952_);enable-background:new    ;" points="
				904.2,937.3 818.2,1098.4 687.7,915 598.3,905 695.2,851.5 720.8,814.8 			"/>
			
				<linearGradient id="SVGID_00000039128561529069679370000015832741477713666229_" gradientUnits="userSpaceOnUse" x1="2186.1372" y1="3862.2742" x2="2493.8665" y2="3862.2742" gradientTransform="matrix(-0.4642 0.8857 0.8857 0.4642 -1479.6799 -2859.1553)">
				<stop  offset="0" style="stop-color:#18F5B0"/>
				<stop  offset="1" style="stop-color:#05475C;stop-opacity:0"/>
			</linearGradient>
			
				<polygon style="opacity:0.34;fill:url(#SVGID_00000039128561529069679370000015832741477713666229_);enable-background:new    ;" points="
				943.7,879.2 941.8,980.4 801.3,1152 802.2,967.2 			"/>
			
				<linearGradient id="SVGID_00000083802083907596703680000001708558374732370560_" gradientUnits="userSpaceOnUse" x1="4840.3594" y1="-3997.9756" x2="5135.3794" y2="-3997.9756" gradientTransform="matrix(0.6667 0.2973 0.503 -0.8597 -517.6312 -4011.3894)">
				<stop  offset="0" style="stop-color:#18F5B0"/>
				<stop  offset="1" style="stop-color:#05475C;stop-opacity:0"/>
			</linearGradient>
			
				<polygon style="opacity:0.34;fill:url(#SVGID_00000083802083907596703680000001708558374732370560_);enable-background:new    ;" points="
				903.3,835.8 830.1,1043 695.2,851.5 783.9,806 			"/>
			
				<linearGradient id="SVGID_00000137119900394082852020000000876075613686328511_" gradientUnits="userSpaceOnUse" x1="-4922.9956" y1="2961.6497" x2="-4611.9771" y2="2961.6497" gradientTransform="matrix(-0.7966 -0.6045 -0.6045 0.7966 -1279.0813 -4250.6562)">
				<stop  offset="0" style="stop-color:#18F5B0"/>
				<stop  offset="1" style="stop-color:#05475C;stop-opacity:0"/>
			</linearGradient>
			
				<polygon style="opacity:0.34;fill:url(#SVGID_00000137119900394082852020000000876075613686328511_);enable-background:new    ;" points="
				870,925 801.3,1152 672.2,1120.3 598.3,905 802.2,967.2 			"/>
		</g>
		<g class="st18">
			<path class="st19" d="M844.9,1061.3c-0.6,0,0.1,0.3,0.9,0.4c0.2-0.2,0.4-0.4,0.6-0.5C845.9,1061.3,845.4,1061.3,844.9,1061.3"/>
			<path class="st19" d="M848.2,1060.5c0.4-0.5,0.6-1.1,0.7-1.6c-0.1,0.4-0.3,0.8-0.5,1.1c-1.2,0.7-0.1-0.4,0-0.9
				C847.2,1060.6,848.2,1060,848.2,1060.5"/>
			<path class="st19" d="M849.4,1057.2c0.1-1.1-0.2-0.8-0.3-0.3C849.2,1057,849.3,1057.7,849.4,1057.2"/>
			<path class="st19" d="M842.5,1041.9c0.3,0.1,0.7,0.1,0.7,0.2C843.5,1042,843.6,1042,842.5,1041.9"/>
			<path class="st19" d="M853.5,1057.7c0,1-0.3,1.5-0.6,2.4l-0.5,0.3c-0.4,0.9,0,0.5-0.3,1.2c-0.7,0.6-2.1,1.9-2.5,2
				c-0.3,0,0.2-0.4,0.3-0.5c-0.9,0.6-0.7,0.9-2.1,1.3v-0.1c-3.5,1.6-8.3-1.6-8.2-6c0,0.3-0.1,0.2-0.2,0.3c-0.2-2.3,1-4.5,3.1-5.5
				c2-1,4.4-0.6,5.8,0.8c-0.8-1-2.4-2.1-4.3-2c-1.8,0-3.6,1.2-4.1,2.5c-0.9,0.6-1.1,2.3-1.5,2.6c-0.6,4.1,1,5.8,3.7,7.9
				c0.4,0.3,0.1,0.3,0.2,0.5c-0.9-0.4-1.7-1.1-2.4-1.8c0.4,0.5,0.7,1,1.2,1.4c-0.8-0.3-2-2-2.3-2.1c1.5,2.6,5.9,4.6,8.2,3.6
				c-1.1,0-2.4,0-3.7-0.4c-0.5-0.3-1.2-0.8-1.1-0.9c3.2,1.2,6.5,0.9,9.2-1.3c0.7-0.5,1.5-1.5,1.7-1.5c-0.3,0.5,0.1,0.2-0.2,0.7
				c0.7-1.1-0.3-0.5,0.7-1.9l0.4,0.5c-0.1-0.9,1.2-2.1,1-3.5c0.3-0.5,0.3,0.5,0,1.5c0.4-1.2,0.1-1.3,0.2-2.3c0.1,0.3,0.3,0.7,0.4,1
				c-0.3-1.1,0.3-1.9,0.4-2.5c-0.1-0.1-0.4,0.5-0.5-0.8c0-0.6,0.2-0.3,0.2-0.4c-0.1-0.1-0.4-0.5-0.6-1.3c0.1-0.2,0.3,0.5,0.5,0.5
				c-0.1-0.7-0.3-1.2-0.3-1.7c-0.5-1.1-0.2,0.1-0.6-0.5c-0.5-1.7,0.5-0.4,0.5-1.2c0.8,1.2,1.3,3.1,1.5,3.8c-0.2-0.9-0.4-1.9-0.8-2.7
				c0.3,0.1-0.4-1.9,0.3-0.6c-0.8-2.9-3.4-5.6-5.7-6.9c0.3,0.3,0.7,0.6,0.5,0.7c-1.2-0.7-1-0.8-1.1-1.1c-1-0.4-1,0-1.7,0
				c-1.8-1-2.2-0.9-3.8-1.5l0.1,0.4c-1.2-0.4-1.4,0.2-2.7,0c-0.1-0.1,0.4-0.2,0.8-0.3c-1.2,0.2-1.1-0.2-2.2,0
				c0.3-0.2,0.6-0.3,0.9-0.5c-0.9,0.1-2.3,0.6-1.9,0.1c-1.5,0.7-4.3,1.7-5.8,3.1v-0.3c-0.7,0.8-3.1,2.5-3.3,3.6h-0.2
				c-0.4,0.6-0.6,1.3-0.9,2c-0.5,0.8-0.7,0.3-0.6,0.4c-0.9,1.9-1.4,3.5-1.8,4.8c0.3,0.4,0,2.6,0.1,4.3c-0.5,8.6,6,16.9,13.1,18.8
				c1,0.4,2.6,0.4,3.9,0.4c-1.5-0.4-1.7-0.2-3.3-0.8c-1.1-0.5-1.3-1.1-2.1-1.8l0.3,0.5c-1.5-0.5-0.9-0.7-2.1-1.1l0.3-0.4
				c-0.5,0-1.3-0.8-1.5-1.3H835c-0.6-0.8-1-1.4-1-1.8l-0.2,0.3c-0.2-0.3-2.4-3-1.2-2.4c-0.2-0.2-0.5-0.3-0.8-0.9l0.2-0.3
				c-0.5-0.7-1-1.6-1-1.9c0.3,0.4,0.5,0.5,0.7,0.5c-1.4-3.4-1.4-0.2-2.5-3.5h0.2c-0.2-0.3-0.3-0.5-0.4-0.8l0.1-1
				c-1-1.1-0.3-4.8-0.1-6.9c0.1-0.8,0.8-1.7,1.4-3.1l-0.3-0.1c0.6-1.1,3.7-4.5,5.1-4.3c0.7-0.9-0.1,0-0.3-0.2c1.5-1.5,2-1.1,3-1.4
				c1.1-0.6-0.9,0.3-0.4-0.2c1.9-0.5,1.3-1.1,3.8-1.3c0.3,0.1-0.6,0.2-0.8,0.4c1.6-0.8,4.9-0.6,7.1,0.4c2.5,1.2,5.4,4.7,5.5,8h0.1
				c-0.1,1.3,0.2,2.8-0.3,4.2L853.5,1057.7"/>
			<path class="st19" d="M838.1,1062.1l-0.1,0.4c0.4,0.6,0.7,1.2,1.3,1.6C838.9,1063.4,838.6,1063.1,838.1,1062.1"/>
			<path class="st19" d="M839,1062.1c-0.2-0.2-0.3-0.5-0.5-0.8c0.1,0.5,0.4,0.9,0.7,1.4L839,1062.1"/>
			<path class="st19" d="M856.1,1058.4l-0.1,0.2c-0.2,1.2-0.5,2.4-1.1,3.5C855.6,1060.9,856,1059.7,856.1,1058.4"/>
			<path class="st19" d="M842.6,1041.6c0.4-0.2,1-0.1,1.5-0.2c-0.6,0-1.2,0.1-1.7,0.2H842.6"/>
			<path class="st19" d="M827.9,1049.5c0.1,0.9-0.7,1.2,0.2,0.7C828.5,1049.1,827.9,1049.9,827.9,1049.5"/>
			<path class="st19" d="M826.9,1053.6c0.2-0.6,0.2-1,0.3-1.3C826.6,1053,826.9,1053.2,826.9,1053.6"/>
		</g>
		<g>
			<g class="st18">
				<path class="st19" d="M888.5,1055.9c0,0,0,7.5-0.1,9.4c-0.1,1.6-0.2,5-3.6,5s-4.3-3.9-4.5-5.7c-0.3-1.9-0.3-3.5-0.3-4.2
					c0-2.2,0.1-8.4,5.4-8.4c1.6,0,2.5,0.5,3.1,0.8L888.5,1055.9L888.5,1055.9z M875.1,1061.4c0,13.1,6.9,13.1,8,13.1
					c2.9,0,4.7-1.6,5.5-4.3l0.1,4.1c0.9,0,1.8-0.1,3.2-0.1h1.3c0.4,0,0.8,0,1.1,0.1c-0.8-1.5-1.3-4.8-1.3-12.1s0-19,0.6-22.6
					c-1.7,0.8-3.1,1.3-6.3,1.6c1.3,1.4,1.3,2,1.3,8.2c-0.9-0.3-2-0.6-3.9-0.6C876.4,1048.7,875.1,1056,875.1,1061.4"/>
				<path class="st19" d="M900.2,1059c0-3.9,0.8-7.3,4.1-7.3c3.6,0,3.9,4,3.8,7.3H900.2L900.2,1059z M912.8,1059.5
					c0-5.4-1.1-10.8-7.9-10.8c-9.4,0-9.4,10.5-9.4,12.7c0,9.4,4.2,13.1,11.3,13.1c3.1,0,4.7-0.5,5.5-0.7c0-1.7,0.2-2.8,0.5-4.2
					c-1,0.6-2.2,1.4-5,1.4c-7.2,0-7.3-6.6-7.3-8.9h12.3L912.8,1059.5"/>
				<path class="st19" d="M927.8,1061.5c0,4.3-0.8,10.1-6.2,10.1c-0.8,0-1.7-0.1-2.3-0.3c-0.1-1.7-0.1-4.5-0.1-7.9
					c0-4,0.4-6.1,0.8-7.1c1-3.3,3.1-3.3,3.6-3.3C927.2,1053,927.8,1057.9,927.8,1061.5L927.8,1061.5z M914.5,1066.5
					c0,3.4,0,5.4-0.6,6.9c1.9,0.8,4.3,1.1,7.1,1.1c1.8,0,7,0,9.9-5.8c1.4-2.7,1.8-6.3,1.8-9.1c0-1.7-0.2-5.3-1.5-7.7
					c-1.3-2.2-3.4-3.3-5.6-3.3c-4.4,0-5.8,3.7-6.4,5.6c0-2.4,0-10.6,0.4-14.8c-3,1.4-4.9,1.6-6.9,1.8c1.8,0.7,1.8,3.8,1.8,13.8
					V1066.5"/>
				<path class="st19" d="M941.7,1074.2c-0.9-0.1-1.6-0.2-2.9-0.2c-1.5,0-2.5,0.1-3.6,0.2c0.5-0.9,0.6-1.3,0.8-4.3
					c0.2-4.2,0.2-15.2-0.1-17.5c-0.2-1.8-0.6-2-1.3-2.5c3.8-0.4,4.9-0.6,6.7-1.5c-0.4,2-0.4,3.1-0.4,6.2
					C940.7,1070.6,940.7,1072.3,941.7,1074.2"/>
				<path class="st19" d="M956.6,1061.1c-0.1,2.9-0.1,5-0.9,6.6c-1,2.1-2.6,2.7-3.8,2.7c-2.8,0-3.4-2.3-3.4-4.6
					c0-4.4,3.9-4.7,5.7-4.7H956.6z M943.8,1066.8c0,2.9,0.9,5.8,3.5,7.1c1.1,0.5,2.3,0.5,2.7,0.5c4.3,0,5.7-3.2,6.6-5.1
					c0,2,0,3.3,0.1,4.9c0.8,0,1.7-0.1,3.1-0.1c0.8,0,1.5,0.1,2.3,0.1c-0.5-0.8-0.8-1.3-0.9-3.1c-0.1-1.8-0.1-3.5-0.1-6v-9.4
					c0-3.5-0.9-7-7.9-7c-4.6,0-7.3,1.4-8.6,2.1c0.6,1,1,1.9,1.4,3.9c1.8-1.6,4.2-2.4,6.6-2.4c3.9,0,3.9,2.5,3.9,6.2
					c-0.9,0-1.6-0.1-2.9-0.1C947.7,1058.4,943.8,1060.6,943.8,1066.8"/>
				<path class="st19" d="M983.3,1069.7c0,1.6,0,3.3,0.7,4.6c-1-0.1-1.6-0.2-3.5-0.2c-1.1,0-1.7,0.1-2.6,0.2
					c0.2-0.6,0.3-0.8,0.4-1.6c0.1-1.1,0.2-4.7,0.2-5.9v-5c0-2.2,0-5.3-0.1-6.4c-0.1-0.8-0.3-2.9-3-2.9s-3.5,1.9-3.9,3.5
					s-0.4,3.4-0.4,10.3c0,5.9,0,6.5,0.5,8.1c-0.8-0.1-1.8-0.2-3.1-0.2c-1.1,0-1.9,0-2.8,0.2c0.3-0.8,0.5-1.1,0.6-3.7
					c0.1-2.5,0.3-15.1-0.1-18c-0.2-1.8-0.7-2.2-1.2-2.7c3.8-0.2,5-0.8,6.1-1.4v4.9c0.6-1.4,1.7-4.7,6.4-4.7c5.8,0,5.8,4.2,5.9,7
					L983.3,1069.7"/>
				<path class="st19" d="M942.1,1041.9l-3.9,3.9l-3.9-3.9l3.9-3.9L942.1,1041.9"/>
			</g>
			<g>
				<path class="st19" d="M1013.6,1059.2c0,5,0.1,7.9,0.2,10.5c0.2,3.2,0.5,3.9,0.9,4.8c-1.4-0.2-2.7-0.2-4-0.2
					c-1.5,0-2.1,0.1-3.3,0.2c0.5-1.3,0.7-2,0.8-4.7c0.1-2,0.2-4.5,0.2-10.5v-5.9c-0.2-7.6-0.2-8.4-0.3-9.9c-2.2,0.9-4.4,1.8-6.6,2.9
					c0.1-0.6,0.1-1.1,0.2-1.6c0-1-0.1-1.5-0.2-2.2c2.5-0.6,8.1-2.1,12.2-5c-0.2,3.9-0.3,6.7-0.3,14.5v7.1L1013.6,1059.2
					L1013.6,1059.2z"/>
				<path class="st19" d="M1035.2,1069.3c7,0,7.9-0.1,9.7-1.4c-0.2,1.2-0.3,2.1-0.3,4c0,1.3,0.1,2,0.2,2.7c-3.2-0.2-6.5-0.3-9.7-0.3
					c-5,0-9.5,0.1-11,0.3c0.1-0.6,0.2-1.4,0.2-2.5s-0.1-1.8-0.2-2.4c1.5-1.3,3-2.4,6.1-5.7c6.1-6.5,8.5-10.4,8.5-14.5
					s-2.6-6.5-7-6.5c-2.3,0-4.3,0.5-6.2,1.8c0.1-1.2,0.3-2.1,0.2-3.1c0-0.9,0-1.5-0.1-2c2.6-0.9,5.1-1.3,7.8-1.3
					c7.2,0,10.8,3.7,10.8,9.1c0,4.5-2.5,8.1-4,10.1c-1.9,2.7-5.5,6.8-11,11.8L1035.2,1069.3L1035.2,1069.3z"/>
			</g>
		</g>
	</g>
</g>
</svg>
