<?xml version="1.0" encoding="utf-8"?>
<!-- Generator: Adobe Illustrator 26.5.0, SVG Export Plug-In . SVG Version: 6.00 Build 0)  -->
<svg version="1.1" id="Calque_1" xmlns="http://www.w3.org/2000/svg" xmlns:xlink="http://www.w3.org/1999/xlink" x="0px" y="0px"
	 viewBox="0 0 1920 1080" style="enable-background:new 0 0 1920 1080;" xml:space="preserve">
<style type="text/css">
	.st0{clip-path:url(#SVGID_00000143578808295295381700000013879677878792228763_);}
	.st1{fill:#05475C;}
	.st2{opacity:0.34;fill:url(#SVGID_00000044155106860491980690000014333001916875758256_);enable-background:new    ;}
	.st3{opacity:0.34;fill:url(#SVGID_00000096777729370192667310000011825856776137243306_);enable-background:new    ;}
	.st4{opacity:0.12;fill:url(#SVGID_00000175318559115179612640000006195173934048902022_);enable-background:new    ;}
	.st5{opacity:0.12;fill:url(#SVGID_00000066515588503892120910000017240591691161496739_);enable-background:new    ;}
	.st6{opacity:0.12;fill:url(#SVGID_00000018235143969936304110000003780088416131167135_);enable-background:new    ;}
	.st7{opacity:0.12;fill:url(#SVGID_00000166673553686063291130000003842120999144170888_);enable-background:new    ;}
	.st8{opacity:0.12;fill:url(#SVGID_00000140701726588528926970000016974120920519152572_);enable-background:new    ;}
	.st9{opacity:0.12;fill:url(#SVGID_00000151507064368737849710000009433310889083534773_);enable-background:new    ;}
	.st10{opacity:0.34;fill:url(#SVGID_00000055682586578017730640000000151714387747915403_);enable-background:new    ;}
	.st11{opacity:0.34;fill:url(#SVGID_00000013158356933309315550000004348468335990211725_);enable-background:new    ;}
	.st12{opacity:0.34;fill:url(#SVGID_00000018236086041102979390000016610132037406678171_);enable-background:new    ;}
	.st13{opacity:0.34;fill:url(#SVGID_00000057853363476554736200000010560541030936007074_);enable-background:new    ;}
	.st14{opacity:0.34;fill:url(#SVGID_00000088831976319704196300000004141853901281012136_);enable-background:new    ;}
	.st15{opacity:0.34;fill:url(#SVGID_00000011734604615414328900000004366860358559330477_);enable-background:new    ;}
	.st16{opacity:0.34;fill:url(#SVGID_00000147211906946256719720000009046704834926879910_);enable-background:new    ;}
	.st17{opacity:0.34;fill:url(#SVGID_00000080205979590830733840000010407033915744624307_);enable-background:new    ;}
	.st18{opacity:0.71;}
	.st19{fill:#FFFFFF;}
</style>
<g>
	<g>
		<defs>
			<rect id="SVGID_1_" width="1920" height="1081"/>
		</defs>
		<clipPath id="SVGID_00000008858359682004158980000011424070704589665195_">
			<use xlink:href="#SVGID_1_"  style="overflow:visible;"/>
		</clipPath>
		<g id="Calque_1-2" style="clip-path:url(#SVGID_00000008858359682004158980000011424070704589665195_);">
			<rect x="-17" y="-76" class="st1" width="1955" height="1231"/>
			
				<radialGradient id="SVGID_00000072262970431258332700000004869880393992566944_" cx="12573.8311" cy="746.3904" r="1365.6265" gradientTransform="matrix(0.1462 0.4782 0.4782 -0.1462 -2150.1179 -5701.9839)" gradientUnits="userSpaceOnUse">
				<stop  offset="0" style="stop-color:#18F5B0"/>
				<stop  offset="1" style="stop-color:#05475C;stop-opacity:0"/>
			</radialGradient>
			
				<circle style="opacity:0.34;fill:url(#SVGID_00000072262970431258332700000004869880393992566944_);enable-background:new    ;" cx="45.1" cy="201.7" r="682.7"/>
			
				<radialGradient id="SVGID_00000060028703369318898530000014060601646035674807_" cx="1666.9199" cy="-11878.9404" r="1365.4" gradientTransform="matrix(0.5 0 0 -0.5 126.54 -4957.5703)" gradientUnits="userSpaceOnUse">
				<stop  offset="0" style="stop-color:#18F5B0"/>
				<stop  offset="1" style="stop-color:#05475C;stop-opacity:0"/>
			</radialGradient>
			
				<circle style="opacity:0.34;fill:url(#SVGID_00000060028703369318898530000014060601646035674807_);enable-background:new    ;" cx="960" cy="981.9" r="682.7"/>
			
				<linearGradient id="SVGID_00000051358740926253558690000012272943356294517412_" gradientUnits="userSpaceOnUse" x1="-860.8419" y1="-1112.1115" x2="-420.656" y2="-1112.1115" gradientTransform="matrix(0.9911 0.1333 0.1333 -0.9911 953.9773 -900.51)">
				<stop  offset="0" style="stop-color:#18F5B0"/>
				<stop  offset="1" style="stop-color:#05475C;stop-opacity:0"/>
			</linearGradient>
			
				<polygon style="opacity:0.12;fill:url(#SVGID_00000051358740926253558690000012272943356294517412_);enable-background:new    ;" points="
				353.6,407.5 -86.7,378.8 129.3,-186.4 300.7,-139.7 			"/>
			
				<linearGradient id="SVGID_00000124846244466737618890000016166686183689051558_" gradientUnits="userSpaceOnUse" x1="-3645.3992" y1="3662.6365" x2="-3093.6455" y2="3662.6365" gradientTransform="matrix(1.727786e-02 -0.9999 -0.9999 -1.727786e-02 3794.7341 -3266.8174)">
				<stop  offset="0" style="stop-color:#18F5B0"/>
				<stop  offset="1" style="stop-color:#05475C;stop-opacity:0"/>
			</linearGradient>
			
				<polygon style="opacity:0.12;fill:url(#SVGID_00000124846244466737618890000016166686183689051558_);enable-background:new    ;" points="
				441.5,-230.5 104.9,109.8 -42.5,313 -189.4,55.4 -285.2,-143.2 -36.9,-233 			"/>
			
				<linearGradient id="SVGID_00000138550467788951060400000010134833191902448290_" gradientUnits="userSpaceOnUse" x1="-1497.0961" y1="4316.5879" x2="-828.7606" y2="4316.5879" gradientTransform="matrix(-0.9662 0.258 0.258 0.9662 -1957.8778 -3803.1606)">
				<stop  offset="0" style="stop-color:#AABDCB"/>
				<stop  offset="1" style="stop-color:#05475C;stop-opacity:0"/>
			</linearGradient>
			
				<polygon style="opacity:0.12;fill:url(#SVGID_00000138550467788951060400000010134833191902448290_);enable-background:new    ;" points="
				635.2,104.5 443.6,227.9 -54.8,111.2 361.6,-158.7 			"/>
			
				<linearGradient id="SVGID_00000036956008241000680470000006061144462291183283_" gradientUnits="userSpaceOnUse" x1="-3009.1951" y1="9799.9414" x2="-2291.335" y2="9799.9414" gradientTransform="matrix(-0.6594 0.1189 3.673066e-02 0.9892 -1809.087 -9148.5811)">
				<stop  offset="0" style="stop-color:#18F5B0"/>
				<stop  offset="1" style="stop-color:#05475C;stop-opacity:0"/>
			</linearGradient>
			
				<polygon style="opacity:0.12;fill:url(#SVGID_00000036956008241000680470000006061144462291183283_);enable-background:new    ;" points="
				284.8,286.4 69,454.9 108.7,81.5 527.4,12.7 			"/>
			
				<linearGradient id="SVGID_00000098214401177476179810000009053691853055696309_" gradientUnits="userSpaceOnUse" x1="128.8974" y1="-1409.7678" x2="521.3162" y2="-1409.7678" gradientTransform="matrix(0.9995 -3.245742e-02 -3.245742e-02 -0.9995 -239.5276 -1354.2998)">
				<stop  offset="0" style="stop-color:#18F5B0"/>
				<stop  offset="1" style="stop-color:#05475C;stop-opacity:0"/>
			</linearGradient>
			
				<polygon style="opacity:0.12;fill:url(#SVGID_00000098214401177476179810000009053691853055696309_);enable-background:new    ;" points="
				263,-107.8 337,337 -56.5,310.4 215.5,-258 			"/>
			
				<linearGradient id="SVGID_00000147200474574450543960000001458382736900853130_" gradientUnits="userSpaceOnUse" x1="7129.9409" y1="3618.0474" x2="7552.2515" y2="3618.0474" gradientTransform="matrix(0.4114 0.9115 0.9115 -0.4114 -6325.5273 -5094.2446)">
				<stop  offset="0" style="stop-color:#18F5B0"/>
				<stop  offset="1" style="stop-color:#05475C;stop-opacity:0"/>
			</linearGradient>
			
				<polygon style="opacity:0.12;fill:url(#SVGID_00000147200474574450543960000001458382736900853130_);enable-background:new    ;" points="
				-98,381.2 -146.2,61.4 82.9,-163.8 			"/>
			<g>
				
					<radialGradient id="SVGID_00000012457457353477779340000003583746755033552784_" cx="4412.9541" cy="9094.5684" r="257.8594" gradientTransform="matrix(0.8857 0.4642 -0.4642 0.8857 1179.3448 -9232.5527)" gradientUnits="userSpaceOnUse">
					<stop  offset="0" style="stop-color:#18F5B0"/>
					<stop  offset="1" style="stop-color:#05475C;stop-opacity:0"/>
				</radialGradient>
				
					<circle style="opacity:0.34;fill:url(#SVGID_00000012457457353477779340000003583746755033552784_);enable-background:new    ;" cx="866.2" cy="871" r="257.8"/>
				
					<radialGradient id="SVGID_00000088095660674464601470000011663669062538539933_" cx="4388.4863" cy="9087.5205" r="257.8594" gradientTransform="matrix(0.8857 0.4642 -0.4642 0.8857 1179.3448 -9232.5527)" gradientUnits="userSpaceOnUse">
					<stop  offset="0" style="stop-color:#DAC9BA"/>
					<stop  offset="1" style="stop-color:#05475C;stop-opacity:0"/>
				</radialGradient>
				
					<circle style="opacity:0.34;fill:url(#SVGID_00000088095660674464601470000011663669062538539933_);enable-background:new    ;" cx="847.8" cy="853.4" r="257.8"/>
				
					<linearGradient id="SVGID_00000145055521109180509980000007080689202960364477_" gradientUnits="userSpaceOnUse" x1="3507.4468" y1="7793.7783" x2="3769.7385" y2="7793.7783" gradientTransform="matrix(0.7966 0.6045 -0.6045 0.7966 2672.1045 -7563.1201)">
					<stop  offset="0" style="stop-color:#AABDCB"/>
					<stop  offset="1" style="stop-color:#05475C;stop-opacity:0"/>
				</linearGradient>
				
					<polygon style="opacity:0.34;fill:url(#SVGID_00000145055521109180509980000007080689202960364477_);enable-background:new    ;" points="
					822.4,936 687.7,855 899.5,735.2 962.4,926.9 				"/>
				
					<linearGradient id="SVGID_00000031186543703456734830000005668509857398156429_" gradientUnits="userSpaceOnUse" x1="3566.5967" y1="7880.2349" x2="3840.0701" y2="7880.2349" gradientTransform="matrix(0.7966 0.6045 -0.6045 0.7966 2672.1045 -7563.1201)">
					<stop  offset="0" style="stop-color:#AABDCB"/>
					<stop  offset="1" style="stop-color:#05475C;stop-opacity:0"/>
				</linearGradient>
				
					<polygon style="opacity:0.34;fill:url(#SVGID_00000031186543703456734830000005668509857398156429_);enable-background:new    ;" points="
					790.7,817.1 899.5,735.2 958.4,1048.5 801.3,1092 672.2,1060.3 				"/>
				
					<linearGradient id="SVGID_00000106144183936035634370000016010137463772965001_" gradientUnits="userSpaceOnUse" x1="-6628.7129" y1="7410.9116" x2="-6432.6479" y2="7410.9116" gradientTransform="matrix(0.5032 -0.8642 0.8642 0.5032 -2374.9016 -8491.5996)">
					<stop  offset="0" style="stop-color:#AABDCB"/>
					<stop  offset="1" style="stop-color:#05475C;stop-opacity:0"/>
				</linearGradient>
				
					<polygon style="opacity:0.34;fill:url(#SVGID_00000106144183936035634370000016010137463772965001_);enable-background:new    ;" points="
					904.2,877.3 818.2,1038.4 687.7,855 598.3,845 695.2,791.5 720.8,754.8 				"/>
				
					<linearGradient id="SVGID_00000163052541191594308780000007232139285290867132_" gradientUnits="userSpaceOnUse" x1="4018.1318" y1="-1732.8123" x2="4325.8696" y2="-1732.8123" gradientTransform="matrix(-0.4642 0.8857 -0.8857 -0.4642 1256.512 -3553.1257)">
					<stop  offset="0" style="stop-color:#18F5B0"/>
					<stop  offset="1" style="stop-color:#05475C;stop-opacity:0"/>
				</linearGradient>
				
					<polygon style="opacity:0.34;fill:url(#SVGID_00000163052541191594308780000007232139285290867132_);enable-background:new    ;" points="
					943.4,819.2 941.5,920.4 801,1092 801.9,907.2 				"/>
				
					<linearGradient id="SVGID_00000076594348628459158160000007656447077838396572_" gradientUnits="userSpaceOnUse" x1="6511.5337" y1="9473.541" x2="6806.5537" y2="9473.541" gradientTransform="matrix(0.6667 0.2973 -0.503 0.8597 1122.5709 -9275.835)">
					<stop  offset="0" style="stop-color:#18F5B0"/>
					<stop  offset="1" style="stop-color:#05475C;stop-opacity:0"/>
				</linearGradient>
				
					<polygon style="opacity:0.34;fill:url(#SVGID_00000076594348628459158160000007656447077838396572_);enable-background:new    ;" points="
					903.3,775.8 830.1,983 695.2,791.5 783.9,746 				"/>
				
					<linearGradient id="SVGID_00000111167145950830557460000016016846118376874384_" gradientUnits="userSpaceOnUse" x1="-6657.0024" y1="-1356.7435" x2="-6345.979" y2="-1356.7435" gradientTransform="matrix(-0.7966 -0.6045 0.6045 -0.7966 -3630.2642 -4080.4797)">
					<stop  offset="0" style="stop-color:#18F5B0"/>
					<stop  offset="1" style="stop-color:#05475C;stop-opacity:0"/>
				</linearGradient>
				
					<polygon style="opacity:0.34;fill:url(#SVGID_00000111167145950830557460000016016846118376874384_);enable-background:new    ;" points="
					870,865 801.3,1092 672.2,1060.3 598.3,845 802.2,907.2 				"/>
			</g>
			<g class="st18">
				<path class="st19" d="M844.9,1001.3c-0.6,0,0.1,0.3,0.9,0.4c0.2-0.2,0.4-0.4,0.6-0.5C845.9,1001.3,845.4,1001.3,844.9,1001.3"/>
				<path class="st19" d="M848.2,1000.5c0.4-0.5,0.6-1.1,0.7-1.6c-0.1,0.4-0.3,0.8-0.5,1.1c-1.2,0.7-0.1-0.4,0-0.9
					C847.2,1000.6,848.2,1000,848.2,1000.5"/>
				<path class="st19" d="M849.4,997.2c0.1-1.1-0.2-0.8-0.3-0.3C849.2,997,849.3,997.7,849.4,997.2"/>
				<path class="st19" d="M842.5,981.9c0.3,0.1,0.7,0.1,0.7,0.2C843.5,982,843.6,982,842.5,981.9"/>
				<path class="st19" d="M853.7,997.7c0,1-0.3,1.5-0.6,2.4l-0.5,0.3c-0.4,0.9,0,0.5-0.3,1.2c-0.7,0.6-2.1,1.9-2.5,2
					c-0.3,0,0.2-0.4,0.3-0.5c-0.9,0.6-0.7,0.9-2.1,1.3v-0.3c-3.5,1.6-8.2-1.6-8.1-6c0,0.3-0.1,0.2-0.2,0.3c-0.2-2.3,1-4.5,3.1-5.5
					c2-1,4.3-0.6,5.7,0.8c-0.8-1-2.4-2.1-4.2-2c-1.8,0-3.5,1.2-4,2.5c-0.9,0.6-1.1,2.3-1.5,2.6c-0.6,4.1,1,5.8,3.6,8
					c0.4,0.3,0.1,0.3,0.2,0.5c-0.9-0.4-1.7-1.1-2.4-1.8c0.4,0.5,0.7,1,1.2,1.4c-0.8-0.3-2-2-2.3-2.1c1.5,2.6,5.8,4.6,8.1,3.6
					c-1.1,0-2.4,0-3.6-0.4c-0.5-0.3-1.2-0.8-1.1-0.9c3.2,1.2,6.4,0.9,9.1-1.3c0.7-0.5,1.5-1.5,1.7-1.5c-0.3,0.5,0.1,0.2-0.2,0.7
					c0.7-1.1-0.3-0.5,0.7-1.9l0.4,0.5c-0.1-0.9,1.2-2.1,1-3.5c0.3-0.5,0.3,0.5,0,1.5c0.4-1.2,0.1-1.3,0.2-2.3c0.1,0.3,0.3,0.7,0.4,1
					c-0.3-1.1,0.3-1.9,0.4-2.5c-0.1-0.1-0.4,0.5-0.5-0.8c0-0.6,0.2-0.3,0.2-0.4c-0.1-0.1-0.4-0.5-0.6-1.3c0.1-0.2,0.3,0.5,0.5,0.5
					c-0.1-0.7-0.3-1.2-0.3-1.7c-0.5-1.1-0.2,0.1-0.6-0.5c-0.5-1.7,0.5-0.4,0.5-1.2c0.8,1.2,1.3,3.1,1.5,3.8
					c-0.2-0.9-0.4-1.9-0.8-2.7c0.3,0.1-0.4-1.9,0.3-0.6c-0.8-2.9-3.4-5.6-5.6-7c0.3,0.3,0.7,0.6,0.5,0.7c-1.2-0.7-1-0.8-1.1-1.1
					c-1-0.4-1,0-1.7,0c-1.8-1-2.2-0.9-3.7-1.5l0.1,0.4c-1.2-0.4-1.4,0.2-2.7,0c-0.1-0.1,0.4-0.2,0.8-0.3c-1.2,0.2-1.1-0.2-2.2,0
					c0.3-0.2,0.6-0.3,0.9-0.5c-0.9,0.1-2.3,0.6-1.9,0.1c-1.5,0.7-4.2,1.7-5.7,3.1v-0.3c-0.7,0.8-3.1,2.5-3.3,3.6h-0.2
					c-0.4,0.6-0.6,1.3-0.9,2c-0.5,0.8-0.7,0.3-0.6,0.4c-0.9,1.9-1.4,3.5-1.8,4.8c0.3,0.4,0,2.6,0.1,4.3c-0.5,8.7,5.9,17,12.9,18.9
					c1,0.4,2.6,0.4,3.8,0.4c-1.5-0.4-1.7-0.2-3.3-0.8c-1.1-0.5-1.3-1.1-2.1-1.8l0.3,0.5c-1.5-0.5-0.9-0.7-2.1-1.1l0.3-0.4
					c-0.5,0-1.3-0.8-1.5-1.3H835c-0.6-0.8-1-1.4-1-1.8l-0.2,0.3c-0.2-0.3-2.4-3-1.2-2.4c-0.2-0.2-0.5-0.3-0.8-0.9l0.2-0.3
					c-0.5-0.7-1-1.6-1-1.9c0.3,0.4,0.5,0.5,0.7,0.5c-1.4-3.4-1.4-0.2-2.5-3.5h0.7c-0.2-0.3-0.3-0.5-0.4-0.8l0.1-1
					c-1-1-0.3-4.6-0.1-6.6c0.1-0.8,0.8-1.6,1.3-3l-0.3-0.1c0.6-1,3.5-4.3,4.9-4.1c0.7-0.9-0.1,0-0.3-0.2c1.4-1.4,1.9-1,2.9-1.3
					c1-0.6-0.9,0.3-0.4-0.2c1.8-0.5,1.2-1,3.6-1.2c0.3,0.1-0.6,0.2-0.8,0.4c1.5-0.8,4.7-0.6,6.8,0.4c2.4,1.1,5.1,4.5,5.2,7.6h0.7
					c-0.1,1.3,0.2,2.8-0.3,4.2l0.6-0.1"/>
				<path class="st19" d="M838.1,1002.1l-0.1,0.4c0.4,0.6,0.7,1.2,1.3,1.6C838.9,1003.4,838.6,1003.1,838.1,1002.1"/>
				<path class="st19" d="M839,1002.1c-0.2-0.2-0.3-0.5-0.5-0.8c0.1,0.5,0.4,0.9,0.7,1.4L839,1002.1"/>
				<path class="st19" d="M856.1,998.4l-0.1,0.2c-0.2,1.2-0.5,2.4-1.1,3.5C855.6,1000.9,856,999.7,856.1,998.4"/>
				<path class="st19" d="M842.6,982c0.4-0.2,1-0.1,1.5-0.2c-0.6,0-1.2,0.1-1.7,0.2h0.6"/>
				<path class="st19" d="M827.9,989.5c0.1,0.9-0.7,1.2,0.2,0.7C828.5,989.1,827.9,989.9,827.9,989.5"/>
				<path class="st19" d="M826.9,993.6c0.2-0.6,0.2-1,0.3-1.3C826.6,993,826.9,993.2,826.9,993.6"/>
			</g>
			<g>
				<g class="st18">
					<path class="st19" d="M889,995.9c0,0,0,7.5-0.1,9.4c-0.1,1.6-0.2,5-3.6,5s-4.3-3.9-4.5-5.7c-0.3-1.9-0.3-3.5-0.3-4.2
						c0-2.2,0.1-8.4,5.4-8.4c1.6,0,2.5,0.5,3.1,0.8L889,995.9L889,995.9z M875.1,1001.2c0,13.1,6.9,13.1,8,13.1
						c2.9,0,4.7-1.6,5.5-4.3l0.1,4.1c0.9,0,1.8-0.1,3.2-0.1h1.3c0.4,0,0.8,0,1.1,0.1c-0.8-1.5-1.3-4.8-1.3-12.1s0-19,0.6-22.6
						c-1.7,0.8-3.1,1.3-6.3,1.6c1.3,1.4,1.3,2,1.3,8.2c-0.9-0.3-2-0.6-3.9-0.6C876.4,988.5,875.1,995.8,875.1,1001.2"/>
					<path class="st19" d="M900.2,999c0-3.9,0.8-7.3,4.1-7.3c3.6,0,3.9,4,3.8,7.3H900.2L900.2,999z M913,999.4
						c0-5.4-1.1-10.8-7.9-10.8c-9.4,0-9.4,10.5-9.4,12.7c0,9.4,4.2,13.1,11.3,13.1c3.1,0,4.7-0.5,5.5-0.7c0-1.7,0.2-2.8,0.5-4.2
						c-1,0.6-2.2,1.4-5,1.4c-7.2,0-7.3-6.6-7.3-8.9H913v-3"/>
					<path class="st19" d="M927.8,1001.5c0,4.3-0.8,10.1-6.2,10.1c-0.8,0-1.7-0.1-2.3-0.3c-0.1-1.7-0.1-4.5-0.1-7.9
						c0-4,0.4-6.1,0.8-7.1c1-3.3,3.1-3.3,3.6-3.3C927.2,993,927.8,997.9,927.8,1001.5z M915,1006.5c0,3.4,0,5.4-0.6,6.9
						c1.9,0.8,4.3,1.1,7.1,1.1c1.8,0,7,0,9.9-5.8c1.4-2.7,1.8-6.3,1.8-9.1c0-1.7-0.2-5.3-1.5-7.7c-1.3-2.2-3.4-3.3-5.6-3.3
						c-4.4,0-5.8,3.7-6.4,5.6c0-2.4,0-10.6,0.4-14.8c-3,1.4-4.9,1.6-6.9,1.8c1.8,0.7,1.8,3.8,1.8,13.8v12"/>
					<path class="st19" d="M941.7,1014.2c-0.9-0.1-1.6-0.2-2.9-0.2c-1.5,0-2.5,0.1-3.6,0.2c0.5-0.9,0.6-1.3,0.8-4.3
						c0.2-4.2,0.2-15.2-0.1-17.5c-0.2-1.8-0.6-2-1.3-2.5c3.8-0.4,4.9-0.6,6.7-1.5c-0.4,2-0.4,3.1-0.4,6.2
						C940.7,1010.6,940.7,1012.3,941.7,1014.2"/>
					<path class="st19" d="M956.6,1001c-0.1,2.9-0.1,5-0.9,6.6c-1,2.1-2.6,2.7-3.8,2.7c-2.8,0-3.4-2.3-3.4-4.6
						c0-4.4,3.9-4.7,5.7-4.7H956.6z M943.7,1006.8c0,2.9,0.9,5.8,3.5,7.1c1.1,0.5,2.3,0.5,2.7,0.5c4.3,0,5.7-3.2,6.6-5.1
						c0,2,0,3.3,0.1,4.9c0.8,0,1.7-0.1,3.1-0.1c0.8,0,1.5,0.1,2.3,0.1c-0.5-0.8-0.8-1.3-0.9-3.1c-0.1-1.8-0.1-3.5-0.1-6v-9.4
						c0-3.5-0.9-7-7.9-7c-4.6,0-7.3,1.4-8.6,2.1c0.6,1,1,1.9,1.4,3.9c1.8-1.6,4.2-2.4,6.6-2.4c3.9,0,3.9,2.5,3.9,6.2
						c-0.9,0-1.6-0.1-2.9-0.1C947.6,998.4,943.7,1000.6,943.7,1006.8"/>
					<path class="st19" d="M982.8,1009.7c0,1.6,0,3.3,0.7,4.6c-1-0.1-1.6-0.2-3.5-0.2c-1.1,0-1.7,0.1-2.6,0.2
						c0.2-0.6,0.3-0.8,0.4-1.6c0.1-1.1,0.2-4.7,0.2-5.9v-5c0-2.1,0-5-0.1-6.1c-0.1-0.8-0.3-2.7-2.8-2.7c-2.6,0-3.3,1.8-3.7,3.3
						s-0.4,3.2-0.4,9.7c0,5.6,0,6.1,0.5,7.7c-0.8-0.1-1.7-0.2-2.9-0.2c-1,0-1.8,0-2.6,0.2c0.3-0.8,0.5-1,0.6-3.5
						c0.1-2.4,0.3-14.3-0.1-17c-0.2-1.7-0.7-2.1-1.1-2.6c3.6-0.2,4.7-0.8,5.8-1.3v4.2c0.6-1.4,1.7-4.6,6.2-4.6
						c5.7,0,5.7,4.1,5.8,6.8l-0.1,14.3"/>
					<path class="st19" d="M942.1,981.9l-3.9,3.9l-3.9-3.9l3.9-3.9L942.1,981.9"/>
				</g>
				<g>
					<path class="st19" d="M1013.2,999c0,5,0.1,7.9,0.2,10.5c0.2,3.2,0.5,3.9,0.9,4.8c-1.4-0.2-2.7-0.2-4-0.2
						c-1.5,0-2.1,0.1-3.3,0.2c0.5-1.3,0.7-2,0.8-4.7c0.1-2,0.2-4.5,0.2-10.5v-5.9c-0.2-7.6-0.2-8.4-0.3-9.9
						c-2.2,0.9-4.4,1.8-6.6,2.9c0.1-0.6,0.1-1.1,0.2-1.6c0-1-0.1-1.5-0.2-2.2c2.5-0.6,8.1-2.1,12.2-5c-0.2,3.9-0.3,6.7-0.3,14.5v7.1
						L1013.2,999L1013.2,999z"/>
					<path class="st19" d="M1035,1008.9c7,0,7.9-0.1,9.7-1.4c-0.2,1.2-0.3,2.1-0.3,4c0,1.3,0.1,2,0.2,2.7c-3.2-0.2-6.5-0.3-9.7-0.3
						c-5,0-9.5,0.1-11,0.3c0.1-0.6,0.2-1.4,0.2-2.5s-0.1-1.8-0.2-2.4c1.5-1.3,3-2.4,6.1-5.7c6.1-6.5,8.5-10.4,8.5-14.5
						s-2.6-6.5-7-6.5c-2.3,0-4.3,0.5-6.2,1.8c0.1-1.2,0.3-2.1,0.2-3.1c0-0.9,0-1.5-0.1-2c2.6-0.9,5.1-1.3,7.8-1.3
						c7.2,0,10.8,3.7,10.8,9.1c0,4.5-2.5,8.1-4,10.1c-1.9,2.7-5.5,6.8-11,11.8L1035,1008.9L1035,1008.9L1035,1008.9z"/>
				</g>
			</g>
		</g>
	</g>
</g>
</svg>
