<?xml version="1.0" encoding="utf-8"?>
<!-- Generator: Adobe Illustrator 26.5.0, SVG Export Plug-In . SVG Version: 6.00 Build 0)  -->
<svg version="1.1" id="Calque_1" xmlns="http://www.w3.org/2000/svg" xmlns:xlink="http://www.w3.org/1999/xlink" x="0px" y="0px"
	 viewBox="0 0 1280 1024" style="enable-background:new 0 0 1280 1024;" xml:space="preserve">
<style type="text/css">
	.st0{clip-path:url(#SVGID_00000177472279984623142150000002865821156089960100_);}
	.st1{fill:#05475C;}
	.st2{opacity:0.34;fill:url(#SVGID_00000151536207947305286820000003033549499182607537_);enable-background:new    ;}
	.st3{opacity:0.34;fill:url(#SVGID_00000000192538137386856470000010293471180989264568_);enable-background:new    ;}
	.st4{opacity:0.12;fill:url(#SVGID_00000176732776674221937670000002656347591073273236_);enable-background:new    ;}
	.st5{opacity:0.12;fill:url(#SVGID_00000021099153878567213290000014925271044403503249_);enable-background:new    ;}
	.st6{opacity:0.12;fill:url(#SVGID_00000023241785510492269390000015068593236759726235_);enable-background:new    ;}
	.st7{opacity:0.12;fill:url(#SVGID_00000146485653296755756440000002677468930044027067_);enable-background:new    ;}
	.st8{opacity:0.12;fill:url(#SVGID_00000033338179054204703720000011146387705765052072_);enable-background:new    ;}
	.st9{opacity:0.34;fill:url(#SVGID_00000167358413135546185310000010650197796979331732_);enable-background:new    ;}
	.st10{opacity:0.34;fill:url(#SVGID_00000114038278235404587350000008523655721234513852_);enable-background:new    ;}
	.st11{opacity:0.34;fill:url(#SVGID_00000038391921157496123610000006212251320071623858_);enable-background:new    ;}
	.st12{opacity:0.34;fill:url(#SVGID_00000163775714654047343750000011487682916816448191_);enable-background:new    ;}
	.st13{opacity:0.34;fill:url(#SVGID_00000060022142752088181520000008768283240278690452_);enable-background:new    ;}
	.st14{opacity:0.34;fill:url(#SVGID_00000152261109804346646110000010825695863709772215_);enable-background:new    ;}
	.st15{opacity:0.34;fill:url(#SVGID_00000103251294461290073860000009498049781717402773_);enable-background:new    ;}
	.st16{opacity:0.34;fill:url(#SVGID_00000109716051709849388250000011875580931115000224_);enable-background:new    ;}
	.st17{opacity:0.71;}
	.st18{fill:#FFFFFF;}
</style>
<g>
	<defs>
		<rect id="SVGID_1_" width="1280" height="1024"/>
	</defs>
	<clipPath id="SVGID_00000103957004231731532990000007261385016018576280_">
		<use xlink:href="#SVGID_1_"  style="overflow:visible;"/>
	</clipPath>
	<g id="Calque_1-2" style="clip-path:url(#SVGID_00000103957004231731532990000007261385016018576280_);">
		<rect x="-337.5" y="-103.7" class="st1" width="1955" height="1231.4"/>
		
			<radialGradient id="SVGID_00000164512308362794888420000007117321217013876362_" cx="7860.1265" cy="1023.0086" r="1365.7622" gradientTransform="matrix(0.1462 0.4782 -0.4782 0.1462 -934.7852 -3734.1877)" gradientUnits="userSpaceOnUse">
			<stop  offset="0" style="stop-color:#18F5B0"/>
			<stop  offset="1" style="stop-color:#05475C;stop-opacity:0"/>
		</radialGradient>
		
			<circle style="opacity:0.34;fill:url(#SVGID_00000164512308362794888420000007117321217013876362_);enable-background:new    ;" cx="-274.9" cy="173.7" r="682.7"/>
		
			<radialGradient id="SVGID_00000163054561978557398230000006182855309322953892_" cx="1493.9199" cy="10722.2314" r="1365.4" gradientTransform="matrix(0.5 0 0 0.5 -106.96 -4407.2158)" gradientUnits="userSpaceOnUse">
			<stop  offset="0" style="stop-color:#18F5B0"/>
			<stop  offset="1" style="stop-color:#05475C;stop-opacity:0"/>
		</radialGradient>
		
			<circle style="opacity:0.34;fill:url(#SVGID_00000163054561978557398230000006182855309322953892_);enable-background:new    ;" cx="640" cy="953.9" r="682.7"/>
		
			<linearGradient id="SVGID_00000160878600118993243730000003736921871944975801_" gradientUnits="userSpaceOnUse" x1="-1484.1664" y1="2222.1619" x2="-1043.9698" y2="2222.1619" gradientTransform="matrix(0.9911 0.1333 -0.1333 0.9911 1399.6757 -1945.5479)">
			<stop  offset="0" style="stop-color:#18F5B0"/>
			<stop  offset="1" style="stop-color:#05475C;stop-opacity:0"/>
		</linearGradient>
		
			<polygon style="opacity:0.12;fill:url(#SVGID_00000160878600118993243730000003736921871944975801_);enable-background:new    ;" points="
			33.6,379.5 -406.7,350.8 -190.7,-214.4 -19.3,-167.7 		"/>
		
			<linearGradient id="SVGID_00000174583919448910490100000015762333021935325587_" gradientUnits="userSpaceOnUse" x1="-1844.0824" y1="-179.5124" x2="-1292.301" y2="-179.5124" gradientTransform="matrix(1.727786e-02 -0.9999 0.9999 1.727786e-02 -39.1737 -1554.0707)">
			<stop  offset="0" style="stop-color:#18F5B0"/>
			<stop  offset="1" style="stop-color:#05475C;stop-opacity:0"/>
		</linearGradient>
		
			<polygon style="opacity:0.12;fill:url(#SVGID_00000174583919448910490100000015762333021935325587_);enable-background:new    ;" points="
			121.5,-258.8 -215.1,81.5 -362.5,284.7 -509.4,27.1 -605.2,-171.5 -356.9,-261.3 		"/>
		
			<linearGradient id="SVGID_00000095305793649852572630000009232434866367935111_" gradientUnits="userSpaceOnUse" x1="-2690.7837" y1="1210.0142" x2="-2022.4109" y2="1210.0142" gradientTransform="matrix(-0.9662 0.258 -0.258 -0.9662 -2005.2518 1816.4921)">
			<stop  offset="0" style="stop-color:#AABDCB"/>
			<stop  offset="1" style="stop-color:#05475C;stop-opacity:0"/>
		</linearGradient>
		
			<polygon style="opacity:0.12;fill:url(#SVGID_00000095305793649852572630000009232434866367935111_);enable-background:new    ;" points="
			315.2,76.5 123.6,199.9 -374.8,83.2 41.6,-186.7 		"/>
		
			<linearGradient id="SVGID_00000060019490685363496370000009479910427575751339_" gradientUnits="userSpaceOnUse" x1="-3824.4175" y1="-4175.7529" x2="-3106.5574" y2="-4175.7529" gradientTransform="matrix(-0.6594 0.1189 -3.673066e-02 -0.9892 -2459.3811 -3516.2883)">
			<stop  offset="0" style="stop-color:#18F5B0"/>
			<stop  offset="1" style="stop-color:#05475C;stop-opacity:0"/>
		</linearGradient>
		
			<polygon style="opacity:0.12;fill:url(#SVGID_00000060019490685363496370000009479910427575751339_);enable-background:new    ;" points="
			-35.2,258.4 -251,426.9 -211.3,53.5 207.4,-15.3 		"/>
		
			<linearGradient id="SVGID_00000125586087273793375430000000982053063389233322_" gradientUnits="userSpaceOnUse" x1="-117.6359" y1="2525.1714" x2="274.7935" y2="2525.1714" gradientTransform="matrix(0.9995 -3.245742e-02 3.245742e-02 0.9995 -349.3242 -2505.0793)">
			<stop  offset="0" style="stop-color:#18F5B0"/>
			<stop  offset="1" style="stop-color:#05475C;stop-opacity:0"/>
		</linearGradient>
		
			<polygon style="opacity:0.12;fill:url(#SVGID_00000125586087273793375430000000982053063389233322_);enable-background:new    ;" points="
			-57,-135.8 17,309 -376.5,282.4 -104.5,-286 		"/>
		<g>
			
				<radialGradient id="SVGID_00000001634835967122673540000017072888091767127432_" cx="3024.1702" cy="-3643.7561" r="258.1549" gradientTransform="matrix(0.8857 0.4642 0.4642 -0.8857 -440.8434 -3788.2319)" gradientUnits="userSpaceOnUse">
				<stop  offset="0" style="stop-color:#18F5B0"/>
				<stop  offset="1" style="stop-color:#05475C;stop-opacity:0"/>
			</radialGradient>
			
				<circle style="opacity:0.34;fill:url(#SVGID_00000001634835967122673540000017072888091767127432_);enable-background:new    ;" cx="546.2" cy="843" r="257.8"/>
			
				<radialGradient id="SVGID_00000074420109188485316930000016747488013749031054_" cx="2999.7026" cy="-3636.7092" r="258.1503" gradientTransform="matrix(0.8857 0.4642 0.4642 -0.8857 -440.8434 -3788.2319)" gradientUnits="userSpaceOnUse">
				<stop  offset="0" style="stop-color:#DAC9BA"/>
				<stop  offset="1" style="stop-color:#05475C;stop-opacity:0"/>
			</radialGradient>
			
				<circle style="opacity:0.34;fill:url(#SVGID_00000074420109188485316930000016747488013749031054_);enable-background:new    ;" cx="527.8" cy="825.4" r="257.8"/>
			
				<linearGradient id="SVGID_00000053526576053459205670000006197261655866226560_" gradientUnits="userSpaceOnUse" x1="1787.7476" y1="-2524.6589" x2="2050.0439" y2="-2524.6589" gradientTransform="matrix(0.7966 0.6045 0.6045 -0.7966 536.7975 -2354.1003)">
				<stop  offset="0" style="stop-color:#AABDCB"/>
				<stop  offset="1" style="stop-color:#05475C;stop-opacity:0"/>
			</linearGradient>
			
				<polygon style="opacity:0.34;fill:url(#SVGID_00000053526576053459205670000006197261655866226560_);enable-background:new    ;" points="
				502.4,908 367.7,827 579.5,707.2 642.4,898.9 			"/>
			
				<linearGradient id="SVGID_00000014599305282670173270000006531325915076653486_" gradientUnits="userSpaceOnUse" x1="1846.8975" y1="-2611.1182" x2="2120.3652" y2="-2611.1182" gradientTransform="matrix(0.7966 0.6045 0.6045 -0.7966 536.7975 -2354.1003)">
				<stop  offset="0" style="stop-color:#AABDCB"/>
				<stop  offset="1" style="stop-color:#05475C;stop-opacity:0"/>
			</linearGradient>
			
				<polygon style="opacity:0.34;fill:url(#SVGID_00000014599305282670173270000006531325915076653486_);enable-background:new    ;" points="
				470.7,789.1 579.5,707.2 638.4,1020.5 481.3,1064 352.2,1032.3 			"/>
			
				<linearGradient id="SVGID_00000002343946841944813450000000013128709337192581_" gradientUnits="userSpaceOnUse" x1="-5063.7563" y1="-3022.4526" x2="-4867.6816" y2="-3022.4526" gradientTransform="matrix(0.5032 -0.8642 -0.8642 -0.5032 310.0089 -4958.7349)">
				<stop  offset="0" style="stop-color:#AABDCB"/>
				<stop  offset="1" style="stop-color:#05475C;stop-opacity:0"/>
			</linearGradient>
			
				<polygon style="opacity:0.34;fill:url(#SVGID_00000002343946841944813450000000013128709337192581_);enable-background:new    ;" points="
				584.2,849.3 498.2,1010.4 367.7,827 278.3,817 375.2,763.5 400.8,726.8 			"/>
			
				<linearGradient id="SVGID_00000010296887242630545270000015073723340710293660_" gradientUnits="userSpaceOnUse" x1="1475.5288" y1="4186.5728" x2="1783.2582" y2="4186.5728" gradientTransform="matrix(-0.4642 0.8857 0.8857 0.4642 -2416.7983 -2468.3037)">
				<stop  offset="0" style="stop-color:#18F5B0"/>
				<stop  offset="1" style="stop-color:#05475C;stop-opacity:0"/>
			</linearGradient>
			
				<polygon style="opacity:0.34;fill:url(#SVGID_00000010296887242630545270000015073723340710293660_);enable-background:new    ;" points="
				623.7,791.2 621.8,892.4 481.3,1064 482.2,879.2 			"/>
			
				<linearGradient id="SVGID_00000015315978620134176370000013679766384078463624_" gradientUnits="userSpaceOnUse" x1="4642.2568" y1="-3947.7622" x2="4937.2769" y2="-3947.7622" gradientTransform="matrix(0.6667 0.2973 0.503 -0.8597 -731.7307 -3997.7449)">
				<stop  offset="0" style="stop-color:#18F5B0"/>
				<stop  offset="1" style="stop-color:#05475C;stop-opacity:0"/>
			</linearGradient>
			
				<polygon style="opacity:0.34;fill:url(#SVGID_00000015315978620134176370000013679766384078463624_);enable-background:new    ;" points="
				583.3,747.8 510.1,955 375.2,763.5 463.9,718 			"/>
			
				<linearGradient id="SVGID_00000099620732314136169000000018301092553285971614_" gradientUnits="userSpaceOnUse" x1="-5871.1279" y1="2838.2998" x2="-5560.1094" y2="2838.2998" gradientTransform="matrix(-0.7966 -0.6045 -0.6045 0.7966 -2428.957 -4813.4995)">
				<stop  offset="0" style="stop-color:#18F5B0"/>
				<stop  offset="1" style="stop-color:#05475C;stop-opacity:0"/>
			</linearGradient>
			
				<polygon style="opacity:0.34;fill:url(#SVGID_00000099620732314136169000000018301092553285971614_);enable-background:new    ;" points="
				550,837 481.3,1064 352.2,1032.3 278.3,817 482.2,879.2 			"/>
		</g>
		<g class="st17">
			<path class="st18" d="M524.9,973.3c-0.6,0,0.1,0.3,0.9,0.4c0.2-0.2,0.4-0.4,0.6-0.5C525.9,973.3,525.4,973.3,524.9,973.3"/>
			<path class="st18" d="M528.2,972.5c0.4-0.5,0.6-1.1,0.7-1.6c-0.1,0.4-0.3,0.8-0.5,1.1c-1.2,0.7-0.1-0.4,0-0.9
				C527.2,972.6,528.2,972,528.2,972.5"/>
			<path class="st18" d="M529.4,969.2c0.1-1.1-0.2-0.8-0.3-0.3C529.2,969,529.3,969.7,529.4,969.2"/>
			<path class="st18" d="M522.5,953.9c0.3,0.1,0.7,0.1,0.7,0.2C523.5,954,523.6,954,522.5,953.9"/>
			<path class="st18" d="M533.5,969.7c0,1-0.3,1.5-0.6,2.4l-0.5,0.3c-0.4,0.9,0,0.5-0.3,1.2c-0.7,0.6-2.1,1.9-2.5,2
				c-0.3,0,0.2-0.4,0.3-0.5c-0.9,0.6-0.7,0.9-2.1,1.3v-0.1c-3.5,1.6-8.3-1.6-8.2-6c0,0.3-0.1,0.2-0.2,0.3c-0.2-2.3,1-4.5,3.1-5.5
				c2-1,4.4-0.6,5.8,0.8c-0.8-1-2.4-2.1-4.3-2c-1.8,0-3.6,1.2-4.1,2.5c-0.9,0.6-1.1,2.3-1.5,2.6c-0.6,4.1,1,5.8,3.7,7.9
				c0.4,0.3,0.1,0.3,0.2,0.5c-0.9-0.4-1.7-1.1-2.4-1.8c0.4,0.5,0.7,1,1.2,1.4c-0.8-0.3-2-2-2.3-2.1c1.5,2.6,5.9,4.6,8.2,3.6
				c-1.1,0-2.4,0-3.7-0.4c-0.5-0.3-1.2-0.8-1.1-0.9c3.2,1.2,6.5,0.9,9.2-1.3c0.7-0.5,1.5-1.5,1.7-1.5c-0.3,0.5,0.1,0.2-0.2,0.7
				c0.7-1.1-0.3-0.5,0.7-1.9l0.4,0.5c-0.1-0.9,1.2-2.1,1-3.5c0.3-0.5,0.3,0.5,0,1.5c0.4-1.2,0.1-1.3,0.2-2.3c0.1,0.3,0.3,0.7,0.4,1
				c-0.3-1.1,0.3-1.9,0.4-2.5c-0.1-0.1-0.4,0.5-0.5-0.8c0-0.6,0.2-0.3,0.2-0.4c-0.1-0.1-0.4-0.5-0.6-1.3c0.1-0.2,0.3,0.5,0.5,0.5
				c-0.1-0.7-0.3-1.2-0.3-1.7c-0.5-1.1-0.2,0.1-0.6-0.5c-0.5-1.7,0.5-0.4,0.5-1.2c0.8,1.2,1.3,3.1,1.5,3.8c-0.2-0.9-0.4-1.9-0.8-2.7
				c0.3,0.1-0.4-1.9,0.3-0.6c-0.8-2.9-3.4-5.6-5.7-6.9c0.3,0.3,0.7,0.6,0.5,0.7c-1.2-0.7-1-0.8-1.1-1.1c-1-0.4-1,0-1.7,0
				c-1.8-1-2.2-0.9-3.8-1.5l0.1,0.4c-1.2-0.4-1.4,0.2-2.7,0c-0.1-0.1,0.4-0.2,0.8-0.3c-1.2,0.2-1.1-0.2-2.2,0
				c0.3-0.2,0.6-0.3,0.9-0.5c-0.9,0.1-2.3,0.6-1.9,0.1c-1.5,0.7-4.3,1.7-5.8,3.1v-0.3c-0.7,0.8-3.1,2.5-3.3,3.6h-0.2
				c-0.4,0.6-0.6,1.3-0.9,2c-0.5,0.8-0.7,0.3-0.6,0.4c-0.9,1.9-1.4,3.5-1.8,4.8c0.3,0.4,0,2.6,0.1,4.3c-0.5,8.6,6,16.9,13.1,18.8
				c1,0.4,2.6,0.4,3.9,0.4c-1.5-0.4-1.7-0.2-3.3-0.8c-1.1-0.5-1.3-1.1-2.1-1.8l0.3,0.5c-1.5-0.5-0.9-0.7-2.1-1.1l0.3-0.4
				c-0.5,0-1.3-0.8-1.5-1.3H515c-0.6-0.8-1-1.4-1-1.8l-0.2,0.3c-0.2-0.3-2.4-3-1.2-2.4c-0.2-0.2-0.5-0.3-0.8-0.9l0.2-0.3
				c-0.5-0.7-1-1.6-1-1.9c0.3,0.4,0.5,0.5,0.7,0.5c-1.4-3.4-1.4-0.2-2.5-3.5h0.2c-0.2-0.3-0.3-0.5-0.4-0.8l0.1-1
				c-1-1.1-0.3-4.8-0.1-6.9c0.1-0.8,0.8-1.7,1.4-3.1l-0.3-0.1c0.6-1.1,3.7-4.5,5.1-4.3c0.7-0.9-0.1,0-0.3-0.2c1.5-1.5,2-1.1,3-1.4
				c1.1-0.6-0.9,0.3-0.4-0.2c1.9-0.5,1.3-1.1,3.8-1.3c0.3,0.1-0.6,0.2-0.8,0.4c1.6-0.8,4.9-0.6,7.1,0.4c2.5,1.2,5.4,4.7,5.5,8h0.1
				c-0.1,1.3,0.2,2.8-0.3,4.2L533.5,969.7"/>
			<path class="st18" d="M518.1,974.1l-0.1,0.4c0.4,0.6,0.7,1.2,1.3,1.6C518.9,975.4,518.6,975.1,518.1,974.1"/>
			<path class="st18" d="M519,974.1c-0.2-0.2-0.3-0.5-0.5-0.8c0.1,0.5,0.4,0.9,0.7,1.4L519,974.1"/>
			<path class="st18" d="M536.1,970.4l-0.1,0.2c-0.2,1.2-0.5,2.4-1.1,3.5C535.6,972.9,536,971.7,536.1,970.4"/>
			<path class="st18" d="M522.6,953.6c0.4-0.2,1-0.1,1.5-0.2c-0.6,0-1.2,0.1-1.7,0.2H522.6"/>
			<path class="st18" d="M507.9,961.5c0.1,0.9-0.7,1.2,0.2,0.7C508.5,961.1,507.9,961.9,507.9,961.5"/>
			<path class="st18" d="M506.9,965.6c0.2-0.6,0.2-1,0.3-1.3C506.6,965,506.9,965.2,506.9,965.6"/>
		</g>
		<g>
			<g class="st17">
				<path class="st18" d="M568.5,967.9c0,0,0,7.5-0.1,9.4c-0.1,1.6-0.2,5-3.6,5s-4.3-3.9-4.5-5.7c-0.3-1.9-0.3-3.5-0.3-4.2
					c0-2.2,0.1-8.4,5.4-8.4c1.6,0,2.5,0.5,3.1,0.8L568.5,967.9L568.5,967.9z M555.1,973.4c0,13.1,6.9,13.1,8,13.1
					c2.9,0,4.7-1.6,5.5-4.3l0.1,4.1c0.9,0,1.8-0.1,3.2-0.1h1.3c0.4,0,0.8,0,1.1,0.1c-0.8-1.5-1.3-4.8-1.3-12.1s0-19,0.6-22.6
					c-1.7,0.8-3.1,1.3-6.3,1.6c1.3,1.4,1.3,2,1.3,8.2c-0.9-0.3-2-0.6-3.9-0.6C556.4,960.7,555.1,968,555.1,973.4"/>
				<path class="st18" d="M580.2,971c0-3.9,0.8-7.3,4.1-7.3c3.6,0,3.9,4,3.8,7.3H580.2L580.2,971z M592.8,971.5
					c0-5.4-1.1-10.8-7.9-10.8c-9.4,0-9.4,10.5-9.4,12.7c0,9.4,4.2,13.1,11.3,13.1c3.1,0,4.7-0.5,5.5-0.7c0-1.7,0.2-2.8,0.5-4.2
					c-1,0.6-2.2,1.4-5,1.4c-7.2,0-7.3-6.6-7.3-8.9h12.3L592.8,971.5"/>
				<path class="st18" d="M607.8,973.5c0,4.3-0.8,10.1-6.2,10.1c-0.8,0-1.7-0.1-2.3-0.3c-0.1-1.7-0.1-4.5-0.1-7.9
					c0-4,0.4-6.1,0.8-7.1c1-3.3,3.1-3.3,3.6-3.3C607.2,965,607.8,969.9,607.8,973.5z M594.5,978.5c0,3.4,0,5.4-0.6,6.9
					c1.9,0.8,4.3,1.1,7.1,1.1c1.8,0,7,0,9.9-5.8c1.4-2.7,1.8-6.3,1.8-9.1c0-1.7-0.2-5.3-1.5-7.7c-1.3-2.2-3.4-3.3-5.6-3.3
					c-4.4,0-5.8,3.7-6.4,5.6c0-2.4,0-10.6,0.4-14.8c-3,1.4-4.9,1.6-6.9,1.8c1.8,0.7,1.8,3.8,1.8,13.8V978.5"/>
				<path class="st18" d="M621.7,986.2c-0.9-0.1-1.6-0.2-2.9-0.2c-1.5,0-2.5,0.1-3.6,0.2c0.5-0.9,0.6-1.3,0.8-4.3
					c0.2-4.2,0.2-15.2-0.1-17.5c-0.2-1.8-0.6-2-1.3-2.5c3.8-0.4,4.9-0.6,6.7-1.5c-0.4,2-0.4,3.1-0.4,6.2
					C620.7,982.6,620.7,984.3,621.7,986.2"/>
				<path class="st18" d="M636.6,973.1c-0.1,2.9-0.1,5-0.9,6.6c-1,2.1-2.6,2.7-3.8,2.7c-2.8,0-3.4-2.3-3.4-4.6
					c0-4.4,3.9-4.7,5.7-4.7H636.6z M623.8,978.8c0,2.9,0.9,5.8,3.5,7.1c1.1,0.5,2.3,0.5,2.7,0.5c4.3,0,5.7-3.2,6.6-5.1
					c0,2,0,3.3,0.1,4.9c0.8,0,1.7-0.1,3.1-0.1c0.8,0,1.5,0.1,2.3,0.1c-0.5-0.8-0.8-1.3-0.9-3.1c-0.1-1.8-0.1-3.5-0.1-6v-9.4
					c0-3.5-0.9-7-7.9-7c-4.6,0-7.3,1.4-8.6,2.1c0.6,1,1,1.9,1.4,3.9c1.8-1.6,4.2-2.4,6.6-2.4c3.9,0,3.9,2.5,3.9,6.2
					c-0.9,0-1.6-0.1-2.9-0.1C627.7,970.4,623.8,972.6,623.8,978.8"/>
				<path class="st18" d="M663.3,981.7c0,1.6,0,3.3,0.7,4.6c-1-0.1-1.6-0.2-3.5-0.2c-1.1,0-1.7,0.1-2.6,0.2c0.2-0.6,0.3-0.8,0.4-1.6
					c0.1-1.1,0.2-4.7,0.2-5.9v-5c0-2.2,0-5.3-0.1-6.4c-0.1-0.8-0.3-2.9-3-2.9s-3.5,1.9-3.9,3.5s-0.4,3.4-0.4,10.3
					c0,5.9,0,6.5,0.5,8.1c-0.8-0.1-1.8-0.2-3.1-0.2c-1.1,0-1.9,0-2.8,0.2c0.3-0.8,0.5-1.1,0.6-3.7c0.1-2.5,0.3-15.1-0.1-18
					c-0.2-1.8-0.7-2.2-1.2-2.7c3.8-0.2,5-0.8,6.1-1.4v4.9c0.6-1.4,1.7-4.7,6.4-4.7c5.8,0,5.8,4.2,5.9,7L663.3,981.7"/>
				<path class="st18" d="M622.1,953.9l-3.9,3.9l-3.9-3.9l3.9-3.9L622.1,953.9"/>
			</g>
			<g>
				<path class="st18" d="M693.6,971.2c0,5,0.1,7.9,0.2,10.5c0.2,3.2,0.5,3.9,0.9,4.8c-1.4-0.2-2.7-0.2-4-0.2
					c-1.5,0-2.1,0.1-3.3,0.2c0.5-1.3,0.7-2,0.8-4.7c0.1-2,0.2-4.5,0.2-10.5v-5.9c-0.2-7.6-0.2-8.4-0.3-9.9c-2.2,0.9-4.4,1.8-6.6,2.9
					c0.1-0.6,0.1-1.1,0.2-1.6c0-1-0.1-1.5-0.2-2.2c2.5-0.6,8.1-2.1,12.2-5c-0.2,3.9-0.3,6.7-0.3,14.5v7.1L693.6,971.2L693.6,971.2z"
					/>
				<path class="st18" d="M715.2,981.3c7,0,7.9-0.1,9.7-1.4c-0.2,1.2-0.3,2.1-0.3,4c0,1.3,0.1,2,0.2,2.7c-3.2-0.2-6.5-0.3-9.7-0.3
					c-5,0-9.5,0.1-11,0.3c0.1-0.6,0.2-1.4,0.2-2.5s-0.1-1.8-0.2-2.4c1.5-1.3,3-2.4,6.1-5.7c6.1-6.5,8.5-10.4,8.5-14.5
					s-2.6-6.5-7-6.5c-2.3,0-4.3,0.5-6.2,1.8c0.1-1.2,0.3-2.1,0.2-3.1c0-0.9,0-1.5-0.1-2c2.6-0.9,5.1-1.3,7.8-1.3
					c7.2,0,10.8,3.7,10.8,9.1c0,4.5-2.5,8.1-4,10.1c-1.9,2.7-5.5,6.8-11,11.8L715.2,981.3L715.2,981.3L715.2,981.3z"/>
			</g>
		</g>
	</g>
</g>
</svg>
