<?xml version="1.0" encoding="utf-8"?>
<!-- Generator: Adobe Illustrator 26.5.0, SVG Export Plug-In . SVG Version: 6.00 Build 0)  -->
<svg version="1.1" id="Calque_1" xmlns="http://www.w3.org/2000/svg" xmlns:xlink="http://www.w3.org/1999/xlink" x="0px" y="0px"
	 viewBox="0 0 1600 1200" style="enable-background:new 0 0 1600 1200;" xml:space="preserve">
<style type="text/css">
	.st0{clip-path:url(#SVGID_00000051361384506720107600000016772675128039157659_);}
	.st1{fill:#05475C;}
	.st2{opacity:0.34;fill:url(#SVGID_00000065780957656089466180000006135697938953836965_);enable-background:new    ;}
	.st3{opacity:0.34;fill:url(#SVGID_00000057109148577271780050000016295768480538098832_);enable-background:new    ;}
	.st4{opacity:0.12;fill:url(#SVGID_00000074403570282186716460000003952114706252795299_);enable-background:new    ;}
	.st5{opacity:0.12;fill:url(#SVGID_00000106123649429259792510000009490493025041999233_);enable-background:new    ;}
	.st6{opacity:0.12;fill:url(#SVGID_00000114057727716776995700000004241006312400730249_);enable-background:new    ;}
	.st7{opacity:0.12;fill:url(#SVGID_00000075126975959083328580000014873950455973692042_);enable-background:new    ;}
	.st8{opacity:0.12;fill:url(#SVGID_00000107577500235986253100000013147308387661204373_);enable-background:new    ;}
	.st9{opacity:0.34;fill:url(#SVGID_00000048491848563205273360000014903362899251804863_);enable-background:new    ;}
	.st10{opacity:0.34;fill:url(#SVGID_00000124876714632295348520000007369427539475369367_);enable-background:new    ;}
	.st11{opacity:0.34;fill:url(#SVGID_00000004527200606149794960000002552502187658120639_);enable-background:new    ;}
	.st12{opacity:0.34;fill:url(#SVGID_00000063618094499855790590000015439597997059952566_);enable-background:new    ;}
	.st13{opacity:0.34;fill:url(#SVGID_00000029026814105256384820000013153715387856998277_);enable-background:new    ;}
	.st14{opacity:0.34;fill:url(#SVGID_00000054976916660207298430000000602721916633098373_);enable-background:new    ;}
	.st15{opacity:0.34;fill:url(#SVGID_00000116931859325286854200000008063027446530033810_);enable-background:new    ;}
	.st16{opacity:0.34;fill:url(#SVGID_00000143597534965044582760000011363248861977267605_);enable-background:new    ;}
	.st17{opacity:0.71;}
	.st18{fill:#FFFFFF;}
</style>
<g>
	<defs>
		<rect id="SVGID_1_" width="1600" height="1200"/>
	</defs>
	<clipPath id="SVGID_00000015330158181263700680000003200359855951793567_">
		<use xlink:href="#SVGID_1_"  style="overflow:visible;"/>
	</clipPath>
	<g id="Calque_1-2" style="clip-path:url(#SVGID_00000015330158181263700680000003200359855951793567_);">
		<rect x="-177.5" y="-15.7" class="st1" width="1955" height="1231.4"/>
		
			<radialGradient id="SVGID_00000136401978540075523220000013949050036318614952_" cx="7918.2402" cy="1277.5577" r="1365.7622" gradientTransform="matrix(0.1462 0.4782 -0.4782 0.1462 -661.5674 -3711.1863)" gradientUnits="userSpaceOnUse">
			<stop  offset="0" style="stop-color:#18F5B0"/>
			<stop  offset="1" style="stop-color:#05475C;stop-opacity:0"/>
		</radialGradient>
		
			<circle style="opacity:0.34;fill:url(#SVGID_00000136401978540075523220000013949050036318614952_);enable-background:new    ;" cx="-114.9" cy="261.7" r="682.7"/>
		
			<radialGradient id="SVGID_00000122705257893360774940000008439107942813320097_" cx="1493.9199" cy="10546.2314" r="1365.4" gradientTransform="matrix(0.5 0 0 0.5 53.04 -4231.2158)" gradientUnits="userSpaceOnUse">
			<stop  offset="0" style="stop-color:#18F5B0"/>
			<stop  offset="1" style="stop-color:#05475C;stop-opacity:0"/>
		</radialGradient>
		
			<circle style="opacity:0.34;fill:url(#SVGID_00000122705257893360774940000008439107942813320097_);enable-background:new    ;" cx="800" cy="1041.9" r="682.7"/>
		
			<linearGradient id="SVGID_00000124864462489603927200000000174422181273335956_" gradientUnits="userSpaceOnUse" x1="-1334.5133" y1="2156.2576" x2="-894.3167" y2="2156.2576" gradientTransform="matrix(0.9911 0.1333 -0.1333 0.9911 1402.5732 -1812.1794)">
			<stop  offset="0" style="stop-color:#18F5B0"/>
			<stop  offset="1" style="stop-color:#05475C;stop-opacity:0"/>
		</linearGradient>
		
			<polygon style="opacity:0.12;fill:url(#SVGID_00000124864462489603927200000000174422181273335956_);enable-background:new    ;" points="
			193.6,467.5 -246.7,438.8 -30.7,-126.4 140.7,-79.7 		"/>
		
			<linearGradient id="SVGID_00000127042566695628996350000011931231808415676602_" gradientUnits="userSpaceOnUse" x1="-1438.8568" y1="-341.0266" x2="-887.0755" y2="-341.0266" gradientTransform="matrix(1.727786e-02 -0.9999 0.9999 1.727786e-02 275.315 -1058.115)">
			<stop  offset="0" style="stop-color:#18F5B0"/>
			<stop  offset="1" style="stop-color:#05475C;stop-opacity:0"/>
		</linearGradient>
		
			<polygon style="opacity:0.12;fill:url(#SVGID_00000127042566695628996350000011931231808415676602_);enable-background:new    ;" points="
			281.5,-170.8 -55.1,169.5 -202.5,372.7 -349.4,115.1 -445.2,-83.5 -196.9,-173.3 		"/>
		
			<linearGradient id="SVGID_00000020382345124810093570000009367327641995867544_" gradientUnits="userSpaceOnUse" x1="-2238.8865" y1="1336.3234" x2="-1570.5135" y2="1336.3234" gradientTransform="matrix(-0.9662 0.258 -0.258 -0.9662 -1376.0659 1909.9473)">
			<stop  offset="0" style="stop-color:#AABDCB"/>
			<stop  offset="1" style="stop-color:#05475C;stop-opacity:0"/>
		</linearGradient>
		
			<polygon style="opacity:0.12;fill:url(#SVGID_00000020382345124810093570000009367327641995867544_);enable-background:new    ;" points="
			475.2,164.5 283.6,287.9 -214.8,171.2 201.6,-98.7 		"/>
		
			<linearGradient id="SVGID_00000067947652821666038170000014372989440119981957_" gradientUnits="userSpaceOnUse" x1="-3268.2979" y1="-4058.6267" x2="-2550.4377" y2="-4058.6267" gradientTransform="matrix(-0.6594 0.1189 -3.673066e-02 -0.9892 -1928.7695 -3378.4712)">
			<stop  offset="0" style="stop-color:#18F5B0"/>
			<stop  offset="1" style="stop-color:#05475C;stop-opacity:0"/>
		</linearGradient>
		
			<polygon style="opacity:0.12;fill:url(#SVGID_00000067947652821666038170000014372989440119981957_);enable-background:new    ;" points="
			124.8,346.4 -91,514.9 -51.3,141.5 367.4,72.7 		"/>
		
			<linearGradient id="SVGID_00000038387072850809828150000005947625943122057113_" gradientUnits="userSpaceOnUse" x1="45.3057" y1="2432.0112" x2="437.735" y2="2432.0112" gradientTransform="matrix(0.9995 -3.245742e-02 3.245742e-02 0.9995 -349.1562 -2318.6797)">
			<stop  offset="0" style="stop-color:#18F5B0"/>
			<stop  offset="1" style="stop-color:#05475C;stop-opacity:0"/>
		</linearGradient>
		
			<polygon style="opacity:0.12;fill:url(#SVGID_00000038387072850809828150000005947625943122057113_);enable-background:new    ;" points="
			103,-47.8 177,397 -216.5,370.4 55.5,-198 		"/>
		<g>
			
				<radialGradient id="SVGID_00000123419967097615797230000012659649908682633150_" cx="3161.5969" cy="-3640.1045" r="258.1662" gradientTransform="matrix(0.8857 0.4642 0.4642 -0.8857 -404.2599 -3760.7947)" gradientUnits="userSpaceOnUse">
				<stop  offset="0" style="stop-color:#18F5B0"/>
				<stop  offset="1" style="stop-color:#05475C;stop-opacity:0"/>
			</radialGradient>
			
				<circle style="opacity:0.34;fill:url(#SVGID_00000123419967097615797230000012659649908682633150_);enable-background:new    ;" cx="706.2" cy="931" r="257.8"/>
			
				<radialGradient id="SVGID_00000043458517459487827460000004603156211860272564_" cx="3137.1294" cy="-3633.0576" r="258.1615" gradientTransform="matrix(0.8857 0.4642 0.4642 -0.8857 -404.2599 -3760.7947)" gradientUnits="userSpaceOnUse">
				<stop  offset="0" style="stop-color:#DAC9BA"/>
				<stop  offset="1" style="stop-color:#05475C;stop-opacity:0"/>
			</radialGradient>
			
				<circle style="opacity:0.34;fill:url(#SVGID_00000043458517459487827460000004603156211860272564_);enable-background:new    ;" cx="687.8" cy="913.4" r="257.8"/>
			
				<linearGradient id="SVGID_00000072978083034427428620000003957314965188754356_" gradientUnits="userSpaceOnUse" x1="1927.0934" y1="-2551.2502" x2="2189.3899" y2="-2551.2502" gradientTransform="matrix(0.7966 0.6045 0.6045 -0.7966 601.8533 -2371.52)">
				<stop  offset="0" style="stop-color:#AABDCB"/>
				<stop  offset="1" style="stop-color:#05475C;stop-opacity:0"/>
			</linearGradient>
			
				<polygon style="opacity:0.34;fill:url(#SVGID_00000072978083034427428620000003957314965188754356_);enable-background:new    ;" points="
				662.4,996 527.7,915 739.5,795.2 802.4,986.9 			"/>
			
				<linearGradient id="SVGID_00000182489389453556581670000000475182427299294609_" gradientUnits="userSpaceOnUse" x1="1986.2434" y1="-2637.7095" x2="2259.7112" y2="-2637.7095" gradientTransform="matrix(0.7966 0.6045 0.6045 -0.7966 601.8533 -2371.52)">
				<stop  offset="0" style="stop-color:#AABDCB"/>
				<stop  offset="1" style="stop-color:#05475C;stop-opacity:0"/>
			</linearGradient>
			
				<polygon style="opacity:0.34;fill:url(#SVGID_00000182489389453556581670000000475182427299294609_);enable-background:new    ;" points="
				630.7,877.1 739.5,795.2 798.4,1108.5 641.3,1152 512.2,1120.3 			"/>
			
				<linearGradient id="SVGID_00000046332659773977139620000008643226936419619990_" gradientUnits="userSpaceOnUse" x1="-4748.2139" y1="-2839.9077" x2="-4552.1392" y2="-2839.9077" gradientTransform="matrix(0.5032 -0.8642 -0.8642 -0.5032 468.99 -4506.1963)">
				<stop  offset="0" style="stop-color:#AABDCB"/>
				<stop  offset="1" style="stop-color:#05475C;stop-opacity:0"/>
			</linearGradient>
			
				<polygon style="opacity:0.34;fill:url(#SVGID_00000046332659773977139620000008643226936419619990_);enable-background:new    ;" points="
				744.2,937.3 658.2,1098.4 527.7,915 438.3,905 535.2,851.5 560.8,814.8 			"/>
			
				<linearGradient id="SVGID_00000043440762695611551630000008469090008556402310_" gradientUnits="userSpaceOnUse" x1="1791.8638" y1="4003.9949" x2="2099.593" y2="4003.9949" gradientTransform="matrix(-0.4642 0.8857 0.8857 0.4642 -1948.2356 -2575.7302)">
				<stop  offset="0" style="stop-color:#18F5B0"/>
				<stop  offset="1" style="stop-color:#05475C;stop-opacity:0"/>
			</linearGradient>
			
				<polygon style="opacity:0.34;fill:url(#SVGID_00000043440762695611551630000008469090008556402310_);enable-background:new    ;" points="
				783.7,879.2 781.8,980.4 641.3,1152 642.2,967.2 			"/>
			
				<linearGradient id="SVGID_00000167358404704577735280000000606433738365022626_" gradientUnits="userSpaceOnUse" x1="4710.6826" y1="-3932.158" x2="5005.7026" y2="-3932.158" gradientTransform="matrix(0.6667 0.2973 0.503 -0.8597 -624.744 -3916.4668)">
				<stop  offset="0" style="stop-color:#18F5B0"/>
				<stop  offset="1" style="stop-color:#05475C;stop-opacity:0"/>
			</linearGradient>
			
				<polygon style="opacity:0.34;fill:url(#SVGID_00000167358404704577735280000000606433738365022626_);enable-background:new    ;" points="
				743.3,835.8 670.1,1043 535.2,851.5 623.9,806 			"/>
			
				<linearGradient id="SVGID_00000070112673489136504610000010592575922946745258_" gradientUnits="userSpaceOnUse" x1="-5370.4697" y1="2864.9221" x2="-5059.4512" y2="2864.9221" gradientTransform="matrix(-0.7966 -0.6045 -0.6045 0.7966 -1854.0229 -4444.0801)">
				<stop  offset="0" style="stop-color:#18F5B0"/>
				<stop  offset="1" style="stop-color:#05475C;stop-opacity:0"/>
			</linearGradient>
			
				<polygon style="opacity:0.34;fill:url(#SVGID_00000070112673489136504610000010592575922946745258_);enable-background:new    ;" points="
				710,925 641.3,1152 512.2,1120.3 438.3,905 642.2,967.2 			"/>
		</g>
		<g class="st17">
			<path class="st18" d="M684.9,1061.3c-0.6,0,0.1,0.3,0.9,0.4c0.2-0.2,0.4-0.4,0.6-0.5C685.9,1061.3,685.4,1061.3,684.9,1061.3"/>
			<path class="st18" d="M688.2,1060.5c0.4-0.5,0.6-1.1,0.7-1.6c-0.1,0.4-0.3,0.8-0.5,1.1c-1.2,0.7-0.1-0.4,0-0.9
				C687.2,1060.6,688.2,1060,688.2,1060.5"/>
			<path class="st18" d="M689.4,1057.2c0.1-1.1-0.2-0.8-0.3-0.3C689.2,1057,689.3,1057.7,689.4,1057.2"/>
			<path class="st18" d="M682.5,1041.9c0.3,0.1,0.7,0.1,0.7,0.2C683.5,1042,683.6,1042,682.5,1041.9"/>
			<path class="st18" d="M693.5,1057.7c0,1-0.3,1.5-0.6,2.4l-0.5,0.3c-0.4,0.9,0,0.5-0.3,1.2c-0.7,0.6-2.1,1.9-2.5,2
				c-0.3,0,0.2-0.4,0.3-0.5c-0.9,0.6-0.7,0.9-2.1,1.3v-0.1c-3.5,1.6-8.3-1.6-8.2-6c0,0.3-0.1,0.2-0.2,0.3c-0.2-2.3,1-4.5,3.1-5.5
				c2-1,4.4-0.6,5.8,0.8c-0.8-1-2.4-2.1-4.3-2c-1.8,0-3.6,1.2-4.1,2.5c-0.9,0.6-1.1,2.3-1.5,2.6c-0.6,4.1,1,5.8,3.7,7.9
				c0.4,0.3,0.1,0.3,0.2,0.5c-0.9-0.4-1.7-1.1-2.4-1.8c0.4,0.5,0.7,1,1.2,1.4c-0.8-0.3-2-2-2.3-2.1c1.5,2.6,5.9,4.6,8.2,3.6
				c-1.1,0-2.4,0-3.7-0.4c-0.5-0.3-1.2-0.8-1.1-0.9c3.2,1.2,6.5,0.9,9.2-1.3c0.7-0.5,1.5-1.5,1.7-1.5c-0.3,0.5,0.1,0.2-0.2,0.7
				c0.7-1.1-0.3-0.5,0.7-1.9l0.4,0.5c-0.1-0.9,1.2-2.1,1-3.5c0.3-0.5,0.3,0.5,0,1.5c0.4-1.2,0.1-1.3,0.2-2.3c0.1,0.3,0.3,0.7,0.4,1
				c-0.3-1.1,0.3-1.9,0.4-2.5c-0.1-0.1-0.4,0.5-0.5-0.8c0-0.6,0.2-0.3,0.2-0.4c-0.1-0.1-0.4-0.5-0.6-1.3c0.1-0.2,0.3,0.5,0.5,0.5
				c-0.1-0.7-0.3-1.2-0.3-1.7c-0.5-1.1-0.2,0.1-0.6-0.5c-0.5-1.7,0.5-0.4,0.5-1.2c0.8,1.2,1.3,3.1,1.5,3.8c-0.2-0.9-0.4-1.9-0.8-2.7
				c0.3,0.1-0.4-1.9,0.3-0.6c-0.8-2.9-3.4-5.6-5.7-6.9c0.3,0.3,0.7,0.6,0.5,0.7c-1.2-0.7-1-0.8-1.1-1.1c-1-0.4-1,0-1.7,0
				c-1.8-1-2.2-0.9-3.8-1.5l0.1,0.4c-1.2-0.4-1.4,0.2-2.7,0c-0.1-0.1,0.4-0.2,0.8-0.3c-1.2,0.2-1.1-0.2-2.2,0
				c0.3-0.2,0.6-0.3,0.9-0.5c-0.9,0.1-2.3,0.6-1.9,0.1c-1.5,0.7-4.3,1.7-5.8,3.1v-0.3c-0.7,0.8-3.1,2.5-3.3,3.6h-0.2
				c-0.4,0.6-0.6,1.3-0.9,2c-0.5,0.8-0.7,0.3-0.6,0.4c-0.9,1.9-1.4,3.5-1.8,4.8c0.3,0.4,0,2.6,0.1,4.3c-0.5,8.6,6,16.9,13.1,18.8
				c1,0.4,2.6,0.4,3.9,0.4c-1.5-0.4-1.7-0.2-3.3-0.8c-1.1-0.5-1.3-1.1-2.1-1.8l0.3,0.5c-1.5-0.5-0.9-0.7-2.1-1.1l0.3-0.4
				c-0.5,0-1.3-0.8-1.5-1.3H675c-0.6-0.8-1-1.4-1-1.8l-0.2,0.3c-0.2-0.3-2.4-3-1.2-2.4c-0.2-0.2-0.5-0.3-0.8-0.9l0.2-0.3
				c-0.5-0.7-1-1.6-1-1.9c0.3,0.4,0.5,0.5,0.7,0.5c-1.4-3.4-1.4-0.2-2.5-3.5h0.2c-0.2-0.3-0.3-0.5-0.4-0.8l0.1-1
				c-1-1.1-0.3-4.8-0.1-6.9c0.1-0.8,0.8-1.7,1.4-3.1l-0.3-0.1c0.6-1.1,3.7-4.5,5.1-4.3c0.7-0.9-0.1,0-0.3-0.2c1.5-1.5,2-1.1,3-1.4
				c1.1-0.6-0.9,0.3-0.4-0.2c1.9-0.5,1.3-1.1,3.8-1.3c0.3,0.1-0.6,0.2-0.8,0.4c1.6-0.8,4.9-0.6,7.1,0.4c2.5,1.2,5.4,4.7,5.5,8h0.1
				c-0.1,1.3,0.2,2.8-0.3,4.2L693.5,1057.7"/>
			<path class="st18" d="M678.1,1062.1l-0.1,0.4c0.4,0.6,0.7,1.2,1.3,1.6C678.9,1063.4,678.6,1063.1,678.1,1062.1"/>
			<path class="st18" d="M679,1062.1c-0.2-0.2-0.3-0.5-0.5-0.8c0.1,0.5,0.4,0.9,0.7,1.4L679,1062.1"/>
			<path class="st18" d="M696.1,1058.4l-0.1,0.2c-0.2,1.2-0.5,2.4-1.1,3.5C695.6,1060.9,696,1059.7,696.1,1058.4"/>
			<path class="st18" d="M682.6,1041.6c0.4-0.2,1-0.1,1.5-0.2c-0.6,0-1.2,0.1-1.7,0.2H682.6"/>
			<path class="st18" d="M667.9,1049.5c0.1,0.9-0.7,1.2,0.2,0.7C668.5,1049.1,667.9,1049.9,667.9,1049.5"/>
			<path class="st18" d="M666.9,1053.6c0.2-0.6,0.2-1,0.3-1.3C666.6,1053,666.9,1053.2,666.9,1053.6"/>
		</g>
		<g>
			<g class="st17">
				<path class="st18" d="M728.5,1055.9c0,0,0,7.5-0.1,9.4c-0.1,1.6-0.2,5-3.6,5s-4.3-3.9-4.5-5.7c-0.3-1.9-0.3-3.5-0.3-4.2
					c0-2.2,0.1-8.4,5.4-8.4c1.6,0,2.5,0.5,3.1,0.8L728.5,1055.9L728.5,1055.9z M715.1,1061.4c0,13.1,6.9,13.1,8,13.1
					c2.9,0,4.7-1.6,5.5-4.3l0.1,4.1c0.9,0,1.8-0.1,3.2-0.1h1.3c0.4,0,0.8,0,1.1,0.1c-0.8-1.5-1.3-4.8-1.3-12.1s0-19,0.6-22.6
					c-1.7,0.8-3.1,1.3-6.3,1.6c1.3,1.4,1.3,2,1.3,8.2c-0.9-0.3-2-0.6-3.9-0.6C716.4,1048.7,715.1,1056,715.1,1061.4"/>
				<path class="st18" d="M740.2,1059c0-3.9,0.8-7.3,4.1-7.3c3.6,0,3.9,4,3.8,7.3H740.2L740.2,1059z M752.8,1059.5
					c0-5.4-1.1-10.8-7.9-10.8c-9.4,0-9.4,10.5-9.4,12.7c0,9.4,4.2,13.1,11.3,13.1c3.1,0,4.7-0.5,5.5-0.7c0-1.7,0.2-2.8,0.5-4.2
					c-1,0.6-2.2,1.4-5,1.4c-7.2,0-7.3-6.6-7.3-8.9h12.3L752.8,1059.5"/>
				<path class="st18" d="M767.8,1061.5c0,4.3-0.8,10.1-6.2,10.1c-0.8,0-1.7-0.1-2.3-0.3c-0.1-1.7-0.1-4.5-0.1-7.9
					c0-4,0.4-6.1,0.8-7.1c1-3.3,3.1-3.3,3.6-3.3C767.2,1053,767.8,1057.9,767.8,1061.5L767.8,1061.5z M754.5,1066.5
					c0,3.4,0,5.4-0.6,6.9c1.9,0.8,4.3,1.1,7.1,1.1c1.8,0,7,0,9.9-5.8c1.4-2.7,1.8-6.3,1.8-9.1c0-1.7-0.2-5.3-1.5-7.7
					c-1.3-2.2-3.4-3.3-5.6-3.3c-4.4,0-5.8,3.7-6.4,5.6c0-2.4,0-10.6,0.4-14.8c-3,1.4-4.9,1.6-6.9,1.8c1.8,0.7,1.8,3.8,1.8,13.8
					V1066.5"/>
				<path class="st18" d="M781.7,1074.2c-0.9-0.1-1.6-0.2-2.9-0.2c-1.5,0-2.5,0.1-3.6,0.2c0.5-0.9,0.6-1.3,0.8-4.3
					c0.2-4.2,0.2-15.2-0.1-17.5c-0.2-1.8-0.6-2-1.3-2.5c3.8-0.4,4.9-0.6,6.7-1.5c-0.4,2-0.4,3.1-0.4,6.2
					C780.7,1070.6,780.7,1072.3,781.7,1074.2"/>
				<path class="st18" d="M796.6,1061.1c-0.1,2.9-0.1,5-0.9,6.6c-1,2.1-2.6,2.7-3.8,2.7c-2.8,0-3.4-2.3-3.4-4.6
					c0-4.4,3.9-4.7,5.7-4.7H796.6z M783.8,1066.8c0,2.9,0.9,5.8,3.5,7.1c1.1,0.5,2.3,0.5,2.7,0.5c4.3,0,5.7-3.2,6.6-5.1
					c0,2,0,3.3,0.1,4.9c0.8,0,1.7-0.1,3.1-0.1c0.8,0,1.5,0.1,2.3,0.1c-0.5-0.8-0.8-1.3-0.9-3.1c-0.1-1.8-0.1-3.5-0.1-6v-9.4
					c0-3.5-0.9-7-7.9-7c-4.6,0-7.3,1.4-8.6,2.1c0.6,1,1,1.9,1.4,3.9c1.8-1.6,4.2-2.4,6.6-2.4c3.9,0,3.9,2.5,3.9,6.2
					c-0.9,0-1.6-0.1-2.9-0.1C787.7,1058.4,783.8,1060.6,783.8,1066.8"/>
				<path class="st18" d="M823.3,1069.7c0,1.6,0,3.3,0.7,4.6c-1-0.1-1.6-0.2-3.5-0.2c-1.1,0-1.7,0.1-2.6,0.2
					c0.2-0.6,0.3-0.8,0.4-1.6c0.1-1.1,0.2-4.7,0.2-5.9v-5c0-2.2,0-5.3-0.1-6.4c-0.1-0.8-0.3-2.9-3-2.9s-3.5,1.9-3.9,3.5
					s-0.4,3.4-0.4,10.3c0,5.9,0,6.5,0.5,8.1c-0.8-0.1-1.8-0.2-3.1-0.2c-1.1,0-1.9,0-2.8,0.2c0.3-0.8,0.5-1.1,0.6-3.7
					c0.1-2.5,0.3-15.1-0.1-18c-0.2-1.8-0.7-2.2-1.2-2.7c3.8-0.2,5-0.8,6.1-1.4v4.9c0.6-1.4,1.7-4.7,6.4-4.7c5.8,0,5.8,4.2,5.9,7
					L823.3,1069.7"/>
				<path class="st18" d="M782.1,1041.9l-3.9,3.9l-3.9-3.9l3.9-3.9L782.1,1041.9"/>
			</g>
			<g>
				<path class="st18" d="M853.6,1059.2c0,5,0.1,7.9,0.2,10.5c0.2,3.2,0.5,3.9,0.9,4.8c-1.4-0.2-2.7-0.2-4-0.2
					c-1.5,0-2.1,0.1-3.3,0.2c0.5-1.3,0.7-2,0.8-4.7c0.1-2,0.2-4.5,0.2-10.5v-5.9c-0.2-7.6-0.2-8.4-0.3-9.9c-2.2,0.9-4.4,1.8-6.6,2.9
					c0.1-0.6,0.1-1.1,0.2-1.6c0-1-0.1-1.5-0.2-2.2c2.5-0.6,8.1-2.1,12.2-5c-0.2,3.9-0.3,6.7-0.3,14.5v7.1L853.6,1059.2L853.6,1059.2
					z"/>
				<path class="st18" d="M875.2,1069.3c7,0,7.9-0.1,9.7-1.4c-0.2,1.2-0.3,2.1-0.3,4c0,1.3,0.1,2,0.2,2.7c-3.2-0.2-6.5-0.3-9.7-0.3
					c-5,0-9.5,0.1-11,0.3c0.1-0.6,0.2-1.4,0.2-2.5s-0.1-1.8-0.2-2.4c1.5-1.3,3-2.4,6.1-5.7c6.1-6.5,8.5-10.4,8.5-14.5
					s-2.6-6.5-7-6.5c-2.3,0-4.3,0.5-6.2,1.8c0.1-1.2,0.3-2.1,0.2-3.1c0-0.9,0-1.5-0.1-2c2.6-0.9,5.1-1.3,7.8-1.3
					c7.2,0,10.8,3.7,10.8,9.1c0,4.5-2.5,8.1-4,10.1c-1.9,2.7-5.5,6.8-11,11.8L875.2,1069.3L875.2,1069.3z"/>
			</g>
		</g>
	</g>
</g>
</svg>
