<?xml version="1.0" encoding="utf-8"?>
<!-- Generator: Adobe Illustrator 26.5.0, SVG Export Plug-In . SVG Version: 6.00 Build 0)  -->
<svg version="1.1" id="Calque_1" xmlns="http://www.w3.org/2000/svg" xmlns:xlink="http://www.w3.org/1999/xlink" x="0px" y="0px"
	 viewBox="0 0 1600 1200" style="enable-background:new 0 0 1600 1200;" xml:space="preserve">
<style type="text/css">
	.st0{clip-path:url(#SVGID_00000106105274269674063580000009523659345629188530_);}
	.st1{fill:#05475C;}
	.st2{opacity:0.34;fill:url(#SVGID_00000170245914378855907240000006663129976375096731_);enable-background:new    ;}
	.st3{opacity:0.34;fill:url(#SVGID_00000004513604458021762430000007452897707453760396_);enable-background:new    ;}
	.st4{opacity:0.34;fill:url(#SVGID_00000171688036334894269480000007187409259671521976_);enable-background:new    ;}
	.st5{opacity:0.71;}
	.st6{fill:#FFFFFF;}
	.st7{opacity:0.62;}
	.st8{opacity:0.34;fill:url(#SVGID_00000053523616010938090170000008817124395874123949_);enable-background:new    ;}
	.st9{opacity:0.34;fill:url(#SVGID_00000031912780455084498350000010971145438913558207_);enable-background:new    ;}
	.st10{opacity:0.34;fill:url(#SVGID_00000142879901015065510450000001948915071270798477_);enable-background:new    ;}
	.st11{opacity:0.34;fill:url(#SVGID_00000047045657520674435980000011566691528345248170_);enable-background:new    ;}
	.st12{opacity:0.34;fill:url(#SVGID_00000114769142627355989100000001344809451027658396_);enable-background:new    ;}
	.st13{opacity:0.34;fill:url(#SVGID_00000003082752144355280190000006454849834511441322_);enable-background:new    ;}
	.st14{opacity:0.34;fill:url(#SVGID_00000149350268632342744810000014033417358799962540_);enable-background:new    ;}
	.st15{opacity:0.34;fill:url(#SVGID_00000047750719429398160140000007289559640810661509_);enable-background:new    ;}
	.st16{opacity:0.34;fill:url(#SVGID_00000050650920421617613750000013341522969933247125_);enable-background:new    ;}
	.st17{opacity:0.34;fill:url(#SVGID_00000114069295474052170390000001529938144678442659_);enable-background:new    ;}
	.st18{opacity:0.34;fill:url(#SVGID_00000107584708128961387770000003910949862988196745_);enable-background:new    ;}
	.st19{opacity:0.34;fill:url(#SVGID_00000150079620391728962260000013654547052819129497_);enable-background:new    ;}
	.st20{opacity:0.34;fill:url(#SVGID_00000139276371049907908580000015364409739502525108_);enable-background:new    ;}
	.st21{opacity:0.34;fill:url(#SVGID_00000005239764958735230280000010055642909112256665_);enable-background:new    ;}
	.st22{opacity:0.34;fill:url(#SVGID_00000005239734624626869720000002143256757061642935_);enable-background:new    ;}
	.st23{opacity:0.12;fill:url(#SVGID_00000183247613769753978580000001736081606018225070_);enable-background:new    ;}
	.st24{opacity:0.12;fill:url(#SVGID_00000115510760379892147420000015242947102829978787_);enable-background:new    ;}
	.st25{opacity:0.12;fill:url(#SVGID_00000000192941503717615580000005504219849433415345_);enable-background:new    ;}
	.st26{opacity:0.12;fill:url(#SVGID_00000176753568871137939540000008488301462577362613_);enable-background:new    ;}
	.st27{opacity:0.12;fill:url(#SVGID_00000075149797528071056640000017500968804858058646_);enable-background:new    ;}
	.st28{opacity:0.12;fill:url(#SVGID_00000053545356182634901910000000237226044269935544_);enable-background:new    ;}
	.st29{opacity:0.12;fill:url(#SVGID_00000011727950505466257090000008553516115876560014_);enable-background:new    ;}
	.st30{opacity:0.12;fill:url(#SVGID_00000092439713174067163180000006789748805695213698_);enable-background:new    ;}
	.st31{opacity:0.12;fill:url(#SVGID_00000097463561541497504200000008304576834374816907_);enable-background:new    ;}
	.st32{opacity:0.12;fill:url(#SVGID_00000021088263489290657320000015171567613723941517_);enable-background:new    ;}
	.st33{opacity:0.12;fill:url(#SVGID_00000075158362403534833650000010661385307678119840_);enable-background:new    ;}
</style>
<g>
	<defs>
		<rect id="SVGID_1_" width="1597.4" height="1200"/>
	</defs>
	<clipPath id="SVGID_00000151523264483617019700000016970251560975676564_">
		<use xlink:href="#SVGID_1_"  style="overflow:visible;"/>
	</clipPath>
	<g id="Calque_1-2" style="clip-path:url(#SVGID_00000151523264483617019700000016970251560975676564_);">
		<rect x="-177.5" y="-15.7" class="st1" width="1955" height="1231.4"/>
		
			<radialGradient id="SVGID_00000013913664472703570600000013386784475908494751_" cx="222.92" cy="-8061.8291" r="1365.4" gradientTransform="matrix(0.5 0 0 -0.5 -266.46 -3973.7146)" gradientUnits="userSpaceOnUse">
			<stop  offset="0" style="stop-color:#18F5B0"/>
			<stop  offset="1" style="stop-color:#05475C;stop-opacity:0"/>
		</radialGradient>
		
			<circle style="opacity:0.34;fill:url(#SVGID_00000013913664472703570600000013386784475908494751_);enable-background:new    ;" cx="-155" cy="57.2" r="682.7"/>
		
			<radialGradient id="SVGID_00000000180221243415266400000003105685336591358598_" cx="-2841.99" cy="5798.2109" r="342.5164" gradientTransform="matrix(-2.8317 2.4125 0.8042 0.9439 -12024.4268 1626.1228)" gradientUnits="userSpaceOnUse">
			<stop  offset="0" style="stop-color:#18F5B0"/>
			<stop  offset="1" style="stop-color:#05475C;stop-opacity:0"/>
		</radialGradient>
		
			<polygon style="opacity:0.34;fill:url(#SVGID_00000000180221243415266400000003105685336591358598_);enable-background:new    ;" points="
			-461.3,597.5 1214,-829.6 1828.4,-108.2 153.1,1318.8 		"/>
		
			<radialGradient id="SVGID_00000144304509998365299200000012240405757187872420_" cx="1076.72" cy="-8569.6289" r="459.4" gradientTransform="matrix(0.5 0 0 -0.5 -266.46 -3973.7146)" gradientUnits="userSpaceOnUse">
			<stop  offset="0" style="stop-color:#DAC9BA"/>
			<stop  offset="1" style="stop-color:#05475C;stop-opacity:0"/>
		</radialGradient>
		
			<circle style="opacity:0.34;fill:url(#SVGID_00000144304509998365299200000012240405757187872420_);enable-background:new    ;" cx="271.9" cy="311.1" r="229.7"/>
		<g class="st5">
			<path class="st6" d="M806.2,602.3c-1.3,0,0.2,0.7,2,0.9c0.5-0.4,0.9-0.7,1.3-1.1C808.4,602.3,807.3,602.4,806.2,602.3"/>
			<path class="st6" d="M813.3,600.5c0.8-1.1,1.4-2.3,1.6-3.5c-0.2,0.9-0.6,1.6-1.1,2.4c-2.5,1.5-0.2-0.9,0-1.9
				C811.1,600.9,813.4,599.6,813.3,600.5"/>
			<path class="st6" d="M815.9,593.7c0.2-2.4-0.5-1.6-0.7-0.7C815.5,593.1,815.7,594.7,815.9,593.7"/>
			<path class="st6" d="M801.2,561.3c0.7,0.1,1.5,0.2,1.4,0.4C803.4,561.5,803.6,561.4,801.2,561.3"/>
			<path class="st6" d="M802.6,561.7l-0.5,0.1L802.6,561.7L802.6,561.7"/>
			<path class="st6" d="M824.5,594.6c0.1,2.1-0.6,3.2-1.3,5l-1.1,0.6c-0.9,1.8,0.1,1.1-0.6,2.6c-1.5,1.3-4.4,4-5.4,4.3
				c-0.7,0,0.5-0.8,0.6-1.1c-1.9,1.3-1.6,2-4.5,2.8l-0.1-0.2c-7.3,3.5-17.5-3.4-17.4-12.7c-0.1,0.6-0.2,0.4-0.4,0.7
				c-0.4-4.8,2.2-9.6,6.6-11.6c4.3-2.1,9.3-1.3,12.4,1.6c-1.7-2.2-5-4.5-9-4.3c-3.9,0.1-7.5,2.5-8.8,5.2c-2,1.3-2.2,4.8-3.1,5.5
				c-1.2,8.6,2.2,12.3,7.9,16.7c0.9,0.6,0.3,0.7,0.4,1.2c-1.9-0.9-3.6-2.2-5.1-3.9c0.8,1.1,1.6,2.2,2.6,3c-1.8-0.6-4.2-4.3-4.9-4.5
				c3.1,5.5,12.5,9.7,17.4,7.6c-2.3,0.1-5.2,0-7.7-0.9c-1.1-0.6-2.5-1.7-2.3-1.9c6.7,2.5,13.7,1.9,19.5-2.8c1.5-1.2,3.1-3.1,3.6-3.1
				c-0.7,1.1,0.1,0.5-0.4,1.4c1.5-2.4-0.6-1,1.5-4.1l0.8,1.1c-0.3-2,2.5-4.4,2.2-7.5c0.6-1,0.7,1,0,3.2c0.9-2.4,0.2-2.8,0.5-4.8
				c0.3,0.7,0.6,1.4,0.8,2.1c-0.6-2.4,0.6-4,0.9-5.3c-0.3-0.1-0.9,1-1.1-1.7c0-1.2,0.3-0.6,0.5-0.9c-0.2-0.1-0.9-1.1-1.2-2.8
				c0.3-0.4,0.7,1.1,1.1,1.1c-0.2-1.4-0.7-2.5-0.7-3.6c-1.1-2.3-0.4,0.3-1.3-1c-1.2-3.6,1-0.8,1.1-2.5c1.8,2.5,2.8,6.5,3.2,8.1
				c-0.4-2-0.9-3.9-1.6-5.8c0.5,0.2-0.9-4.1,0.7-1.2c-1.7-6.1-7.1-11.8-12.1-14.5c0.6,0.6,1.4,1.3,1.1,1.4c-2.5-1.5-2.1-1.6-2.4-2.2
				c-2-0.8-2.2,0.1-3.5,0c-3.8-2-4.6-1.8-8.1-3.1l0.2,0.8c-2.5-0.8-3,0.3-5.7,0c-0.2-0.1,0.9-0.5,1.7-0.6c-2.5,0.3-2.3-0.5-4.7,0.1
				c0.6-0.4,1.2-0.7,1.8-1c-2,0.1-4.8,1.2-3.9,0.2c-3.3,1.5-9.1,3.5-12.3,6.5l-0.1-0.7c-1.5,1.8-6.5,5.3-6.9,7.7l-0.4,0.1
				c-0.8,1.3-1.3,2.8-1.9,4.2c-1,1.7-1.5,0.7-1.3,0.9c-2,4-3,7.4-3.8,10.2c0.6,0.9,0,5.5,0.2,9.1c-1,18.1,12.7,35.7,27.7,39.7
				c2.2,0.8,5.5,0.8,8.2,0.8c-3.3-0.9-3.7-0.5-6.9-1.6c-2.3-1.1-2.8-2.3-4.4-3.7l0.6,1.1c-3.2-1.1-1.9-1.4-4.5-2.2l0.7-0.9
				c-1-0.1-2.7-1.7-3.2-2.7h-1.1c-1.4-1.7-2.1-2.9-2-3.8l-0.4,0.7c-0.4-0.7-5-6.3-2.6-5c-0.4-0.4-1-0.7-1.7-1.8l0.5-0.6
				c-1.1-1.5-2.1-3.4-2-4c0.6,0.8,1,1,1.5,1.1c-2.9-7.2-3.1-0.4-5.3-7.3h0.5c-0.4-0.5-0.6-1.1-0.9-1.7l0.2-2
				c-2.1-2.4-0.6-10.3-0.3-14.6c0.2-1.7,1.7-3.6,2.9-6.5l-0.7-0.1c1.4-2.4,7.8-9.5,10.7-9.1c1.4-1.8-0.3,0-0.6-0.5
				c3.2-3.3,4.1-2.3,6.3-2.9c2.3-1.4-2,0.5-0.9-0.5c4-1,2.8-2.3,8-2.8c0.5,0.3-1.3,0.5-1.7,0.9c3.3-1.6,10.5-1.2,15.1,0.9
				c5.4,2.5,11.4,10,11.7,17l0.3,0.1c-0.1,2.8,0.4,6-0.6,9L824.5,594.6"/>
			<path class="st6" d="M791.9,604.1l-0.2,0.9c0.9,1.2,1.6,2.4,2.7,3.4C793.5,606.8,793,606.2,791.9,604.1"/>
			<path class="st6" d="M793.9,604c-0.5-0.5-0.7-1.1-1-1.7c0.3,1.1,0.9,2,1.4,2.9L793.9,604"/>
			<path class="st6" d="M830.1,596.1l-0.2,0.5c-0.4,2.5-1.1,5-2.3,7.3C828.9,601.5,829.7,598.8,830.1,596.1"/>
			<path class="st6" d="M801.5,560.7c0.9-0.3,2.2-0.2,3.1-0.4c-1.2,0.1-2.5,0.2-3.7,0.3L801.5,560.7"/>
			<path class="st6" d="M770.3,577.3c0.2,1.9-1.4,2.6,0.4,1.4C771.6,576.5,770.3,578.1,770.3,577.3"/>
			<path class="st6" d="M768.2,586.1c0.4-1.3,0.5-2,0.6-2.8C767.7,584.8,768.3,585.1,768.2,586.1"/>
		</g>
		<g class="st7">
			
				<radialGradient id="SVGID_00000013913831395283590830000017171431281320226453_" cx="-1074.142" cy="-4379.2944" r="173.24" gradientTransform="matrix(0.8642 0.5228 0.5025 -0.9115 3723.47 -2696.7268)" gradientUnits="userSpaceOnUse">
				<stop  offset="0" style="stop-color:#18F5B0"/>
				<stop  offset="1" style="stop-color:#05475C;stop-opacity:0"/>
			</radialGradient>
			
				<ellipse style="opacity:0.34;fill:url(#SVGID_00000013913831395283590830000017171431281320226453_);enable-background:new    ;" cx="606.2" cy="705.9" rx="173.2" ry="181.5"/>
			
				<linearGradient id="SVGID_00000016757625687871299210000000663005565084661179_" gradientUnits="userSpaceOnUse" x1="1441.7321" y1="3220.9036" x2="1638.5353" y2="3220.9036" gradientTransform="matrix(-0.7151 0.699 0.5383 0.5506 37.0057 -2476.5388)">
				<stop  offset="0" style="stop-color:#18F5B0"/>
				<stop  offset="1" style="stop-color:#05475C;stop-opacity:0"/>
			</linearGradient>
			
				<polygon style="opacity:0.34;fill:url(#SVGID_00000016757625687871299210000000663005565084661179_);enable-background:new    ;" points="
				540.3,381.9 650.7,213.3 789,435.1 725,475.5 			"/>
			
				<linearGradient id="SVGID_00000141419051851485649290000014202881174379998653_" gradientUnits="userSpaceOnUse" x1="701.2985" y1="-1818.34" x2="972.4619" y2="-1818.34" gradientTransform="matrix(0.7774 0.629 0.629 -0.7774 1198.9961 -1578.6796)">
				<stop  offset="0" style="stop-color:#18F5B0"/>
				<stop  offset="1" style="stop-color:#05475C;stop-opacity:0"/>
			</linearGradient>
			
				<polygon style="opacity:0.34;fill:url(#SVGID_00000141419051851485649290000014202881174379998653_);enable-background:new    ;" points="
				711.9,554.7 624.8,339.5 650.7,213.3 745.6,261.5 865.1,301.8 841,409.2 			"/>
			
				<linearGradient id="SVGID_00000159468151549901045030000016265434119005331372_" gradientUnits="userSpaceOnUse" x1="-7079.0728" y1="-1324.5541" x2="-6576.707" y2="-1324.5541" gradientTransform="matrix(0.3915 -0.9202 -0.9202 -0.3915 2011.5507 -6290.4805)">
				<stop  offset="0" style="stop-color:#AABDCB"/>
				<stop  offset="1" style="stop-color:#05475C;stop-opacity:0"/>
			</linearGradient>
			
				<polygon style="opacity:0.34;fill:url(#SVGID_00000159468151549901045030000016265434119005331372_);enable-background:new    ;" points="
				298.3,673.8 469.2,459.9 639.9,273.2 779.5,433.1 			"/>
			
				<linearGradient id="SVGID_00000145059421297967248170000014384766201770248332_" gradientUnits="userSpaceOnUse" x1="5420.2217" y1="1375.5551" x2="5637.5015" y2="1375.5551" gradientTransform="matrix(-0.3483 0.5724 0.7648 0.6285 1810.8645 -3643.9912)">
				<stop  offset="0" style="stop-color:#18F5B0"/>
				<stop  offset="1" style="stop-color:#05475C;stop-opacity:0"/>
			</linearGradient>
			
				<polygon style="opacity:0.34;fill:url(#SVGID_00000145059421297967248170000014384766201770248332_);enable-background:new    ;" points="
				1051.9,451.7 1066.6,578.1 828.7,370.2 812.8,183.9 			"/>
			
				<linearGradient id="SVGID_00000090278088036941638450000002942974614176976045_" gradientUnits="userSpaceOnUse" x1="-3436.6875" y1="-1551.0363" x2="-3131.1912" y2="-1551.0363" gradientTransform="matrix(0.7151 -0.699 -0.699 -0.7151 2134.1172 -3032.842)">
				<stop  offset="0" style="stop-color:#AABDCB"/>
				<stop  offset="1" style="stop-color:#05475C;stop-opacity:0"/>
			</linearGradient>
			
				<polygon style="opacity:0.34;fill:url(#SVGID_00000090278088036941638450000002942974614176976045_);enable-background:new    ;" points="
				828.7,370.2 624.8,339.5 729.2,272.3 869.8,153.1 1048.9,469.2 			"/>
			
				<linearGradient id="SVGID_00000080892613888008992790000016461613178208385976_" gradientUnits="userSpaceOnUse" x1="3162.3687" y1="1594.6924" x2="3397.4277" y2="1594.6924" gradientTransform="matrix(-0.5898 0.8076 0.8076 0.5898 1429.043 -3281.9351)">
				<stop  offset="0" style="stop-color:#18F5B0"/>
				<stop  offset="1" style="stop-color:#05475C;stop-opacity:0"/>
			</linearGradient>
			
				<polygon style="opacity:0.34;fill:url(#SVGID_00000080892613888008992790000016461613178208385976_);enable-background:new    ;" points="
				800,431.1 570.2,297.8 812.8,183.9 883.6,469.2 			"/>
			
				<linearGradient id="SVGID_00000046324250424567110660000014582053879914427535_" gradientUnits="userSpaceOnUse" x1="-7049.5308" y1="4315.7559" x2="-6683.0195" y2="4315.7559" gradientTransform="matrix(-0.2682 -0.9634 -1.0501 0.2924 3142.4868 -7082.0391)">
				<stop  offset="0" style="stop-color:#18F5B0"/>
				<stop  offset="1" style="stop-color:#05475C;stop-opacity:0"/>
			</linearGradient>
			
				<polygon style="opacity:0.34;fill:url(#SVGID_00000046324250424567110660000014582053879914427535_);enable-background:new    ;" points="
				497.1,591.1 596.4,716.4 347.9,1013.1 361.4,801.6 			"/>
			
				<linearGradient id="SVGID_00000183965605382871648310000005146757491786628481_" gradientUnits="userSpaceOnUse" x1="3686.144" y1="6218.96" x2="4070.2688" y2="6218.96" gradientTransform="matrix(-0.9257 0.3783 0.3783 0.9257 1661.4727 -6458.7129)">
				<stop  offset="0" style="stop-color:#18F5B0"/>
				<stop  offset="1" style="stop-color:#05475C;stop-opacity:0"/>
			</linearGradient>
			
				<polygon style="opacity:0.34;fill:url(#SVGID_00000183965605382871648310000005146757491786628481_);enable-background:new    ;" points="
				237,679.9 539,640.8 606.2,702.6 468.2,892 356.1,955 267.7,889.7 			"/>
			
				<linearGradient id="SVGID_00000126287214467223407380000018442532403353107853_" gradientUnits="userSpaceOnUse" x1="-12180.6904" y1="6319.9043" x2="-11730.9902" y2="6319.9043" gradientTransform="matrix(-0.2347 -0.2596 -0.879 0.2953 3216.1853 -4311.5918)">
				<stop  offset="0" style="stop-color:#AABDCB"/>
				<stop  offset="1" style="stop-color:#05475C;stop-opacity:0"/>
			</linearGradient>
			
				<polygon style="opacity:0.34;fill:url(#SVGID_00000126287214467223407380000018442532403353107853_);enable-background:new    ;" points="
				271.9,787.7 298.3,673.8 646,509.6 540.3,644.1 			"/>
			
				<linearGradient id="SVGID_00000092434622609870584580000015771562850698247341_" gradientUnits="userSpaceOnUse" x1="7174.1333" y1="-753.4886" x2="8082.0732" y2="-753.4886" gradientTransform="matrix(0.1765 0.3022 0.9209 -0.1087 -150.8835 -1464.9257)">
				<stop  offset="0" style="stop-color:#AABDCB"/>
				<stop  offset="1" style="stop-color:#05475C;stop-opacity:0"/>
			</linearGradient>
			
				<polygon style="opacity:0.34;fill:url(#SVGID_00000092434622609870584580000015771562850698247341_);enable-background:new    ;" points="
				580.4,789.5 733.4,1046.9 344.3,924.5 361.4,801.6 			"/>
			
				<linearGradient id="SVGID_00000114778775053653972550000009135322538274050960_" gradientUnits="userSpaceOnUse" x1="-7079.0728" y1="-1266.7208" x2="-6791.8452" y2="-1266.7208" gradientTransform="matrix(0.3915 -0.9202 -0.9202 -0.3915 2011.5507 -6290.4805)">
				<stop  offset="0" style="stop-color:#AABDCB"/>
				<stop  offset="1" style="stop-color:#05475C;stop-opacity:0"/>
			</linearGradient>
			
				<polygon style="opacity:0.34;fill:url(#SVGID_00000114778775053653972550000009135322538274050960_);enable-background:new    ;" points="
				539,640.8 298.3,673.8 373.2,439.6 646,509.6 			"/>
			
				<radialGradient id="SVGID_00000049216681311965854990000017057847893677932175_" cx="-1145.0919" cy="-4045.0044" r="181.94" gradientTransform="matrix(0.8642 0.5228 0.5025 -0.9115 3723.47 -2696.7268)" gradientUnits="userSpaceOnUse">
				<stop  offset="0" style="stop-color:#18F5B0"/>
				<stop  offset="1" style="stop-color:#05475C;stop-opacity:0"/>
			</radialGradient>
			
				<ellipse style="opacity:0.34;fill:url(#SVGID_00000049216681311965854990000017057847893677932175_);enable-background:new    ;" cx="711.9" cy="365.4" rx="181.9" ry="190.6"/>
			
				<linearGradient id="SVGID_00000127013930711936918260000013353321162258440101_" gradientUnits="userSpaceOnUse" x1="3686.144" y1="6304.1763" x2="3980.552" y2="6304.1763" gradientTransform="matrix(-0.9257 0.3783 0.3783 0.9257 1661.4727 -6458.7129)">
				<stop  offset="0" style="stop-color:#18F5B0"/>
				<stop  offset="1" style="stop-color:#05475C;stop-opacity:0"/>
			</linearGradient>
			
				<polygon style="opacity:0.34;fill:url(#SVGID_00000127013930711936918260000013353321162258440101_);enable-background:new    ;" points="
				341.4,698.1 606.2,702.6 557.1,996.1 468.2,892 372.1,908 			"/>
			
				<linearGradient id="SVGID_00000182493224191030293990000009706929417807069357_" gradientUnits="userSpaceOnUse" x1="-2319.1248" y1="-3131.9973" x2="-2052.5688" y2="-3131.9973" gradientTransform="matrix(0.9797 -0.2004 -0.2004 -0.9797 2021.517 -3074.6934)">
				<stop  offset="0" style="stop-color:#AABDCB"/>
				<stop  offset="1" style="stop-color:#05475C;stop-opacity:0"/>
			</linearGradient>
			
				<polygon style="opacity:0.34;fill:url(#SVGID_00000182493224191030293990000009706929417807069357_);enable-background:new    ;" points="
				373.2,439.6 570.2,405.4 624.8,339.5 637.9,473.5 			"/>
		</g>
		
			<linearGradient id="SVGID_00000183248901838759850030000010730084549108284855_" gradientUnits="userSpaceOnUse" x1="-7435.6699" y1="-1278.692" x2="-6995.5273" y2="-1278.692" gradientTransform="matrix(0.4172 -0.9088 -0.9088 -0.4172 3496.8701 -6100.0044)">
			<stop  offset="0" style="stop-color:#18F5B0"/>
			<stop  offset="1" style="stop-color:#05475C;stop-opacity:0"/>
		</linearGradient>
		
			<polygon style="opacity:0.12;fill:url(#SVGID_00000183248901838759850030000010730084549108284855_);enable-background:new    ;" points="
			1980.7,900.5 1824.5,1313.1 1347.2,941.3 1442,791.1 		"/>
		
			<linearGradient id="SVGID_00000153667618792955216780000013984264767207893378_" gradientUnits="userSpaceOnUse" x1="-2098.2615" y1="7379.2656" x2="-1546.5388" y2="7379.2656" gradientTransform="matrix(-0.9511 -0.3089 -0.3089 0.9511 2092.1838 -6521.499)">
			<stop  offset="0" style="stop-color:#18F5B0"/>
			<stop  offset="1" style="stop-color:#05475C;stop-opacity:0"/>
		</linearGradient>
		
			<polygon style="opacity:0.12;fill:url(#SVGID_00000153667618792955216780000013984264767207893378_);enable-background:new    ;" points="
			1396,629.8 1623,1051.1 1774.2,1251.5 1485,1316.7 1266.9,1350.3 1253.7,1086.6 		"/>
		
			<linearGradient id="SVGID_00000042006890027362888440000011232065904538766724_" gradientUnits="userSpaceOnUse" x1="2417.6333" y1="-1289.8677" x2="3085.9294" y2="-1289.8677" gradientTransform="matrix(-3.594599e-02 0.9994 0.9994 3.594599e-02 3021.7688 -1831.6903)">
			<stop  offset="0" style="stop-color:#AABDCB"/>
			<stop  offset="1" style="stop-color:#05475C;stop-opacity:0"/>
		</linearGradient>
		
			<polygon style="opacity:0.12;fill:url(#SVGID_00000042006890027362888440000011232065904538766724_);enable-background:new    ;" points="
			1773.3,542.6 1835.2,761.9 1577.9,1204.3 1441.6,727.3 		"/>
		
			<linearGradient id="SVGID_00000018219148969602926420000012886853674685274246_" gradientUnits="userSpaceOnUse" x1="4390.8232" y1="4511.877" x2="5108.7837" y2="4511.877" gradientTransform="matrix(-7.909842e-02 0.6653 0.9567 0.2541 -2146.093 -3400.4456)">
			<stop  offset="0" style="stop-color:#18F5B0"/>
			<stop  offset="1" style="stop-color:#05475C;stop-opacity:0"/>
		</linearGradient>
		
			<polygon style="opacity:0.12;fill:url(#SVGID_00000018219148969602926420000012886853674685274246_);enable-background:new    ;" points="
			1844.8,930.8 1942.8,1186.5 1597.4,1039.3 1654,618.8 		"/>
		
			<linearGradient id="SVGID_00000078743672173845861460000014748067680279658631_" gradientUnits="userSpaceOnUse" x1="-6089.145" y1="-642.1625" x2="-5696.8369" y2="-642.1625" gradientTransform="matrix(0.2612 -0.9653 -0.9653 -0.2612 2487.4868 -4849.1978)">
			<stop  offset="0" style="stop-color:#18F5B0"/>
			<stop  offset="1" style="stop-color:#05475C;stop-opacity:0"/>
		</linearGradient>
		
			<polygon style="opacity:0.12;fill:url(#SVGID_00000078743672173845861460000014748067680279658631_);enable-background:new    ;" points="
			1461.5,836.5 1908.4,895.8 1767.9,1264.2 1303.9,837.9 		"/>
		
			<linearGradient id="SVGID_00000062903286143819934300000018245086875755751568_" gradientUnits="userSpaceOnUse" x1="1862.7966" y1="-2247.2097" x2="2285.0334" y2="-2247.2097" gradientTransform="matrix(0.9919 -0.1269 -0.1269 -0.9919 -753.0025 -807.3826)">
			<stop  offset="0" style="stop-color:#18F5B0"/>
			<stop  offset="1" style="stop-color:#05475C;stop-opacity:0"/>
		</linearGradient>
		
			<polygon style="opacity:0.12;fill:url(#SVGID_00000062903286143819934300000018245086875755751568_);enable-background:new    ;" points="
			1823.4,1324.7 1503.6,1277.3 1355.2,992.3 		"/>
		
			<linearGradient id="SVGID_00000111193782397428466260000017253603548981151369_" gradientUnits="userSpaceOnUse" x1="8124.9888" y1="-6816.6499" x2="8657.4287" y2="-6816.6499" gradientTransform="matrix(0.3792 0.341 0.9317 -0.5609 3260.4241 -6548.5933)">
			<stop  offset="0" style="stop-color:#AABDCB"/>
			<stop  offset="1" style="stop-color:#05475C;stop-opacity:0"/>
		</linearGradient>
		
			<polygon style="opacity:0.12;fill:url(#SVGID_00000111193782397428466260000017253603548981151369_);enable-background:new    ;" points="
			116.7,-15.4 253.8,8.4 165.9,257.4 -133.8,206.4 		"/>
		
			<linearGradient id="SVGID_00000089550725961761092450000018235931107057483905_" gradientUnits="userSpaceOnUse" x1="6675.5132" y1="-231.4717" x2="7261.1431" y2="-231.4717" gradientTransform="matrix(0.353 0.5695 0.9064 -0.3978 -2138.6355 -4017.9316)">
			<stop  offset="0" style="stop-color:#18F5B0"/>
			<stop  offset="1" style="stop-color:#05475C;stop-opacity:0"/>
		</linearGradient>
		
			<polygon style="opacity:0.12;fill:url(#SVGID_00000089550725961761092450000018235931107057483905_);enable-background:new    ;" points="
			160.6,28.1 378.6,130 20.3,238.5 -162.7,-55.1 		"/>
		
			<linearGradient id="SVGID_00000179632464517028002160000001846151713651707528_" gradientUnits="userSpaceOnUse" x1="-7544.2124" y1="3852.1409" x2="-7225.1914" y2="3852.1409" gradientTransform="matrix(-0.3976 -0.9175 -0.9175 0.3976 580.8995 -8039.3325)">
			<stop  offset="0" style="stop-color:#18F5B0"/>
			<stop  offset="1" style="stop-color:#05475C;stop-opacity:0"/>
		</linearGradient>
		
			<polygon style="opacity:0.12;fill:url(#SVGID_00000179632464517028002160000001846151713651707528_);enable-background:new    ;" points="
			-197.5,224.3 194.7,2.5 281.9,312.4 -323.5,316.3 		"/>
		
			<linearGradient id="SVGID_00000007420290583287315410000016970499701824524977_" gradientUnits="userSpaceOnUse" x1="-2710.3257" y1="-1890.5394" x2="-2275.4346" y2="-1890.5394" gradientTransform="matrix(0.6964 -0.7176 -0.7176 -0.6964 567.2493 -2859.1394)">
			<stop  offset="0" style="stop-color:#18F5B0"/>
			<stop  offset="1" style="stop-color:#05475C;stop-opacity:0"/>
		</linearGradient>
		
			<polygon style="opacity:0.12;fill:url(#SVGID_00000007420290583287315410000016970499701824524977_);enable-background:new    ;" points="
			466.8,214.1 183.4,369.7 -91,278.8 		"/>
		
			<linearGradient id="SVGID_00000113328752918226374580000000021578562155114375_" gradientUnits="userSpaceOnUse" x1="-6355.1372" y1="1105.5535" x2="-5920.2651" y2="1105.5535" gradientTransform="matrix(-9.480336e-02 -0.9955 -0.9955 9.480336e-02 1388.2494 -5102.8677)">
			<stop  offset="0" style="stop-color:#18F5B0"/>
			<stop  offset="1" style="stop-color:#05475C;stop-opacity:0"/>
		</linearGradient>
		
			<polygon style="opacity:0.12;fill:url(#SVGID_00000113328752918226374580000000021578562155114375_);enable-background:new    ;" points="
			1025.8,878.7 960.5,1195.3 713.3,1345.3 		"/>
	</g>
</g>
</svg>
