<?xml version="1.0" encoding="utf-8"?>
<!-- Generator: Adobe Illustrator 26.5.0, SVG Export Plug-In . SVG Version: 6.00 Build 0)  -->
<svg version="1.1" id="Calque_1" xmlns="http://www.w3.org/2000/svg" xmlns:xlink="http://www.w3.org/1999/xlink" x="0px" y="0px"
	 viewBox="0 0 1920 1200" style="enable-background:new 0 0 1920 1200;" xml:space="preserve">
<style type="text/css">
	.st0{clip-path:url(#SVGID_00000000928596792312907720000015067976839969243561_);}
	.st1{fill:#05475C;}
	.st2{opacity:0.34;fill:url(#SVGID_00000056411074606979671790000012680755076389884083_);enable-background:new    ;}
	.st3{opacity:0.34;fill:url(#SVGID_00000023989492384892967260000009710341851984184492_);enable-background:new    ;}
	.st4{opacity:0.34;fill:url(#SVGID_00000161595034260526515850000010596232777479458947_);enable-background:new    ;}
	.st5{opacity:0.71;}
	.st6{fill:#FFFFFF;}
	.st7{opacity:0.62;}
	.st8{opacity:0.34;fill:url(#SVGID_00000076589682521798879920000011921484468618510504_);enable-background:new    ;}
	.st9{opacity:0.34;fill:url(#SVGID_00000022553105745205153220000002526306067487353472_);enable-background:new    ;}
	.st10{opacity:0.34;fill:url(#SVGID_00000023253950792642503570000010545805774672953244_);enable-background:new    ;}
	.st11{opacity:0.34;fill:url(#SVGID_00000170260504085748133930000012521765846385128116_);enable-background:new    ;}
	.st12{opacity:0.34;fill:url(#SVGID_00000082363585068762561560000013790172994988761013_);enable-background:new    ;}
	.st13{opacity:0.34;fill:url(#SVGID_00000098913682242597510470000011006784818807666326_);enable-background:new    ;}
	.st14{opacity:0.34;fill:url(#SVGID_00000115489987498632649720000011008985375483231643_);enable-background:new    ;}
	.st15{opacity:0.34;fill:url(#SVGID_00000047059192306680669690000007811741663679149985_);enable-background:new    ;}
	.st16{opacity:0.34;fill:url(#SVGID_00000101792577392231575320000016756205186510304687_);enable-background:new    ;}
	.st17{opacity:0.34;fill:url(#SVGID_00000123412959991921090160000015783343612426765460_);enable-background:new    ;}
	.st18{opacity:0.34;fill:url(#SVGID_00000134237491014946211050000010066306547626477466_);enable-background:new    ;}
	.st19{opacity:0.34;fill:url(#SVGID_00000034772572330934262940000010374810663227991682_);enable-background:new    ;}
	.st20{opacity:0.34;fill:url(#SVGID_00000021090192784433479690000012108295630625962133_);enable-background:new    ;}
	.st21{opacity:0.34;fill:url(#SVGID_00000085224912268995596740000001192375694511959694_);enable-background:new    ;}
	.st22{opacity:0.34;fill:url(#SVGID_00000036951329762708534880000016297398792263597696_);enable-background:new    ;}
	.st23{opacity:0.12;fill:url(#SVGID_00000049200990058816053730000014783409975399489939_);enable-background:new    ;}
	.st24{opacity:0.12;fill:url(#SVGID_00000111187147672048172680000009805526042319811762_);enable-background:new    ;}
	.st25{opacity:0.12;fill:url(#SVGID_00000002352292896172037110000000285475706208253351_);enable-background:new    ;}
	.st26{opacity:0.12;fill:url(#SVGID_00000031180986187426161680000014527347853894108845_);enable-background:new    ;}
	.st27{opacity:0.12;fill:url(#SVGID_00000083073393030777054170000008682096802884454789_);enable-background:new    ;}
	.st28{opacity:0.12;fill:url(#SVGID_00000054964391004092095810000003455071117432939653_);enable-background:new    ;}
	.st29{opacity:0.12;fill:url(#SVGID_00000090288739315912149810000014547160397308911281_);enable-background:new    ;}
	.st30{opacity:0.12;fill:url(#SVGID_00000001633458465395349520000002138339211221285271_);enable-background:new    ;}
	.st31{opacity:0.12;fill:url(#SVGID_00000078724928392494712130000004724194500713547951_);enable-background:new    ;}
	.st32{opacity:0.12;fill:url(#SVGID_00000044880333438437072450000007434997047063731332_);enable-background:new    ;}
	.st33{opacity:0.12;fill:url(#SVGID_00000045615725106276691630000009515850595024568499_);enable-background:new    ;}
</style>
<g>
	<defs>
		<rect id="SVGID_1_" width="1920" height="1200"/>
	</defs>
	<clipPath id="SVGID_00000172401503128712534600000011968226326295796110_">
		<use xlink:href="#SVGID_1_"  style="overflow:visible;"/>
	</clipPath>
	<g id="Calque_1-2" style="clip-path:url(#SVGID_00000172401503128712534600000011968226326295796110_);">
		<rect x="-17.5" y="-15.7" class="st1" width="1955" height="1231.4"/>
		
			<radialGradient id="SVGID_00000089532484294864443560000001156018140746127002_" cx="222.92" cy="-8061.8291" r="1365.4" gradientTransform="matrix(0.5 0 0 -0.5 -106.46 -3973.7146)" gradientUnits="userSpaceOnUse">
			<stop  offset="0" style="stop-color:#18F5B0"/>
			<stop  offset="1" style="stop-color:#05475C;stop-opacity:0"/>
		</radialGradient>
		
			<circle style="opacity:0.34;fill:url(#SVGID_00000089532484294864443560000001156018140746127002_);enable-background:new    ;" cx="5" cy="57.2" r="682.7"/>
		
			<radialGradient id="SVGID_00000137818120280239734990000003026529580521251758_" cx="-2489.2502" cy="5715.2759" r="342.1" gradientTransform="matrix(-2.8317 2.4125 0.8042 0.9439 -10798.3906 854.2648)" gradientUnits="userSpaceOnUse">
			<stop  offset="0" style="stop-color:#18F5B0"/>
			<stop  offset="1" style="stop-color:#05475C;stop-opacity:0"/>
		</radialGradient>
		
			<polygon style="opacity:0.34;fill:url(#SVGID_00000137818120280239734990000003026529580521251758_);enable-background:new    ;" points="
			-301.3,597.5 1374,-829.6 1988.4,-108.2 313.1,1318.8 		"/>
		
			<radialGradient id="SVGID_00000058583359066475248070000015883288929621046165_" cx="1076.72" cy="-8569.6289" r="459.4" gradientTransform="matrix(0.5 0 0 -0.5 -106.46 -3973.7146)" gradientUnits="userSpaceOnUse">
			<stop  offset="0" style="stop-color:#DAC9BA"/>
			<stop  offset="1" style="stop-color:#05475C;stop-opacity:0"/>
		</radialGradient>
		
			<circle style="opacity:0.34;fill:url(#SVGID_00000058583359066475248070000015883288929621046165_);enable-background:new    ;" cx="431.9" cy="311.1" r="229.7"/>
		<g class="st5">
			<path class="st6" d="M966.2,602.3c-1.3,0,0.2,0.7,2,0.9c0.5-0.4,0.9-0.7,1.3-1.1C968.4,602.3,967.3,602.4,966.2,602.3"/>
			<path class="st6" d="M973.3,600.5c0.8-1.1,1.4-2.3,1.6-3.5c-0.2,0.9-0.6,1.6-1.1,2.4c-2.5,1.5-0.2-0.9,0-1.9
				C971.1,600.9,973.4,599.6,973.3,600.5"/>
			<path class="st6" d="M975.9,593.7c0.2-2.4-0.5-1.6-0.7-0.7C975.5,593.1,975.7,594.7,975.9,593.7"/>
			<path class="st6" d="M961.2,561.3c0.7,0.1,1.5,0.2,1.4,0.4C963.4,561.5,963.6,561.4,961.2,561.3"/>
			<path class="st6" d="M962.6,561.7l-0.5,0.1L962.6,561.7L962.6,561.7"/>
			<path class="st6" d="M984.5,594.6c0.1,2.1-0.6,3.2-1.3,5l-1.1,0.6c-0.9,1.8,0.1,1.1-0.6,2.6c-1.5,1.3-4.4,4-5.4,4.3
				c-0.7,0,0.5-0.8,0.6-1.1c-1.9,1.3-1.6,2-4.5,2.8l-0.1-0.2c-7.3,3.5-17.5-3.4-17.4-12.7c-0.1,0.6-0.2,0.4-0.4,0.7
				c-0.4-4.8,2.2-9.6,6.6-11.6c4.3-2.1,9.3-1.3,12.4,1.6c-1.7-2.2-5-4.5-9-4.3c-3.9,0.1-7.5,2.5-8.8,5.2c-2,1.3-2.2,4.8-3.1,5.5
				c-1.2,8.6,2.2,12.3,7.9,16.7c0.9,0.6,0.3,0.7,0.4,1.2c-1.9-0.9-3.6-2.2-5.1-3.9c0.8,1.1,1.6,2.2,2.6,3c-1.8-0.6-4.2-4.3-4.9-4.5
				c3.1,5.5,12.5,9.7,17.4,7.6c-2.3,0.1-5.2,0-7.7-0.9c-1.1-0.6-2.5-1.7-2.3-1.9c6.7,2.5,13.7,1.9,19.5-2.8c1.5-1.2,3.1-3.1,3.6-3.1
				c-0.7,1.1,0.1,0.5-0.4,1.4c1.5-2.4-0.6-1,1.5-4.1l0.8,1.1c-0.3-2,2.5-4.4,2.2-7.5c0.6-1,0.7,1,0,3.2c0.9-2.4,0.2-2.8,0.5-4.8
				c0.3,0.7,0.6,1.4,0.8,2.1c-0.6-2.4,0.6-4,0.9-5.3c-0.3-0.1-0.9,1-1.1-1.7c0-1.2,0.3-0.6,0.5-0.9c-0.2-0.1-0.9-1.1-1.2-2.8
				c0.3-0.4,0.7,1.1,1.1,1.1c-0.2-1.4-0.7-2.5-0.7-3.6c-1.1-2.3-0.4,0.3-1.3-1c-1.2-3.6,1-0.8,1.1-2.5c1.8,2.5,2.8,6.5,3.2,8.1
				c-0.4-2-0.9-3.9-1.6-5.8c0.5,0.2-0.9-4.1,0.7-1.2c-1.7-6.1-7.1-11.8-12.1-14.5c0.6,0.6,1.4,1.3,1.1,1.4c-2.5-1.5-2.1-1.6-2.4-2.2
				c-2-0.8-2.2,0.1-3.5,0c-3.8-2-4.6-1.8-8.1-3.1l0.2,0.8c-2.5-0.8-3,0.3-5.7,0c-0.2-0.1,0.9-0.5,1.7-0.6c-2.5,0.3-2.3-0.5-4.7,0.1
				c0.6-0.4,1.2-0.7,1.8-1c-2,0.1-4.8,1.2-3.9,0.2c-3.3,1.5-9.1,3.5-12.3,6.5l-0.1-0.7c-1.5,1.8-6.5,5.3-6.9,7.7l-0.4,0.1
				c-0.8,1.3-1.3,2.8-1.9,4.2c-1,1.7-1.5,0.7-1.3,0.9c-2,4-3,7.4-3.8,10.2c0.6,0.9,0,5.5,0.2,9.1c-1,18.1,12.7,35.7,27.7,39.7
				c2.2,0.8,5.5,0.8,8.2,0.8c-3.3-0.9-3.7-0.5-6.9-1.6c-2.3-1.1-2.8-2.3-4.4-3.7l0.6,1.1c-3.2-1.1-1.9-1.4-4.5-2.2l0.7-0.9
				c-1-0.1-2.7-1.7-3.2-2.7h-1.1c-1.4-1.7-2.1-2.9-2-3.8l-0.4,0.7c-0.4-0.7-5-6.3-2.6-5c-0.4-0.4-1-0.7-1.7-1.8l0.5-0.6
				c-1.1-1.5-2.1-3.4-2-4c0.6,0.8,1,1,1.5,1.1c-2.9-7.2-3.1-0.4-5.3-7.3h0.5c-0.4-0.5-0.6-1.1-0.9-1.7l0.2-2
				c-2.1-2.4-0.6-10.3-0.3-14.6c0.2-1.7,1.7-3.6,2.9-6.5l-0.7-0.1c1.4-2.4,7.8-9.5,10.7-9.1c1.4-1.8-0.3,0-0.6-0.5
				c3.2-3.3,4.1-2.3,6.3-2.9c2.3-1.4-2,0.5-0.9-0.5c4-1,2.8-2.3,8-2.8c0.5,0.3-1.3,0.5-1.7,0.9c3.3-1.6,10.5-1.2,15.1,0.9
				c5.4,2.5,11.4,10,11.7,17l0.3,0.1c-0.1,2.8,0.4,6-0.6,9L984.5,594.6"/>
			<path class="st6" d="M951.9,604.1l-0.2,0.9c0.9,1.2,1.6,2.4,2.7,3.4C953.5,606.8,953,606.2,951.9,604.1"/>
			<path class="st6" d="M953.9,604c-0.5-0.5-0.7-1.1-1-1.7c0.3,1.1,0.9,2,1.4,2.9L953.9,604"/>
			<path class="st6" d="M990.1,596.1l-0.2,0.5c-0.4,2.5-1.1,5-2.3,7.3C988.9,601.5,989.7,598.8,990.1,596.1"/>
			<path class="st6" d="M961.5,560.7c0.9-0.3,2.2-0.2,3.1-0.4c-1.2,0.1-2.5,0.2-3.7,0.3L961.5,560.7"/>
			<path class="st6" d="M930.3,577.3c0.2,1.9-1.4,2.6,0.4,1.4C931.6,576.5,930.3,578.1,930.3,577.3"/>
			<path class="st6" d="M928.2,586.1c0.4-1.3,0.5-2,0.6-2.8C927.7,584.8,928.3,585.1,928.2,586.1"/>
		</g>
		<g class="st7">
			
				<radialGradient id="SVGID_00000084523137185723558220000015279798023442974080_" cx="-892.9836" cy="-4458.9219" r="173.24" gradientTransform="matrix(0.8642 0.5228 0.5025 -0.9115 3766.6392 -2864.1973)" gradientUnits="userSpaceOnUse">
				<stop  offset="0" style="stop-color:#18F5B0"/>
				<stop  offset="1" style="stop-color:#05475C;stop-opacity:0"/>
			</radialGradient>
			
				<ellipse style="opacity:0.34;fill:url(#SVGID_00000084523137185723558220000015279798023442974080_);enable-background:new    ;" cx="766.2" cy="705.9" rx="173.2" ry="181.5"/>
			
				<linearGradient id="SVGID_00000134943907407943021780000012076970261184592781_" gradientUnits="userSpaceOnUse" x1="1876.1453" y1="3075.6453" x2="2072.9485" y2="3075.6453" gradientTransform="matrix(-0.7151 0.699 0.5383 0.5506 585.8191 -2700.2151)">
				<stop  offset="0" style="stop-color:#18F5B0"/>
				<stop  offset="1" style="stop-color:#05475C;stop-opacity:0"/>
			</linearGradient>
			
				<polygon style="opacity:0.34;fill:url(#SVGID_00000134943907407943021780000012076970261184592781_);enable-background:new    ;" points="
				700.3,381.9 810.7,213.3 949,435.1 885,475.5 			"/>
			
				<linearGradient id="SVGID_00000178894981057875746550000016000597904032110004_" gradientUnits="userSpaceOnUse" x1="896.9199" y1="-1919.0027" x2="1168.0834" y2="-1919.0027" gradientTransform="matrix(0.7774 0.629 0.629 -0.7774 1270.2474 -1779.9875)">
				<stop  offset="0" style="stop-color:#18F5B0"/>
				<stop  offset="1" style="stop-color:#05475C;stop-opacity:0"/>
			</linearGradient>
			
				<polygon style="opacity:0.34;fill:url(#SVGID_00000178894981057875746550000016000597904032110004_);enable-background:new    ;" points="
				871.9,554.7 784.8,339.5 810.7,213.3 905.6,261.5 1025.1,301.8 1001,409.2 			"/>
			
				<linearGradient id="SVGID_00000127727388437009210270000007011599435678376117_" gradientUnits="userSpaceOnUse" x1="-6821.7275" y1="-1177.3477" x2="-6319.3618" y2="-1177.3477" gradientTransform="matrix(0.3915 -0.9202 -0.9202 -0.3915 2206.2451 -5996.0439)">
				<stop  offset="0" style="stop-color:#AABDCB"/>
				<stop  offset="1" style="stop-color:#05475C;stop-opacity:0"/>
			</linearGradient>
			
				<polygon style="opacity:0.34;fill:url(#SVGID_00000127727388437009210270000007011599435678376117_);enable-background:new    ;" points="
				458.3,673.8 629.2,459.9 799.9,273.2 939.5,433.1 			"/>
			
				<linearGradient id="SVGID_00000101086087328235979620000009567443969736187033_" gradientUnits="userSpaceOnUse" x1="5893.3677" y1="1236.082" x2="6110.6479" y2="1236.082" gradientTransform="matrix(-0.3483 0.5724 0.7648 0.6285 2242.1489 -3826.8796)">
				<stop  offset="0" style="stop-color:#18F5B0"/>
				<stop  offset="1" style="stop-color:#05475C;stop-opacity:0"/>
			</linearGradient>
			
				<polygon style="opacity:0.34;fill:url(#SVGID_00000101086087328235979620000009567443969736187033_);enable-background:new    ;" points="
				1211.9,451.7 1226.6,578.1 988.7,370.2 972.8,183.9 			"/>
			
				<linearGradient id="SVGID_00000089574557307665542530000009834880936151122096_" gradientUnits="userSpaceOnUse" x1="-3231.1003" y1="-1439.1991" x2="-2925.604" y2="-1439.1991" gradientTransform="matrix(0.7151 -0.699 -0.699 -0.7151 2225.2839 -2809.1555)">
				<stop  offset="0" style="stop-color:#AABDCB"/>
				<stop  offset="1" style="stop-color:#05475C;stop-opacity:0"/>
			</linearGradient>
			
				<polygon style="opacity:0.34;fill:url(#SVGID_00000089574557307665542530000009834880936151122096_);enable-background:new    ;" points="
				988.7,370.2 784.8,339.5 889.2,272.3 1029.8,153.1 1208.9,469.2 			"/>
			
				<linearGradient id="SVGID_00000137814979148882877880000010328272323069511300_" gradientUnits="userSpaceOnUse" x1="3576.7354" y1="1465.4857" x2="3811.7944" y2="1465.4857" gradientTransform="matrix(-0.5898 0.8076 0.8076 0.5898 1937.7645 -3540.3677)">
				<stop  offset="0" style="stop-color:#18F5B0"/>
				<stop  offset="1" style="stop-color:#05475C;stop-opacity:0"/>
			</linearGradient>
			
				<polygon style="opacity:0.34;fill:url(#SVGID_00000137814979148882877880000010328272323069511300_);enable-background:new    ;" points="
				960,431.1 730.2,297.8 972.8,183.9 1043.6,469.2 			"/>
			
				<linearGradient id="SVGID_00000145044256057076252910000000848199297658990999_" gradientUnits="userSpaceOnUse" x1="-6686.6108" y1="4457.1631" x2="-6320.0996" y2="4457.1631" gradientTransform="matrix(-0.2682 -0.9634 -1.0501 0.2924 3548.3164 -6773.793)">
				<stop  offset="0" style="stop-color:#18F5B0"/>
				<stop  offset="1" style="stop-color:#05475C;stop-opacity:0"/>
			</linearGradient>
			
				<polygon style="opacity:0.34;fill:url(#SVGID_00000145044256057076252910000000848199297658990999_);enable-background:new    ;" points="
				657.1,591.1 756.4,716.4 507.9,1013.1 521.4,801.6 			"/>
			
				<linearGradient id="SVGID_00000127734621094974517750000005240452990198260907_" gradientUnits="userSpaceOnUse" x1="4154.2529" y1="6158.4248" x2="4538.3779" y2="6158.4248" gradientTransform="matrix(-0.9257 0.3783 0.3783 0.9257 2277.6904 -6579.7749)">
				<stop  offset="0" style="stop-color:#18F5B0"/>
				<stop  offset="1" style="stop-color:#05475C;stop-opacity:0"/>
			</linearGradient>
			
				<polygon style="opacity:0.34;fill:url(#SVGID_00000127734621094974517750000005240452990198260907_);enable-background:new    ;" points="
				397,679.9 699,640.8 766.2,702.6 628.2,892 516.1,955 427.7,889.7 			"/>
			
				<linearGradient id="SVGID_00000011728417832659381670000003564161052773509289_" gradientUnits="userSpaceOnUse" x1="-11701.8916" y1="6459.522" x2="-11252.1924" y2="6459.522" gradientTransform="matrix(-0.2347 -0.2596 -0.879 0.2953 3610.8835 -4228.9741)">
				<stop  offset="0" style="stop-color:#AABDCB"/>
				<stop  offset="1" style="stop-color:#05475C;stop-opacity:0"/>
			</linearGradient>
			
				<polygon style="opacity:0.34;fill:url(#SVGID_00000011728417832659381670000003564161052773509289_);enable-background:new    ;" points="
				431.9,787.7 458.3,673.8 806,509.6 700.3,644.1 			"/>
			
				<linearGradient id="SVGID_00000013888782862855192130000004048158289608727716_" gradientUnits="userSpaceOnUse" x1="7435.6807" y1="-916.0336" x2="8343.6211" y2="-916.0336" gradientTransform="matrix(0.1765 0.3022 0.9209 -0.1087 112.9515 -1561.0907)">
				<stop  offset="0" style="stop-color:#AABDCB"/>
				<stop  offset="1" style="stop-color:#05475C;stop-opacity:0"/>
			</linearGradient>
			
				<polygon style="opacity:0.34;fill:url(#SVGID_00000013888782862855192130000004048158289608727716_);enable-background:new    ;" points="
				740.4,789.5 893.4,1046.9 504.3,924.5 521.4,801.6 			"/>
			
				<linearGradient id="SVGID_00000032636350723051708950000003397749158443223972_" gradientUnits="userSpaceOnUse" x1="-6821.7275" y1="-1119.5144" x2="-6534.5" y2="-1119.5144" gradientTransform="matrix(0.3915 -0.9202 -0.9202 -0.3915 2206.2451 -5996.0439)">
				<stop  offset="0" style="stop-color:#AABDCB"/>
				<stop  offset="1" style="stop-color:#05475C;stop-opacity:0"/>
			</linearGradient>
			
				<polygon style="opacity:0.34;fill:url(#SVGID_00000032636350723051708950000003397749158443223972_);enable-background:new    ;" points="
				699,640.8 458.3,673.8 533.2,439.6 806,509.6 			"/>
			
				<radialGradient id="SVGID_00000032630432101678314960000008468116941741282944_" cx="-963.9337" cy="-4124.6318" r="181.94" gradientTransform="matrix(0.8642 0.5228 0.5025 -0.9115 3766.6392 -2864.1973)" gradientUnits="userSpaceOnUse">
				<stop  offset="0" style="stop-color:#18F5B0"/>
				<stop  offset="1" style="stop-color:#05475C;stop-opacity:0"/>
			</radialGradient>
			
				<ellipse style="opacity:0.34;fill:url(#SVGID_00000032630432101678314960000008468116941741282944_);enable-background:new    ;" cx="871.9" cy="365.4" rx="181.9" ry="190.6"/>
			
				<linearGradient id="SVGID_00000019670513155277172690000010650740053110845579_" gradientUnits="userSpaceOnUse" x1="4154.2529" y1="6243.6416" x2="4448.6611" y2="6243.6416" gradientTransform="matrix(-0.9257 0.3783 0.3783 0.9257 2277.6904 -6579.7749)">
				<stop  offset="0" style="stop-color:#18F5B0"/>
				<stop  offset="1" style="stop-color:#05475C;stop-opacity:0"/>
			</linearGradient>
			
				<polygon style="opacity:0.34;fill:url(#SVGID_00000019670513155277172690000010650740053110845579_);enable-background:new    ;" points="
				501.4,698.1 766.2,702.6 717.1,996.1 628.2,892 532.1,908 			"/>
			
				<linearGradient id="SVGID_00000075149650005683383290000017910244360390472588_" gradientUnits="userSpaceOnUse" x1="-2155.8843" y1="-3099.9363" x2="-1889.3284" y2="-3099.9363" gradientTransform="matrix(0.9797 -0.2004 -0.2004 -0.9797 2028.0126 -3010.5703)">
				<stop  offset="0" style="stop-color:#AABDCB"/>
				<stop  offset="1" style="stop-color:#05475C;stop-opacity:0"/>
			</linearGradient>
			
				<polygon style="opacity:0.34;fill:url(#SVGID_00000075149650005683383290000017910244360390472588_);enable-background:new    ;" points="
				533.2,439.6 730.2,405.4 784.8,339.5 797.9,473.5 			"/>
		</g>
		
			<linearGradient id="SVGID_00000106830734271642211480000010917764946327503256_" gradientUnits="userSpaceOnUse" x1="-7182.4272" y1="-1133.2759" x2="-6742.2847" y2="-1133.2759" gradientTransform="matrix(0.4172 -0.9088 -0.9088 -0.4172 3683.3728 -5809.2061)">
			<stop  offset="0" style="stop-color:#18F5B0"/>
			<stop  offset="1" style="stop-color:#05475C;stop-opacity:0"/>
		</linearGradient>
		
			<polygon style="opacity:0.12;fill:url(#SVGID_00000106830734271642211480000010917764946327503256_);enable-background:new    ;" points="
			2140.7,900.5 1984.5,1313.1 1507.2,941.3 1602,791.1 		"/>
		
			<linearGradient id="SVGID_00000008838014493502950990000002106571545151364536_" gradientUnits="userSpaceOnUse" x1="-1626.0773" y1="7428.6694" x2="-1074.3547" y2="7428.6694" gradientTransform="matrix(-0.9511 -0.3089 -0.3089 0.9511 2716.5413 -6422.6528)">
			<stop  offset="0" style="stop-color:#18F5B0"/>
			<stop  offset="1" style="stop-color:#05475C;stop-opacity:0"/>
		</linearGradient>
		
			<polygon style="opacity:0.12;fill:url(#SVGID_00000008838014493502950990000002106571545151364536_);enable-background:new    ;" points="
			1556,629.8 1783,1051.1 1934.2,1251.5 1645,1316.7 1426.9,1350.3 1413.7,1086.6 		"/>
		
			<linearGradient id="SVGID_00000170269309057204161380000001402138955680408972_" gradientUnits="userSpaceOnUse" x1="2743.3877" y1="-1449.7526" x2="3411.6838" y2="-1449.7526" gradientTransform="matrix(-3.594599e-02 0.9994 0.9994 3.594599e-02 3353.26 -2151.4868)">
			<stop  offset="0" style="stop-color:#AABDCB"/>
			<stop  offset="1" style="stop-color:#05475C;stop-opacity:0"/>
		</linearGradient>
		
			<polygon style="opacity:0.12;fill:url(#SVGID_00000170269309057204161380000001402138955680408972_);enable-background:new    ;" points="
			1933.3,542.6 1995.2,761.9 1737.9,1204.3 1601.6,727.3 		"/>
		
			<linearGradient id="SVGID_00000044170033691582868540000003890608974300690825_" gradientUnits="userSpaceOnUse" x1="4772.7378" y1="4349.7412" x2="5490.6982" y2="4349.7412" gradientTransform="matrix(-7.909842e-02 0.6653 0.9567 0.2541 -1800.8073 -3613.0259)">
			<stop  offset="0" style="stop-color:#18F5B0"/>
			<stop  offset="1" style="stop-color:#05475C;stop-opacity:0"/>
		</linearGradient>
		
			<polygon style="opacity:0.12;fill:url(#SVGID_00000044170033691582868540000003890608974300690825_);enable-background:new    ;" points="
			2004.8,930.8 2102.8,1186.5 1757.4,1039.3 1814,618.8 		"/>
		
			<linearGradient id="SVGID_00000115476630761162719110000008737009919211368841_" gradientUnits="userSpaceOnUse" x1="-5810.9302" y1="-487.7165" x2="-5418.6216" y2="-487.7165" gradientTransform="matrix(0.2612 -0.9653 -0.9653 -0.2612 2723.9082 -4540.3013)">
			<stop  offset="0" style="stop-color:#18F5B0"/>
			<stop  offset="1" style="stop-color:#05475C;stop-opacity:0"/>
		</linearGradient>
		
			<polygon style="opacity:0.12;fill:url(#SVGID_00000115476630761162719110000008737009919211368841_);enable-background:new    ;" points="
			1621.5,836.5 2068.4,895.8 1927.9,1264.2 1463.9,837.9 		"/>
		
			<linearGradient id="SVGID_00000137827576320685657670000017367018758092256190_" gradientUnits="userSpaceOnUse" x1="2024.0944" y1="-2226.9001" x2="2446.3311" y2="-2226.9001" gradientTransform="matrix(0.9919 -0.1269 -0.1269 -0.9919 -750.4193 -766.7698)">
			<stop  offset="0" style="stop-color:#18F5B0"/>
			<stop  offset="1" style="stop-color:#05475C;stop-opacity:0"/>
		</linearGradient>
		
			<polygon style="opacity:0.12;fill:url(#SVGID_00000137827576320685657670000017367018758092256190_);enable-background:new    ;" points="
			1983.4,1324.7 1663.6,1277.3 1515.2,992.3 		"/>
		
			<linearGradient id="SVGID_00000062875286114471441420000010794719189137940105_" gradientUnits="userSpaceOnUse" x1="8275.8008" y1="-6919.5112" x2="8808.2402" y2="-6919.5112" gradientTransform="matrix(0.3792 0.341 0.9317 -0.5609 3459.2957 -6657.502)">
			<stop  offset="0" style="stop-color:#AABDCB"/>
			<stop  offset="1" style="stop-color:#05475C;stop-opacity:0"/>
		</linearGradient>
		
			<polygon style="opacity:0.12;fill:url(#SVGID_00000062875286114471441420000010794719189137940105_);enable-background:new    ;" points="
			276.7,-15.4 413.8,8.4 325.9,257.4 26.2,206.4 		"/>
		
			<linearGradient id="SVGID_00000087375575459333385210000002238624078503487908_" gradientUnits="userSpaceOnUse" x1="6898.5732" y1="-370.2426" x2="7484.2031" y2="-370.2426" gradientTransform="matrix(0.353 0.5695 0.9064 -0.3978 -1931.4192 -4199.8999)">
			<stop  offset="0" style="stop-color:#18F5B0"/>
			<stop  offset="1" style="stop-color:#05475C;stop-opacity:0"/>
		</linearGradient>
		
			<polygon style="opacity:0.12;fill:url(#SVGID_00000087375575459333385210000002238624078503487908_);enable-background:new    ;" points="
			320.6,28.1 538.6,130 180.3,238.5 -2.7,-55.1 		"/>
		
			<linearGradient id="SVGID_00000183223659939389319390000000216397749450872199_" gradientUnits="userSpaceOnUse" x1="-7160.5947" y1="3998.96" x2="-6841.5742" y2="3998.96" gradientTransform="matrix(-0.3976 -0.9175 -0.9175 0.3976 1028.1501 -7745.7251)">
			<stop  offset="0" style="stop-color:#18F5B0"/>
			<stop  offset="1" style="stop-color:#05475C;stop-opacity:0"/>
		</linearGradient>
		
			<polygon style="opacity:0.12;fill:url(#SVGID_00000183223659939389319390000000216397749450872199_);enable-background:new    ;" points="
			-37.5,224.3 354.7,2.5 441.9,312.4 -163.5,316.3 		"/>
		
			<linearGradient id="SVGID_00000134940890851672155010000009345720776688027561_" gradientUnits="userSpaceOnUse" x1="-2501.7507" y1="-1775.7073" x2="-2066.8596" y2="-1775.7073" gradientTransform="matrix(0.6964 -0.7176 -0.7176 -0.6964 664.4031 -2629.4871)">
			<stop  offset="0" style="stop-color:#18F5B0"/>
			<stop  offset="1" style="stop-color:#05475C;stop-opacity:0"/>
		</linearGradient>
		
			<polygon style="opacity:0.12;fill:url(#SVGID_00000134940890851672155010000009345720776688027561_);enable-background:new    ;" points="
			626.8,214.1 343.4,369.7 69,278.8 		"/>
		
			<linearGradient id="SVGID_00000137118113169258829820000003332003489976044437_" gradientUnits="userSpaceOnUse" x1="-6019.9688" y1="1264.8243" x2="-5585.0967" y2="1264.8243" gradientTransform="matrix(-9.480336e-02 -0.9955 -0.9955 9.480336e-02 1738.578 -4784.3081)">
			<stop  offset="0" style="stop-color:#18F5B0"/>
			<stop  offset="1" style="stop-color:#05475C;stop-opacity:0"/>
		</linearGradient>
		
			<polygon style="opacity:0.12;fill:url(#SVGID_00000137118113169258829820000003332003489976044437_);enable-background:new    ;" points="
			1185.8,878.7 1120.5,1195.3 873.3,1345.3 		"/>
	</g>
</g>
</svg>
