<?xml version="1.0" encoding="utf-8"?>
<!-- Generator: Adobe Illustrator 26.5.0, SVG Export Plug-In . SVG Version: 6.00 Build 0)  -->
<svg version="1.1" id="Calque_1" xmlns="http://www.w3.org/2000/svg" xmlns:xlink="http://www.w3.org/1999/xlink" x="0px" y="0px"
	 viewBox="0 0 1280 1024" style="enable-background:new 0 0 1280 1024;" xml:space="preserve">
<style type="text/css">
	.st0{clip-path:url(#SVGID_00000082369769447655799990000012839066597224978085_);}
	.st1{fill:#05475C;}
	.st2{opacity:0.34;fill:url(#SVGID_00000138536434933359569700000008211936625353479337_);enable-background:new    ;}
	.st3{opacity:0.34;fill:url(#SVGID_00000090260306102934282120000012998503754303509409_);enable-background:new    ;}
	.st4{opacity:0.34;fill:url(#SVGID_00000168822260645755434950000013857349986517553545_);enable-background:new    ;}
	.st5{opacity:0.71;}
	.st6{fill:#FFFFFF;}
	.st7{opacity:0.62;}
	.st8{opacity:0.34;fill:url(#SVGID_00000026849100281003678370000018046303790085532341_);enable-background:new    ;}
	.st9{opacity:0.34;fill:url(#SVGID_00000003104025829092829680000014652070688053868446_);enable-background:new    ;}
	.st10{opacity:0.34;fill:url(#SVGID_00000001630812139417584360000001200436478434717836_);enable-background:new    ;}
	.st11{opacity:0.34;fill:url(#SVGID_00000111880619761813000150000008962218420139392141_);enable-background:new    ;}
	.st12{opacity:0.34;fill:url(#SVGID_00000117641450891432918300000014306761161789197723_);enable-background:new    ;}
	.st13{opacity:0.34;fill:url(#SVGID_00000053515190462896350430000013597288721791764379_);enable-background:new    ;}
	.st14{opacity:0.34;fill:url(#SVGID_00000114068875117162582540000007115564726296915091_);enable-background:new    ;}
	.st15{opacity:0.34;fill:url(#SVGID_00000014621309427875376430000015000328988201977012_);enable-background:new    ;}
	.st16{opacity:0.34;fill:url(#SVGID_00000180325614021136598430000014280393754949557429_);enable-background:new    ;}
	.st17{opacity:0.34;fill:url(#SVGID_00000171691794227299647910000016401751449040321190_);enable-background:new    ;}
	.st18{opacity:0.34;fill:url(#SVGID_00000062912436066714867990000003801752584178528653_);enable-background:new    ;}
	.st19{opacity:0.34;fill:url(#SVGID_00000017488491340259454160000003920522891461862575_);enable-background:new    ;}
	.st20{opacity:0.34;fill:url(#SVGID_00000035488858787002876390000011374095338634566036_);enable-background:new    ;}
	.st21{opacity:0.34;fill:url(#SVGID_00000131364036932899975780000001417587782949125018_);enable-background:new    ;}
	.st22{opacity:0.34;fill:url(#SVGID_00000124874447497065070200000012014497851787042950_);enable-background:new    ;}
	.st23{opacity:0.12;fill:url(#SVGID_00000121963785290277509330000005448036389820233348_);enable-background:new    ;}
	.st24{opacity:0.12;fill:url(#SVGID_00000033336426678516359760000004614793859902050741_);enable-background:new    ;}
	.st25{opacity:0.12;fill:url(#SVGID_00000113333699935387190810000011182117669209286335_);enable-background:new    ;}
	.st26{opacity:0.12;fill:url(#SVGID_00000168799401822999746220000014516544065938281372_);enable-background:new    ;}
	.st27{opacity:0.12;fill:url(#SVGID_00000057147980730760998990000004391305443780134823_);enable-background:new    ;}
	.st28{opacity:0.12;fill:url(#SVGID_00000022525350068506164640000011600826420075280788_);enable-background:new    ;}
	.st29{opacity:0.12;fill:url(#SVGID_00000135673322281644825270000005551889666712172220_);enable-background:new    ;}
	.st30{opacity:0.12;fill:url(#SVGID_00000152262443249485693450000010420598497054259634_);enable-background:new    ;}
	.st31{opacity:0.12;fill:url(#SVGID_00000048502037430154473260000000090325031489646983_);enable-background:new    ;}
</style>
<g>
	<g>
		<defs>
			<rect id="SVGID_1_" width="1280" height="1024"/>
		</defs>
		<clipPath id="SVGID_00000082335499408672756830000000701776840510022045_">
			<use xlink:href="#SVGID_1_"  style="overflow:visible;"/>
		</clipPath>
		<g id="Calque_1-2" style="clip-path:url(#SVGID_00000082335499408672756830000000701776840510022045_);">
			<rect x="-337.5" y="-103.7" class="st1" width="1955" height="1231.4"/>
			
				<radialGradient id="SVGID_00000124879613161866766880000015825326748969965711_" cx="715.92" cy="16229.1211" r="1365.4" gradientTransform="matrix(0.5 0 0 0.5 -672.96 -8145.3608)" gradientUnits="userSpaceOnUse">
				<stop  offset="0" style="stop-color:#18F5B0"/>
				<stop  offset="1" style="stop-color:#05475C;stop-opacity:0"/>
			</radialGradient>
			
				<circle style="opacity:0.34;fill:url(#SVGID_00000124879613161866766880000015825326748969965711_);enable-background:new    ;" cx="-315" cy="-30.8" r="682.7"/>
			
				<radialGradient id="SVGID_00000025406520331618859500000008090027969385445530_" cx="-3368.4609" cy="-4272.5674" r="342.1" gradientTransform="matrix(-2.8317 2.4125 -0.8042 -0.9439 -12447.4717 4248.9839)" gradientUnits="userSpaceOnUse">
				<stop  offset="0" style="stop-color:#18F5B0"/>
				<stop  offset="1" style="stop-color:#05475C;stop-opacity:0"/>
			</radialGradient>
			
				<polygon style="opacity:0.34;fill:url(#SVGID_00000025406520331618859500000008090027969385445530_);enable-background:new    ;" points="
				-621.3,509.5 1054,-917.6 1668.4,-196.2 -6.9,1230.8 			"/>
			
				<radialGradient id="SVGID_00000044866044106081770760000012749269160630434724_" cx="1569.72" cy="16736.9219" r="459.4" gradientTransform="matrix(0.5 0 0 0.5 -672.96 -8145.3608)" gradientUnits="userSpaceOnUse">
				<stop  offset="0" style="stop-color:#DAC9BA"/>
				<stop  offset="1" style="stop-color:#05475C;stop-opacity:0"/>
			</radialGradient>
			
				<circle style="opacity:0.34;fill:url(#SVGID_00000044866044106081770760000012749269160630434724_);enable-background:new    ;" cx="111.9" cy="223.1" r="229.7"/>
			<g class="st5">
				<path class="st6" d="M646.2,514.3c-1.3,0,0.2,0.7,2,0.9c0.5-0.4,0.9-0.7,1.3-1.1C648.4,514.3,647.3,514.4,646.2,514.3"/>
				<path class="st6" d="M653.3,512.5c0.8-1.1,1.4-2.3,1.6-3.5c-0.2,0.9-0.6,1.6-1.1,2.4c-2.5,1.5-0.2-0.9,0-1.9
					C651.1,512.9,653.4,511.6,653.3,512.5"/>
				<path class="st6" d="M655.9,505.7c0.2-2.4-0.5-1.6-0.7-0.7C655.5,505.1,655.7,506.7,655.9,505.7"/>
				<path class="st6" d="M641.2,473.3c0.7,0.1,1.5,0.2,1.4,0.4C643.4,473.5,643.6,473.4,641.2,473.3"/>
				<path class="st6" d="M642.6,473.7l-0.5,0.1L642.6,473.7L642.6,473.7"/>
				<path class="st6" d="M664.5,506.6c0.1,2.1-0.6,3.2-1.3,5l-1.1,0.6c-0.9,1.8,0.1,1.1-0.6,2.6c-1.5,1.3-4.4,4-5.4,4.3
					c-0.7,0,0.5-0.8,0.6-1.1c-1.9,1.3-1.6,2-4.5,2.8l-0.1-0.2c-7.3,3.5-17.5-3.4-17.4-12.7c-0.1,0.6-0.2,0.4-0.4,0.7
					c-0.4-4.8,2.2-9.6,6.6-11.6c4.3-2.1,9.3-1.3,12.4,1.6c-1.7-2.2-5-4.5-9-4.3c-3.9,0.1-7.5,2.5-8.8,5.2c-2,1.3-2.2,4.8-3.1,5.5
					c-1.2,8.6,2.2,12.3,7.9,16.7c0.9,0.6,0.3,0.7,0.4,1.2c-1.9-0.9-3.6-2.2-5.1-3.9c0.8,1.1,1.6,2.2,2.6,3c-1.8-0.6-4.2-4.3-4.9-4.5
					c3.1,5.5,12.5,9.7,17.4,7.6c-2.3,0.1-5.2,0-7.7-0.9c-1.1-0.6-2.5-1.7-2.3-1.9c6.7,2.5,13.7,1.9,19.5-2.8
					c1.5-1.2,3.1-3.1,3.6-3.1c-0.7,1.1,0.1,0.5-0.4,1.4c1.5-2.4-0.6-1,1.5-4.1l0.8,1.1c-0.3-2,2.5-4.4,2.2-7.5c0.6-1,0.7,1,0,3.2
					c0.9-2.4,0.2-2.8,0.5-4.8c0.3,0.7,0.6,1.4,0.8,2.1c-0.6-2.4,0.6-4,0.9-5.3c-0.3-0.1-0.9,1-1.1-1.7c0-1.2,0.3-0.6,0.5-0.9
					c-0.2-0.1-0.9-1.1-1.2-2.8c0.3-0.4,0.7,1.1,1.1,1.1c-0.2-1.4-0.7-2.5-0.7-3.6c-1.1-2.3-0.4,0.3-1.3-1c-1.2-3.6,1-0.8,1.1-2.5
					c1.8,2.5,2.8,6.5,3.2,8.1c-0.4-2-0.9-3.9-1.6-5.8c0.5,0.2-0.9-4.1,0.7-1.2c-1.7-6.1-7.1-11.8-12.1-14.5c0.6,0.6,1.4,1.3,1.1,1.4
					c-2.5-1.5-2.1-1.6-2.4-2.2c-2-0.8-2.2,0.1-3.5,0c-3.8-2-4.6-1.8-8.1-3.1l0.2,0.8c-2.5-0.8-3,0.3-5.7,0c-0.2-0.1,0.9-0.5,1.7-0.6
					c-2.5,0.3-2.3-0.5-4.7,0.1c0.6-0.4,1.2-0.7,1.8-1c-2,0.1-4.8,1.2-3.9,0.2c-3.3,1.5-9.1,3.5-12.3,6.5l-0.1-0.7
					c-1.5,1.8-6.5,5.3-6.9,7.7l-0.4,0.1c-0.8,1.3-1.3,2.8-1.9,4.2c-1,1.7-1.5,0.7-1.3,0.9c-2,4-3,7.4-3.8,10.2
					c0.6,0.9,0,5.5,0.2,9.1c-1,18.1,12.7,35.7,27.7,39.7c2.2,0.8,5.5,0.8,8.2,0.8c-3.3-0.9-3.7-0.5-6.9-1.6
					c-2.3-1.1-2.8-2.3-4.4-3.7l0.6,1.1c-3.2-1.1-1.9-1.4-4.5-2.2l0.7-0.9c-1-0.1-2.7-1.7-3.2-2.7h-1.1c-1.4-1.7-2.1-2.9-2-3.8
					l-0.4,0.7c-0.4-0.7-5-6.3-2.6-5c-0.4-0.4-1-0.7-1.7-1.8l0.5-0.6c-1.1-1.5-2.1-3.4-2-4c0.6,0.8,1,1,1.5,1.1
					c-2.9-7.2-3.1-0.4-5.3-7.3h0.5c-0.4-0.5-0.6-1.1-0.9-1.7l0.2-2c-2.1-2.4-0.6-10.3-0.3-14.6c0.2-1.7,1.7-3.6,2.9-6.5l-0.7-0.1
					c1.4-2.4,7.8-9.5,10.7-9.1c1.4-1.8-0.3,0-0.6-0.5c3.2-3.3,4.1-2.3,6.3-2.9c2.3-1.4-2,0.5-0.9-0.5c4-1,2.8-2.3,8-2.8
					c0.5,0.3-1.3,0.5-1.7,0.9c3.3-1.6,10.5-1.2,15.1,0.9c5.4,2.5,11.4,10,11.7,17l0.3,0.1c-0.1,2.8,0.4,6-0.6,9L664.5,506.6"/>
				<path class="st6" d="M631.9,516.1l-0.2,0.9c0.9,1.2,1.6,2.4,2.7,3.4C633.5,518.8,633,518.2,631.9,516.1"/>
				<path class="st6" d="M633.9,516c-0.5-0.5-0.7-1.1-1-1.7c0.3,1.1,0.9,2,1.4,2.9L633.9,516"/>
				<path class="st6" d="M670.1,508.1l-0.2,0.5c-0.4,2.5-1.1,5-2.3,7.3C668.9,513.5,669.7,510.8,670.1,508.1"/>
				<path class="st6" d="M641.5,472.7c0.9-0.3,2.2-0.2,3.1-0.4c-1.2,0.1-2.5,0.2-3.7,0.3L641.5,472.7"/>
				<path class="st6" d="M610.3,489.3c0.2,1.9-1.4,2.6,0.4,1.4C611.6,488.5,610.3,490.1,610.3,489.3"/>
				<path class="st6" d="M608.2,498.1c0.4-1.3,0.5-2,0.6-2.8C607.7,496.8,608.3,497.1,608.2,498.1"/>
			</g>
			<g class="st7">
				
					<radialGradient id="SVGID_00000042724747775095359100000004624247994019142530_" cx="-167.6101" cy="9384.333" r="173.24" gradientTransform="matrix(0.8642 0.5228 -0.5025 0.9115 5295.5864 -7820.9434)" gradientUnits="userSpaceOnUse">
					<stop  offset="0" style="stop-color:#18F5B0"/>
					<stop  offset="1" style="stop-color:#05475C;stop-opacity:0"/>
				</radialGradient>
				
					<ellipse style="opacity:0.34;fill:url(#SVGID_00000042724747775095359100000004624247994019142530_);enable-background:new    ;" cx="446.2" cy="617.9" rx="173.2" ry="181.5"/>
				
					<linearGradient id="SVGID_00000135670806001809783110000011481800902258302382_" gradientUnits="userSpaceOnUse" x1="1846.4907" y1="-2704.1526" x2="2043.2992" y2="-2704.1526" gradientTransform="matrix(-0.7151 0.699 -0.5383 -0.5506 444.7119 -2563.033)">
					<stop  offset="0" style="stop-color:#18F5B0"/>
					<stop  offset="1" style="stop-color:#05475C;stop-opacity:0"/>
				</linearGradient>
				
					<polygon style="opacity:0.34;fill:url(#SVGID_00000135670806001809783110000011481800902258302382_);enable-background:new    ;" points="
					380.3,293.9 490.7,125.3 629,347.1 565,387.5 				"/>
				
					<linearGradient id="SVGID_00000163790998800306223480000010347503102700258746_" gradientUnits="userSpaceOnUse" x1="1911.8447" y1="6628.4746" x2="2183.0073" y2="6628.4746" gradientTransform="matrix(0.7774 0.629 -0.629 0.7774 3123.4453 -6167.4673)">
					<stop  offset="0" style="stop-color:#18F5B0"/>
					<stop  offset="1" style="stop-color:#05475C;stop-opacity:0"/>
				</linearGradient>
				
					<polygon style="opacity:0.34;fill:url(#SVGID_00000163790998800306223480000010347503102700258746_);enable-background:new    ;" points="
					551.9,466.7 464.8,251.5 490.7,125.3 585.6,173.5 705.1,213.8 681,321.2 				"/>
				
					<linearGradient id="SVGID_00000167363334016833603620000011495739702419862698_" gradientUnits="userSpaceOnUse" x1="-9853.9199" y1="6215.8276" x2="-9351.5713" y2="6215.8276" gradientTransform="matrix(0.3915 -0.9202 0.9202 0.3915 -1563.3262 -10847.0449)">
					<stop  offset="0" style="stop-color:#AABDCB"/>
					<stop  offset="1" style="stop-color:#05475C;stop-opacity:0"/>
				</linearGradient>
				
					<polygon style="opacity:0.34;fill:url(#SVGID_00000167363334016833603620000011495739702419862698_);enable-background:new    ;" points="
					138.3,585.8 309.2,371.9 479.9,185.2 619.5,345.1 				"/>
				
					<linearGradient id="SVGID_00000155136516645395636530000004720547928093345703_" gradientUnits="userSpaceOnUse" x1="6789.042" y1="124.1344" x2="7006.3218" y2="124.1344" gradientTransform="matrix(-0.3483 0.5724 -0.7648 -0.6285 3274.6648 -3573.2114)">
					<stop  offset="0" style="stop-color:#18F5B0"/>
					<stop  offset="1" style="stop-color:#05475C;stop-opacity:0"/>
				</linearGradient>
				
					<polygon style="opacity:0.34;fill:url(#SVGID_00000155136516645395636530000004720547928093345703_);enable-background:new    ;" points="
					891.9,363.7 906.6,490.1 668.7,282.2 652.8,95.9 				"/>
				
					<linearGradient id="SVGID_00000048500129275522854470000011057957717869914798_" gradientUnits="userSpaceOnUse" x1="-5467.3535" y1="7078.3965" x2="-5161.8506" y2="7078.3965" gradientTransform="matrix(0.7151 -0.699 0.699 0.7151 -437.2673 -8492.7812)">
					<stop  offset="0" style="stop-color:#AABDCB"/>
					<stop  offset="1" style="stop-color:#05475C;stop-opacity:0"/>
				</linearGradient>
				
					<polygon style="opacity:0.34;fill:url(#SVGID_00000048500129275522854470000011057957717869914798_);enable-background:new    ;" points="
					668.7,282.2 464.8,251.5 569.2,184.3 709.8,65.1 888.9,381.2 				"/>
				
					<linearGradient id="SVGID_00000042723334646911881860000016078027937150593205_" gradientUnits="userSpaceOnUse" x1="3910.2715" y1="-196.006" x2="4145.3232" y2="-196.006" gradientTransform="matrix(-0.5898 0.8076 -0.8076 -0.5898 2839.8289 -3149.1245)">
					<stop  offset="0" style="stop-color:#18F5B0"/>
					<stop  offset="1" style="stop-color:#05475C;stop-opacity:0"/>
				</linearGradient>
				
					<polygon style="opacity:0.34;fill:url(#SVGID_00000042723334646911881860000016078027937150593205_);enable-background:new    ;" points="
					640,343.1 410.2,209.8 652.8,95.9 723.6,381.2 				"/>
				
					<linearGradient id="SVGID_00000048474260712295130220000016231228586203786379_" gradientUnits="userSpaceOnUse" x1="-10359.2861" y1="-983.8054" x2="-9992.7871" y2="-983.8054" gradientTransform="matrix(-0.2682 -0.9634 1.0501 -0.2924 -1403.4604 -9384.5234)">
					<stop  offset="0" style="stop-color:#18F5B0"/>
					<stop  offset="1" style="stop-color:#05475C;stop-opacity:0"/>
				</linearGradient>
				
					<polygon style="opacity:0.34;fill:url(#SVGID_00000048474260712295130220000016231228586203786379_);enable-background:new    ;" points="
					337.1,503.1 436.4,628.4 187.9,925.1 201.4,713.6 				"/>
				
					<linearGradient id="SVGID_00000172433095123840620810000004087266759293635517_" gradientUnits="userSpaceOnUse" x1="3180.0928" y1="-5349.5884" x2="3564.21" y2="-5349.5884" gradientTransform="matrix(-0.9257 0.3783 -0.3783 -0.9257 1362.1681 -5550.5625)">
					<stop  offset="0" style="stop-color:#18F5B0"/>
					<stop  offset="1" style="stop-color:#05475C;stop-opacity:0"/>
				</linearGradient>
				
					<polygon style="opacity:0.34;fill:url(#SVGID_00000172433095123840620810000004087266759293635517_);enable-background:new    ;" points="
					77,591.9 379,552.8 446.2,614.6 308.2,804 196.1,867 107.7,801.7 				"/>
				
					<linearGradient id="SVGID_00000021090966104902184670000005903400369114996105_" gradientUnits="userSpaceOnUse" x1="-20762.5879" y1="-4303.3154" x2="-20312.8887" y2="-4303.3154" gradientTransform="matrix(-0.2347 -0.2596 0.879 -0.2953 -729.7987 -6031.9341)">
					<stop  offset="0" style="stop-color:#AABDCB"/>
					<stop  offset="1" style="stop-color:#05475C;stop-opacity:0"/>
				</linearGradient>
				
					<polygon style="opacity:0.34;fill:url(#SVGID_00000021090966104902184670000005903400369114996105_);enable-background:new    ;" points="
					111.9,699.7 138.3,585.8 486,421.6 380.3,556.1 				"/>
				
					<linearGradient id="SVGID_00000039839908873100496810000013923238145640286655_" gradientUnits="userSpaceOnUse" x1="14060.2383" y1="4867.2598" x2="14968.1787" y2="4867.2598" gradientTransform="matrix(0.1765 0.3022 -0.9209 0.1087 2262.0859 -4081.3711)">
					<stop  offset="0" style="stop-color:#AABDCB"/>
					<stop  offset="1" style="stop-color:#05475C;stop-opacity:0"/>
				</linearGradient>
				
					<polygon style="opacity:0.34;fill:url(#SVGID_00000039839908873100496810000013923238145640286655_);enable-background:new    ;" points="
					420.4,701.5 573.4,958.9 184.3,836.5 201.4,713.6 				"/>
				
					<linearGradient id="SVGID_00000015348167180777612620000010064817657128597650_" gradientUnits="userSpaceOnUse" x1="-9853.9199" y1="6157.9985" x2="-9566.71" y2="6157.9985" gradientTransform="matrix(0.3915 -0.9202 0.9202 0.3915 -1563.3262 -10847.0449)">
					<stop  offset="0" style="stop-color:#AABDCB"/>
					<stop  offset="1" style="stop-color:#05475C;stop-opacity:0"/>
				</linearGradient>
				
					<polygon style="opacity:0.34;fill:url(#SVGID_00000015348167180777612620000010064817657128597650_);enable-background:new    ;" points="
					379,552.8 138.3,585.8 213.2,351.6 486,421.6 				"/>
				
					<radialGradient id="SVGID_00000147203614316025113080000001649793632838859923_" cx="-238.56" cy="9050.043" r="181.94" gradientTransform="matrix(0.8642 0.5228 -0.5025 0.9115 5295.5864 -7820.9434)" gradientUnits="userSpaceOnUse">
					<stop  offset="0" style="stop-color:#18F5B0"/>
					<stop  offset="1" style="stop-color:#05475C;stop-opacity:0"/>
				</radialGradient>
				
					<ellipse style="opacity:0.34;fill:url(#SVGID_00000147203614316025113080000001649793632838859923_);enable-background:new    ;" cx="551.9" cy="277.4" rx="181.9" ry="190.6"/>
				
					<linearGradient id="SVGID_00000024711510340903871490000006089996394266171267_" gradientUnits="userSpaceOnUse" x1="3180.0928" y1="-5434.7988" x2="3474.4927" y2="-5434.7988" gradientTransform="matrix(-0.9257 0.3783 -0.3783 -0.9257 1362.1681 -5550.5625)">
					<stop  offset="0" style="stop-color:#18F5B0"/>
					<stop  offset="1" style="stop-color:#05475C;stop-opacity:0"/>
				</linearGradient>
				
					<polygon style="opacity:0.34;fill:url(#SVGID_00000024711510340903871490000006089996394266171267_);enable-background:new    ;" points="
					181.4,610.1 446.2,614.6 397.1,908.1 308.2,804 212.1,820 				"/>
				
					<linearGradient id="SVGID_00000105410690916468212710000018229497141468633255_" gradientUnits="userSpaceOnUse" x1="-2975.406" y1="8971.3203" x2="-2708.8462" y2="8971.3203" gradientTransform="matrix(0.9797 -0.2004 0.2004 0.9797 1334.2218 -9014.96)">
					<stop  offset="0" style="stop-color:#AABDCB"/>
					<stop  offset="1" style="stop-color:#05475C;stop-opacity:0"/>
				</linearGradient>
				
					<polygon style="opacity:0.34;fill:url(#SVGID_00000105410690916468212710000018229497141468633255_);enable-background:new    ;" points="
					213.2,351.6 410.2,317.4 464.8,251.5 477.9,385.5 				"/>
			</g>
			
				<linearGradient id="SVGID_00000075128596990443817050000017969830986676745638_" gradientUnits="userSpaceOnUse" x1="-10166.4922" y1="6224.7261" x2="-9726.3428" y2="6224.7261" gradientTransform="matrix(0.4172 -0.9088 0.9088 0.4172 -18.9758 -10733.3369)">
				<stop  offset="0" style="stop-color:#18F5B0"/>
				<stop  offset="1" style="stop-color:#05475C;stop-opacity:0"/>
			</linearGradient>
			
				<polygon style="opacity:0.12;fill:url(#SVGID_00000075128596990443817050000017969830986676745638_);enable-background:new    ;" points="
				1820.7,812.5 1664.5,1225.1 1187.2,853.3 1282,703.1 			"/>
			
				<linearGradient id="SVGID_00000072961008146840791680000016807539049992243611_" gradientUnits="userSpaceOnUse" x1="-4277.1182" y1="-6122.2666" x2="-3725.3748" y2="-6122.2666" gradientTransform="matrix(-0.9511 -0.3089 0.3089 -0.9511 -528.0334 -6087.0166)">
				<stop  offset="0" style="stop-color:#18F5B0"/>
				<stop  offset="1" style="stop-color:#05475C;stop-opacity:0"/>
			</linearGradient>
			
				<polygon style="opacity:0.12;fill:url(#SVGID_00000072961008146840791680000016807539049992243611_);enable-background:new    ;" points="
				1236,541.8 1463,963.1 1614.2,1163.5 1325,1228.7 1106.9,1262.3 1093.7,998.6 			"/>
			
				<linearGradient id="SVGID_00000031890984905232638220000012924312695622134701_" gradientUnits="userSpaceOnUse" x1="-9057.7783" y1="5249.3452" x2="-8665.4756" y2="5249.3452" gradientTransform="matrix(0.2612 -0.9653 0.9653 0.2612 -1344.2992 -9006.2939)">
				<stop  offset="0" style="stop-color:#18F5B0"/>
				<stop  offset="1" style="stop-color:#05475C;stop-opacity:0"/>
			</linearGradient>
			
				<polygon style="opacity:0.12;fill:url(#SVGID_00000031890984905232638220000012924312695622134701_);enable-background:new    ;" points="
				1301.5,748.5 1748.4,807.8 1607.9,1176.2 1143.9,749.9 			"/>
			
				<linearGradient id="SVGID_00000065046384445344792090000003478596604638745251_" gradientUnits="userSpaceOnUse" x1="1391.6932" y1="8067.9814" x2="1813.9323" y2="8067.9814" gradientTransform="matrix(0.9919 -0.1269 0.1269 0.9919 -1184.3568 -6728.7344)">
				<stop  offset="0" style="stop-color:#18F5B0"/>
				<stop  offset="1" style="stop-color:#05475C;stop-opacity:0"/>
			</linearGradient>
			
				<polygon style="opacity:0.12;fill:url(#SVGID_00000065046384445344792090000003478596604638745251_);enable-background:new    ;" points="
				1663.4,1236.7 1343.6,1189.3 1195.2,904.3 			"/>
			
				<linearGradient id="SVGID_00000021115803912966498700000015007524738145874315_" gradientUnits="userSpaceOnUse" x1="12235.9023" y1="11466.2393" x2="12768.3418" y2="11466.2393" gradientTransform="matrix(0.3792 0.341 -0.9317 0.5609 5873.9985 -10646.7227)">
				<stop  offset="0" style="stop-color:#AABDCB"/>
				<stop  offset="1" style="stop-color:#05475C;stop-opacity:0"/>
			</linearGradient>
			
				<polygon style="opacity:0.12;fill:url(#SVGID_00000021115803912966498700000015007524738145874315_);enable-background:new    ;" points="
				-43.3,-103.4 93.8,-79.6 5.9,169.4 -293.8,118.4 			"/>
			
				<linearGradient id="SVGID_00000067237004585982578340000002242952609140013460_" gradientUnits="userSpaceOnUse" x1="9584.9111" y1="4308.0015" x2="10170.541" y2="4308.0015" gradientTransform="matrix(0.353 0.5695 -0.9064 0.3978 368.9956 -7384.6206)">
				<stop  offset="0" style="stop-color:#18F5B0"/>
				<stop  offset="1" style="stop-color:#05475C;stop-opacity:0"/>
			</linearGradient>
			
				<polygon style="opacity:0.12;fill:url(#SVGID_00000067237004585982578340000002242952609140013460_);enable-background:new    ;" points="
				0.6,-59.9 218.6,42 -139.7,150.5 -322.7,-143.1 			"/>
			
				<linearGradient id="SVGID_00000090293016052082708370000009028973685578167700_" gradientUnits="userSpaceOnUse" x1="-10828.29" y1="-864.1065" x2="-10509.252" y2="-864.1065" gradientTransform="matrix(-0.3976 -0.9175 0.9175 -0.3976 -3626.5217 -9952.3926)">
				<stop  offset="0" style="stop-color:#18F5B0"/>
				<stop  offset="1" style="stop-color:#05475C;stop-opacity:0"/>
			</linearGradient>
			
				<polygon style="opacity:0.12;fill:url(#SVGID_00000090293016052082708370000009028973685578167700_);enable-background:new    ;" points="
				-357.5,136.3 34.7,-85.5 121.9,224.4 -483.5,228.3 			"/>
			
				<linearGradient id="SVGID_00000048489712254272962520000016292241699845468555_" gradientUnits="userSpaceOnUse" x1="-4798.1938" y1="7385.0376" x2="-4363.2798" y2="7385.0376" gradientTransform="matrix(0.6964 -0.7176 0.7176 0.6964 -2081.5779 -8271.627)">
				<stop  offset="0" style="stop-color:#18F5B0"/>
				<stop  offset="1" style="stop-color:#05475C;stop-opacity:0"/>
			</linearGradient>
			
				<polygon style="opacity:0.12;fill:url(#SVGID_00000048489712254272962520000016292241699845468555_);enable-background:new    ;" points="
				306.8,126.1 23.4,281.7 -251,190.8 			"/>
			
				<linearGradient id="SVGID_00000151503564951820955730000012733629342681631675_" gradientUnits="userSpaceOnUse" x1="-9629.1396" y1="2663.3132" x2="-9194.2695" y2="2663.3132" gradientTransform="matrix(-9.480336e-02 -0.9955 0.9955 -9.480336e-02 -2834.0396 -8092.8613)">
				<stop  offset="0" style="stop-color:#18F5B0"/>
				<stop  offset="1" style="stop-color:#05475C;stop-opacity:0"/>
			</linearGradient>
			
				<polygon style="opacity:0.12;fill:url(#SVGID_00000151503564951820955730000012733629342681631675_);enable-background:new    ;" points="
				865.8,790.7 800.5,1107.3 553.3,1257.3 			"/>
		</g>
	</g>
</g>
</svg>
